Heraclito[wght].glyphspackage
{
glyphname = exclam;
layers = (
{
layerId = "3741C398-C536-4E04-9B31-DF775DED3426";
shapes = (
{
closed = 1;
nodes = (
(371,-32,o),
(432,-6,o),
(475,38,cs),
(518,81,o),
(540,141,o),
(540,206,cs),
(540,274,o),
(519,329,o),
(476,372,cs),
(433,415,o),
(372,438,o),
(296,438,cs),
(219,438,o),
(159,415,o),
(116,372,cs),
(73,329,o),
(50,274,o),
(50,206,cs),
(50,141,o),
(73,81,o),
(116,38,cs),
(159,-6,o),
(218,-32,o),
(294,-32,cs)
);
},
{
closed = 1;
nodes = (
(476,570,l),
(495,879,o),
(511,1175,o),
(530,1478,c),
(64,1466,l),
(83,1169,o),
(99,871,o),
(118,566,c)
);
}
);
width = 590;
},
{
layerId = "32AC1926-81FC-462E-AFF9-9B08428E2569";
shapes = (
{
closed = 1;
nodes = (
(302,-24,o),
(341,-7,o),
(369,21,cs),
(397,49,o),
(412,89,o),
(412,134,cs),
(412,181,o),
(397,219,o),
(369,246,cs),
(341,273,o),
(302,289,o),
(251,289,cs),
(202,289,o),
(161,273,o),
(133,246,cs),
(105,219,o),
(90,181,o),
(90,134,cs),
(90,89,o),
(105,49,o),
(133,21,cs),
(161,-7,o),
(202,-24,o),
(251,-24,cs)
);
},
{
closed = 1;
nodes = (
(349,516,l),
(357,841,o),
(372,1154,o),
(387,1473,c),
(119,1465,l),
(134,1150,o),
(149,836,o),
(157,512,c)
);
}
);
width = 502;
},
{
layerId = "608C4FA3-96E7-4DF2-B0AE-105347578AB3";
shapes = (
{
closed = 1;
nodes = (
(278,-22,o),
(310,-8,o),
(333,15,cs),
(357,38,o),
(369,71,o),
(369,109,cs),
(369,149,o),
(357,181,o),
(333,203,cs),
(310,225,o),
(278,238,o),
(236,238,cs),
(196,238,o),
(163,225,o),
(139,203,cs),
(116,181,o),
(104,149,o),
(104,109,cs),
(104,71,o),
(116,38,o),
(139,15,cs),
(163,-8,o),
(196,-22,o),
(236,-22,cs)
);
},
{
closed = 1;
nodes = (
(306,498,l),
(311,829,o),
(325,1146,o),
(339,1471,c),
(138,1465,l),
(152,1143,o),
(165,824,o),
(170,494,c)
);
}
);
width = 472;
},
{
layerId = "5E854513-9682-4163-9876-812542B08F08";
shapes = (
{
closed = 1;
nodes = (
(242,-18,o),
(264,-10,o),
(280,6,cs),
(296,22,o),
(304,44,o),
(304,72,cs),
(304,101,o),
(296,123,o),
(280,139,cs),
(264,154,o),
(242,162,o),
(214,162,cs),
(187,162,o),
(165,154,o),
(149,139,cs),
(133,123,o),
(124,101,o),
(124,72,cs),
(124,44,o),
(133,22,o),
(149,6,cs),
(165,-10,o),
(187,-18,o),
(214,-18,cs)
);
},
{
closed = 1;
nodes = (
(242,471,l),
(242,812,o),
(254,1135,o),
(266,1468,c),
(166,1464,l),
(178,1133,o),
(190,807,o),
(190,467,c)
);
}
);
width = 428;
}
);
leftKerningGroup = b2;
rightKerningGroup = d;
unicode = 33;
}
{
glyphname = quotedbl;
layers = (
{
layerId = "3741C398-C536-4E04-9B31-DF775DED3426";
shapes = (
{
alignment = -1;
ref = quotesingle;
},
{
alignment = -1;
pos = (508,0);
ref = quotesingle;
}
);
width = 1012;
},
{
layerId = "32AC1926-81FC-462E-AFF9-9B08428E2569";
shapes = (
{
alignment = -1;
ref = quotesingle;
},
{
alignment = -1;
pos = (382,0);
ref = quotesingle;
}
);
width = 811;
},
{
layerId = "608C4FA3-96E7-4DF2-B0AE-105347578AB3";
shapes = (
{
closed = 1;
nodes = (
(243,875,l),
(247,1085,o),
(261,1283,o),
(274,1489,c),
(87,1484,l),
(101,1280,o),
(114,1084,o),
(118,873,c)
);
},
{
closed = 1;
nodes = (
(583,875,l),
(587,1085,o),
(601,1283,o),
(614,1489,c),
(427,1484,l),
(441,1280,o),
(454,1084,o),
(458,873,c)
);
}
);
width = 743;
},
{
layerId = "5E854513-9682-4163-9876-812542B08F08";
shapes = (
{
alignment = -1;
ref = quotesingle;
},
{
alignment = -1;
pos = (276,0);
ref = quotesingle;
}
);
width = 642;
}
);
leftKerningGroup = quotedbl2;
rightKerningGroup = quotedbl;
unicode = 34;
}
{
glyphname = numbersign;
layers = (
{
layerId = "3741C398-C536-4E04-9B31-DF775DED3426";
shapes = (
{
closed = 1;
nodes = (
(20,216,l),
(436,216,l),
(904,216,l),
(1320,216,l),
(1320,536,l),
(904,536,l),
(436,536,l),
(20,536,l)
);
},
{
closed = 1;
nodes = (
(508,0,l),
(519,69,o),
(530,135,o),
(542,207,cs),
(553,279,o),
(565,353,o),
(578,438,cs),
(653,902,ls),
(668,994,o),
(679,1066,o),
(691,1138,cs),
(702,1210,o),
(712,1273,o),
(724,1346,c),
(400,1346,l),
(388,1269,o),
(377,1201,o),
(366,1133,cs),
(354,1064,o),
(344,991,o),
(329,903,cs),
(254,438,ls),
(241,350,o),
(228,275,o),
(217,203,cs),
(205,131,o),
(195,65,o),
(184,0,c)
);
},
{
closed = 1;
nodes = (
(108,804,l),
(524,804,l),
(992,804,l),
(1408,804,l),
(1408,1124,l),
(992,1124,l),
(524,1124,l),
(108,1124,l)
);
},
{
closed = 1;
nodes = (
(1028,0,l),
(1039,69,o),
(1050,135,o),
(1062,207,cs),
(1073,279,o),
(1085,353,o),
(1098,438,cs),
(1173,902,ls),
(1188,994,o),
(1199,1066,o),
(1211,1138,cs),
(1222,1210,o),
(1232,1273,o),
(1244,1346,c),
(920,1346,l),
(908,1269,o),
(897,1202,o),
(886,1133,cs),
(875,1064,o),
(864,994,o),
(849,902,cs),
(774,438,ls),
(761,350,o),
(748,275,o),
(737,203,cs),
(725,131,o),
(715,65,o),
(704,0,c)
);
}
);
width = 1428;
},
{
layerId = "32AC1926-81FC-462E-AFF9-9B08428E2569";
shapes = (
{
closed = 1;
nodes = (
(31,284,l),
(395,284,l),
(880,284,l),
(1244,284,l),
(1244,461,l),
(880,461,l),
(395,461,l),
(31,461,l)
);
},
{
closed = 1;
nodes = (
(407,0,l),
(420,69,o),
(433,134,o),
(446,202,cs),
(458,270,o),
(472,342,o),
(488,426,cs),
(575,885,ls),
(592,974,o),
(607,1049,o),
(620,1118,cs),
(633,1187,o),
(646,1252,o),
(659,1324,c),
(477,1324,l),
(464,1251,o),
(450,1185,o),
(438,1116,cs),
(425,1047,o),
(410,974,o),
(394,886,cs),
(306,426,ls),
(290,341,o),
(276,268,o),
(264,200,cs),
(251,132,o),
(238,68,o),
(225,0,c)
);
},
{
closed = 1;
nodes = (
(137,857,l),
(501,857,l),
(987,857,l),
(1351,857,l),
(1351,1034,l),
(987,1034,l),
(501,1034,l),
(137,1034,l)
);
},
{
closed = 1;
nodes = (
(895,0,l),
(908,69,o),
(920,134,o),
(933,202,cs),
(946,270,o),
(959,342,o),
(975,426,cs),
(1063,885,ls),
(1080,974,o),
(1094,1049,o),
(1107,1118,cs),
(1120,1187,o),
(1133,1252,o),
(1146,1324,c),
(964,1324,l),
(951,1251,o),
(938,1185,o),
(925,1116,cs),
(912,1047,o),
(898,973,o),
(881,885,cs),
(794,426,ls),
(778,341,o),
(764,268,o),
(751,200,cs),
(738,132,o),
(726,68,o),
(713,0,c)
);
}
);
width = 1381;
},
{
layerId = "608C4FA3-96E7-4DF2-B0AE-105347578AB3";
shapes = (
{
closed = 1;
nodes = (
(35,307,l),
(381,307,l),
(872,307,l),
(1218,307,l),
(1218,436,l),
(872,436,l),
(381,436,l),
(35,436,l)
);
},
{
closed = 1;
nodes = (
(373,0,l),
(387,69,o),
(400,133,o),
(414,201,cs),
(427,269,o),
(441,338,o),
(458,422,cs),
(549,879,ls),
(567,968,o),
(582,1043,o),
(596,1112,cs),
(610,1181,o),
(623,1246,o),
(637,1317,c),
(503,1317,l),
(489,1245,o),
(475,1179,o),
(462,1110,cs),
(448,1041,o),
(433,968,o),
(416,880,cs),
(324,422,ls),
(307,338,o),
(293,268,o),
(280,200,cs),
(266,132,o),
(253,68,o),
(239,0,c)
);
},
{
closed = 1;
nodes = (
(147,875,l),
(493,875,l),
(985,875,l),
(1331,875,l),
(1331,1004,l),
(985,1004,l),
(493,1004,l),
(147,1004,l)
);
},
{
closed = 1;
nodes = (
(850,0,l),
(864,69,o),
(876,133,o),
(890,201,cs),
(904,269,o),
(917,338,o),
(934,422,cs),
(1026,879,ls),
(1044,968,o),
(1058,1043,o),
(1072,1112,cs),
(1086,1181,o),
(1099,1246,o),
(1113,1317,c),
(979,1317,l),
(965,1245,o),
(952,1179,o),
(938,1110,cs),
(924,1041,o),
(910,967,o),
(892,879,cs),
(800,422,ls),
(784,338,o),
(770,268,o),
(756,200,cs),
(742,132,o),
(730,68,o),
(716,0,c)
);
}
);
width = 1365;
},
{
layerId = "5E854513-9682-4163-9876-812542B08F08";
shapes = (
{
closed = 1;
nodes = (
(40,342,l),
(360,342,l),
(860,342,l),
(1180,342,l),
(1180,398,l),
(860,398,l),
(360,398,l),
(40,398,l)
);
},
{
closed = 1;
nodes = (
(322,0,l),
(337,69,o),
(350,131,o),
(365,199,cs),
(380,267,o),
(395,333,o),
(412,417,cs),
(510,870,ls),
(529,958,o),
(545,1033,o),
(560,1102,cs),
(575,1171,o),
(589,1237,o),
(604,1306,c),
(542,1306,l),
(527,1237,o),
(513,1171,o),
(498,1102,cs),
(483,1033,o),
(467,959,o),
(448,871,cs),
(350,417,ls),
(333,333,o),
(318,267,o),
(303,199,cs),
(288,131,o),
(275,69,o),
(260,0,c)
);
},
{
closed = 1;
nodes = (
(162,902,l),
(482,902,l),
(982,902,l),
(1302,902,l),
(1302,958,l),
(982,958,l),
(482,958,l),
(162,958,l)
);
},
{
closed = 1;
nodes = (
(782,0,l),
(797,69,o),
(810,131,o),
(825,199,cs),
(840,267,o),
(855,333,o),
(872,417,cs),
(970,870,ls),
(989,958,o),
(1005,1033,o),
(1020,1102,cs),
(1035,1171,o),
(1049,1237,o),
(1064,1306,c),
(1002,1306,l),
(987,1237,o),
(973,1171,o),
(958,1102,cs),
(943,1033,o),
(927,959,o),
(908,871,cs),
(810,417,ls),
(793,333,o),
(778,267,o),
(763,199,cs),
(748,131,o),
(735,69,o),
(720,0,c)
);
}
);
width = 1342;
}
);
unicode = 35;
}
{
glyphname = dollar;
layers = (
{
layerId = "3741C398-C536-4E04-9B31-DF775DED3426";
shapes = (
{
closed = 1;
nodes = (
(766,-30,o),
(905,10,o),
(1001,86,cs),
(1097,162,o),
(1138,273,o),
(1138,414,cs),
(1138,539,o),
(1113,625,o),
(1045,693,cs),
(977,761,o),
(871,807,o),
(710,852,cs),
(625,876,o),
(563,889,o),
(523,904,cs),
(483,919,o),
(464,933,o),
(464,958,cs),
(464,982,o),
(486,1000,o),
(519,1012,cs),
(552,1024,o),
(597,1030,o),
(644,1030,cs),
(704,1030,o),
(768,1021,o),
(836,1002,cs),
(904,983,o),
(970,956,o),
(1034,920,c),
(1064,1310,l),
(1004,1334,o),
(921,1357,o),
(833,1373,cs),
(744,1389,o),
(649,1400,o),
(564,1400,cs),
(384,1400,o),
(258,1359,o),
(174,1279,cs),
(90,1199,o),
(50,1093,o),
(50,956,cs),
(50,823,o),
(85,734,o),
(149,666,cs),
(213,598,o),
(307,558,o),
(424,526,cs),
(517,501,o),
(593,486,o),
(645,470,cs),
(697,454,o),
(726,437,o),
(726,406,cs),
(726,383,o),
(711,364,o),
(680,352,cs),
(649,339,o),
(603,332,o),
(542,332,cs),
(477,332,o),
(402,342,o),
(326,362,cs),
(250,382,o),
(174,410,o),
(106,446,c),
(74,62,l),
(127,38,o),
(206,15,o),
(294,-2,cs),
(382,-19,o),
(477,-30,o),
(562,-30,cs)
);
},
{
closed = 1;
nodes = (
(764,-274,l),
(764,384,l),
(764,948,l),
(764,1606,l),
(444,1606,l),
(444,948,l),
(444,384,l),
(444,-274,l)
);
}
);
width = 1176;
},
{
layerId = "32AC1926-81FC-462E-AFF9-9B08428E2569";
shapes = (
{
closed = 1;
nodes = (
(747,-23,o),
(868,18,o),
(949,90,cs),
(1029,162,o),
(1067,261,o),
(1067,382,cs),
(1067,486,o),
(1043,563,o),
(975,627,cs),
(907,691,o),
(804,740,o),
(639,789,c),
(526,825,o),
(447,851,o),
(395,883,c),
(342,914,o),
(318,950,o),
(318,1006,cs),
(318,1071,o),
(350,1118,o),
(401,1149,cs),
(452,1180,o),
(517,1192,o),
(589,1192,cs),
(649,1192,o),
(712,1184,o),
(777,1165,cs),
(842,1146,o),
(907,1120,o),
(967,1081,c),
(988,1296,l),
(941,1321,o),
(874,1346,o),
(798,1365,cs),
(722,1384,o),
(637,1396,o),
(556,1396,cs),
(399,1396,o),
(285,1355,o),
(209,1286,cs),
(132,1217,o),
(94,1118,o),
(94,1005,cs),
(94,892,o),
(130,811,o),
(198,751,cs),
(266,690,o),
(365,649,o),
(494,610,cs),
(602,577,o),
(690,551,o),
(751,516,cs),
(811,481,o),
(844,440,o),
(844,379,cs),
(844,307,o),
(814,256,o),
(765,224,cs),
(716,191,o),
(647,177,o),
(563,177,cs),
(490,177,o),
(414,188,o),
(342,208,cs),
(269,227,o),
(199,255,o),
(134,290,c),
(114,79,l),
(161,54,o),
(233,28,o),
(314,9,cs),
(395,-10,o),
(487,-23,o),
(572,-23,cs)
);
},
{
closed = 1;
nodes = (
(671,-274,l),
(671,384,l),
(671,948,l),
(671,1606,l),
(492,1606,l),
(492,948,l),
(492,384,l),
(492,-274,l)
);
}
);
width = 1137;
},
{
layerId = "608C4FA3-96E7-4DF2-B0AE-105347578AB3";
shapes = (
{
closed = 1;
nodes = (
(740,-21,o),
(854,21,o),
(932,91,cs),
(1009,162,o),
(1043,258,o),
(1043,371,cs),
(1043,468,o),
(1019,542,o),
(951,604,cs),
(883,667,o),
(780,716,o),
(615,768,c),
(494,807,o),
(409,838,o),
(352,876,cs),
(294,913,o),
(269,956,o),
(269,1022,cs),
(269,1101,o),
(305,1158,o),
(361,1194,cs),
(418,1231,o),
(491,1246,o),
(570,1246,cs),
(629,1246,o),
(692,1239,o),
(757,1220,cs),
(822,1201,o),
(887,1174,o),
(945,1135,c),
(962,1291,l),
(920,1317,o),
(858,1342,o),
(786,1362,cs),
(715,1382,o),
(633,1394,o),
(553,1394,cs),
(405,1394,o),
(296,1355,o),
(221,1288,cs),
(146,1221,o),
(109,1128,o),
(109,1021,cs),
(109,915,o),
(146,838,o),
(216,780,cs),
(285,721,o),
(387,679,o),
(517,638,cs),
(632,602,o),
(723,572,o),
(787,531,cs),
(850,491,o),
(884,442,o),
(884,370,cs),
(884,281,o),
(851,219,o),
(794,181,c),
(738,141,o),
(660,125,o),
(570,125,cs),
(494,125,o),
(420,136,o),
(348,156,cs),
(275,175,o),
(208,203,o),
(144,237,c),
(128,84,l),
(173,59,o),
(242,32,o),
(321,13,cs),
(400,-7,o),
(490,-21,o),
(575,-21,cs)
);
},
{
closed = 1;
nodes = (
(639,-274,l),
(639,384,l),
(639,948,l),
(639,1606,l),
(508,1606,l),
(508,948,l),
(508,384,l),
(508,-274,l)
);
}
);
width = 1124;
},
{
layerId = "5E854513-9682-4163-9876-812542B08F08";
shapes = (
{
closed = 1;
nodes = (
(729,-18,o),
(834,25,o),
(906,93,cs),
(978,161,o),
(1008,254,o),
(1008,354,cs),
(1008,442,o),
(984,510,o),
(916,570,cs),
(848,630,o),
(745,680,o),
(578,736,cs),
(445,781,o),
(351,818,o),
(287,865,cs),
(223,912,o),
(196,966,o),
(196,1046,cs),
(196,1146,o),
(238,1217,o),
(302,1262,cs),
(366,1307,o),
(453,1328,o),
(542,1328,cs),
(598,1328,o),
(663,1322,o),
(727,1303,cs),
(791,1284,o),
(856,1256,o),
(912,1216,c),
(924,1284,l),
(889,1311,o),
(834,1337,o),
(769,1358,cs),
(704,1378,o),
(628,1392,o),
(548,1392,cs),
(415,1392,o),
(312,1355,o),
(240,1291,cs),
(168,1227,o),
(132,1142,o),
(132,1046,cs),
(132,949,o),
(170,879,o),
(242,823,cs),
(314,767,o),
(419,724,o),
(552,680,cs),
(677,640,o),
(772,603,o),
(840,554,cs),
(908,505,o),
(944,444,o),
(944,356,cs),
(944,243,o),
(906,164,o),
(838,116,cs),
(770,67,o),
(680,46,o),
(580,46,cs),
(499,46,o),
(428,57,o),
(356,77,cs),
(284,96,o),
(222,125,o),
(158,158,c),
(148,92,l),
(191,67,o),
(256,38,o),
(332,18,cs),
(408,-3,o),
(495,-18,o),
(580,-18,cs)
);
},
{
closed = 1;
nodes = (
(592,-274,l),
(592,384,l),
(592,948,l),
(592,1606,l),
(532,1606,l),
(532,948,l),
(532,384,l),
(532,-274,l)
);
}
);
width = 1104;
}
);
unicode = 36;
}
{
glyphname = percent;
layers = (
{
layerId = "70396C8E-6CDB-42F9-9328-A9E72BA9B704";
shapes = (
{
closed = 1;
nodes = (
(752,0,l),
(796,73,o),
(839,141,o),
(884,217,cs),
(929,293,o),
(976,368,o),
(1032,460,cs),
(1334,956,ls),
(1390,1048,o),
(1438,1128,o),
(1485,1204,cs),
(1532,1280,o),
(1575,1350,o),
(1620,1426,c),
(1236,1426,l),
(1191,1350,o),
(1148,1280,o),
(1101,1204,cs),
(1054,1128,o),
(1006,1048,o),
(950,956,cs),
(648,460,ls),
(592,368,o),
(545,293,o),
(500,217,cs),
(455,141,o),
(412,73,o),
(368,0,c)
);
},
{
closed = 1;
nodes = (
(595,708,o),
(700,743,o),
(776,807,cs),
(852,871,o),
(892,965,o),
(892,1086,cs),
(892,1194,o),
(852,1284,o),
(776,1352,cs),
(700,1420,o),
(595,1458,o),
(466,1458,cs),
(337,1458,o),
(233,1420,o),
(157,1352,cs),
(81,1284,o),
(40,1194,o),
(40,1086,cs),
(40,965,o),
(81,871,o),
(157,807,cs),
(233,743,o),
(337,708,o),
(466,708,cs)
);
},
{
closed = 1;
nodes = (
(433,970,o),
(406,981,o),
(387,1001,cs),
(368,1020,o),
(358,1049,o),
(358,1082,cs),
(358,1113,o),
(368,1141,o),
(387,1161,cs),
(406,1181,o),
(433,1194,o),
(466,1194,cs),
(501,1194,o),
(527,1180,o),
(546,1160,cs),
(565,1139,o),
(574,1111,o),
(574,1082,cs),
(574,1014,o),
(534,970,o),
(466,970,cs)
);
},
{
closed = 1;
nodes = (
(1651,-32,o),
(1756,3,o),
(1832,67,cs),
(1908,131,o),
(1948,225,o),
(1948,346,cs),
(1948,454,o),
(1908,544,o),
(1832,612,cs),
(1756,680,o),
(1651,718,o),
(1522,718,cs),
(1393,718,o),
(1289,680,o),
(1213,612,cs),
(1137,544,o),
(1096,454,o),
(1096,346,cs),
(1096,225,o),
(1137,131,o),
(1213,67,cs),
(1289,3,o),
(1393,-32,o),
(1522,-32,cs)
);
},
{
closed = 1;
nodes = (
(1489,230,o),
(1462,241,o),
(1443,261,cs),
(1424,280,o),
(1414,309,o),
(1414,342,cs),
(1414,373,o),
(1424,401,o),
(1443,421,cs),
(1462,441,o),
(1489,454,o),
(1522,454,cs),
(1557,454,o),
(1583,440,o),
(1602,420,cs),
(1621,399,o),
(1630,371,o),
(1630,342,cs),
(1630,274,o),
(1590,230,o),
(1522,230,cs)
);
}
);
width = 2008;
},
{
layerId = "3EF77CA0-AC37-45E2-BAEE-C9E0CE64A2A3";
shapes = (
{
closed = 1;
nodes = (
(598,0,l),
(641,73,o),
(680,141,o),
(724,217,cs),
(767,293,o),
(812,367,o),
(865,459,cs),
(1154,955,ls),
(1210,1048,o),
(1255,1128,o),
(1299,1204,cs),
(1343,1280,o),
(1384,1349,o),
(1428,1425,c),
(1215,1425,l),
(1171,1349,o),
(1130,1280,o),
(1086,1204,cs),
(1042,1128,o),
(997,1048,o),
(941,955,cs),
(652,459,ls),
(599,367,o),
(554,293,o),
(511,217,cs),
(467,141,o),
(428,73,o),
(385,0,c)
);
},
{
closed = 1;
nodes = (
(565,734,o),
(658,767,o),
(726,831,cs),
(794,895,o),
(833,981,o),
(833,1094,cs),
(833,1198,o),
(794,1286,o),
(726,1350,cs),
(658,1414,o),
(562,1453,o),
(449,1453,cs),
(332,1453,o),
(238,1414,o),
(170,1350,cs),
(102,1286,o),
(62,1198,o),
(62,1094,cs),
(62,981,o),
(102,895,o),
(170,831,cs),
(238,767,o),
(335,734,o),
(448,734,cs)
);
},
{
closed = 1;
nodes = (
(384,888,o),
(332,907,o),
(297,942,cs),
(261,977,o),
(241,1028,o),
(241,1092,cs),
(241,1152,o),
(261,1204,o),
(297,1241,cs),
(333,1277,o),
(385,1299,o),
(449,1299,cs),
(513,1299,o),
(564,1277,o),
(600,1241,c),
(635,1204,o),
(654,1152,o),
(654,1092,cs),
(654,963,o),
(577,888,o),
(448,888,cs)
);
},
{
closed = 1;
nodes = (
(1484,-24,o),
(1578,9,o),
(1646,73,cs),
(1714,137,o),
(1753,223,o),
(1753,336,cs),
(1753,440,o),
(1714,528,o),
(1646,592,cs),
(1578,656,o),
(1485,695,o),
(1368,695,cs),
(1251,695,o),
(1157,656,o),
(1089,592,cs),
(1021,528,o),
(981,440,o),
(981,336,cs),
(981,223,o),
(1021,137,o),
(1089,73,cs),
(1157,9,o),
(1254,-24,o),
(1367,-24,cs)
);
},
{
closed = 1;
nodes = (
(1303,130,o),
(1251,149,o),
(1216,184,cs),
(1180,219,o),
(1160,270,o),
(1160,334,cs),
(1160,394,o),
(1180,446,o),
(1216,483,cs),
(1252,519,o),
(1304,541,o),
(1368,541,cs),
(1432,541,o),
(1484,519,o),
(1520,483,c),
(1555,446,o),
(1574,394,o),
(1574,334,cs),
(1574,205,o),
(1500,130,o),
(1367,130,cs)
);
}
);
width = 1824;
},
{
layerId = "24538CAD-4802-43D5-ADA8-22A032C706C3";
shapes = (
{
closed = 1;
nodes = (
(540,0,l),
(582,73,o),
(621,141,o),
(663,217,cs),
(705,293,o),
(749,367,o),
(802,459,cs),
(1086,955,ls),
(1140,1049,o),
(1185,1128,o),
(1228,1204,cs),
(1272,1280,o),
(1312,1349,o),
(1355,1425,c),
(1207,1425,l),
(1164,1349,o),
(1124,1280,o),
(1081,1204,cs),
(1037,1128,o),
(993,1049,o),
(938,955,cs),
(654,459,ls),
(602,367,o),
(557,293,o),
(516,217,cs),
(473,141,o),
(434,73,o),
(392,0,c)
);
},
{
closed = 1;
nodes = (
(552,744,o),
(641,778,o),
(708,840,cs),
(774,902,o),
(811,988,o),
(811,1097,cs),
(811,1199,o),
(774,1286,o),
(708,1350,cs),
(641,1414,o),
(550,1452,o),
(442,1452,cs),
(332,1452,o),
(241,1414,o),
(175,1350,cs),
(109,1286,o),
(70,1199,o),
(70,1097,cs),
(70,988,o),
(108,902,o),
(175,840,cs),
(241,778,o),
(333,744,o),
(441,744,cs)
);
},
{
closed = 1;
nodes = (
(366,857,o),
(305,879,o),
(263,920,cs),
(220,960,o),
(196,1020,o),
(196,1096,cs),
(196,1168,o),
(220,1228,o),
(263,1272,cs),
(306,1314,o),
(367,1339,o),
(442,1339,cs),
(519,1339,o),
(578,1314,o),
(621,1272,c),
(663,1228,o),
(685,1168,o),
(685,1096,cs),
(685,943,o),
(595,857,o),
(441,857,cs)
);
},
{
closed = 1;
nodes = (
(1419,-21,o),
(1509,13,o),
(1575,75,cs),
(1642,137,o),
(1679,223,o),
(1679,332,cs),
(1679,434,o),
(1642,521,o),
(1575,585,cs),
(1509,649,o),
(1419,686,o),
(1310,686,cs),
(1200,686,o),
(1108,649,o),
(1042,585,cs),
(976,521,o),
(937,434,o),
(937,332,cs),
(937,223,o),
(976,137,o),
(1042,75,cs),
(1108,13,o),
(1200,-21,o),
(1308,-21,cs)
);
},
{
closed = 1;
nodes = (
(1233,91,o),
(1172,113,o),
(1130,154,cs),
(1087,195,o),
(1064,255,o),
(1064,330,cs),
(1064,403,o),
(1087,463,o),
(1130,506,cs),
(1173,549,o),
(1234,574,o),
(1310,574,cs),
(1386,574,o),
(1446,549,o),
(1489,506,cs),
(1531,463,o),
(1552,403,o),
(1552,330,cs),
(1552,178,o),
(1464,91,o),
(1308,91,cs)
);
}
);
width = 1754;
},
{
layerId = "8D116CAD-4DFA-4CD5-B105-D71FC4D96B49";
shapes = (
{
closed = 1;
nodes = (
(468,0,l),
(509,73,o),
(548,140,o),
(589,216,cs),
(629,292,o),
(673,366,o),
(724,458,cs),
(1002,954,ls),
(1055,1050,o),
(1099,1128,o),
(1142,1204,cs),
(1185,1280,o),
(1223,1349,o),
(1266,1426,c),
(1198,1426,l),
(1155,1349,o),
(1117,1280,o),
(1074,1204,cs),
(1031,1128,o),
(987,1050,o),
(934,954,cs),
(656,458,ls),
(605,366,o),
(561,292,o),
(521,216,cs),
(480,140,o),
(441,73,o),
(400,0,c)
);
},
{
closed = 1;
nodes = (
(536,756,o),
(621,791,o),
(685,851,cs),
(749,911,o),
(784,996,o),
(784,1100,cs),
(784,1200,o),
(749,1286,o),
(685,1350,cs),
(621,1414,o),
(535,1450,o),
(434,1450,cs),
(333,1450,o),
(245,1414,o),
(181,1350,cs),
(117,1286,o),
(80,1200,o),
(80,1100,cs),
(80,996,o),
(116,911,o),
(180,851,cs),
(244,791,o),
(331,756,o),
(432,756,cs)
);
},
{
closed = 1;
nodes = (
(343,818,o),
(272,844,o),
(221,892,cs),
(170,940,o),
(142,1011,o),
(142,1100,cs),
(142,1188,o),
(170,1258,o),
(221,1309,cs),
(272,1360,o),
(345,1388,o),
(434,1388,cs),
(526,1388,o),
(595,1360,o),
(646,1309,cs),
(697,1258,o),
(722,1188,o),
(722,1100,cs),
(722,919,o),
(617,818,o),
(432,818,cs)
);
},
{
closed = 1;
nodes = (
(1340,-18,o),
(1425,17,o),
(1489,77,cs),
(1553,137,o),
(1588,222,o),
(1588,326,cs),
(1588,426,o),
(1553,512,o),
(1489,576,cs),
(1425,640,o),
(1339,676,o),
(1238,676,cs),
(1137,676,o),
(1049,640,o),
(985,576,cs),
(921,512,o),
(884,426,o),
(884,326,cs),
(884,222,o),
(920,137,o),
(984,77,cs),
(1048,17,o),
(1135,-18,o),
(1236,-18,cs)
);
},
{
closed = 1;
nodes = (
(1147,44,o),
(1076,70,o),
(1025,118,cs),
(974,166,o),
(946,237,o),
(946,326,cs),
(946,414,o),
(974,484,o),
(1025,535,cs),
(1076,586,o),
(1149,614,o),
(1238,614,cs),
(1330,614,o),
(1399,586,o),
(1450,535,cs),
(1501,484,o),
(1526,414,o),
(1526,326,cs),
(1526,145,o),
(1421,44,o),
(1236,44,cs)
);
}
);
width = 1668;
}
);
unicode = 37;
}
{
glyphname = ampersand;
layers = (
{
layerId = "135E7D02-2C2C-473D-8440-7E1667D0FE7D";
shapes = (
{
closed = 1;
nodes = (
(1594,0,l),
(1449,168,o),
(1303,324,o),
(1158,492,cs),
(772,928,ls),
(740,964,o),
(716,993,o),
(700,1021,cs),
(684,1048,o),
(676,1075,o),
(676,1104,cs),
(676,1135,o),
(685,1157,o),
(701,1173,cs),
(716,1188,o),
(737,1196,o),
(760,1196,cs),
(784,1196,o),
(804,1187,o),
(817,1168,cs),
(830,1149,o),
(838,1127,o),
(838,1100,cs),
(838,1069,o),
(830,1038,o),
(811,1009,cs),
(792,980,o),
(765,953,o),
(730,930,c),
(890,752,l),
(950,784,o),
(1022,823,o),
(1082,883,cs),
(1142,943,o),
(1184,1017,o),
(1184,1122,cs),
(1184,1230,o),
(1142,1313,o),
(1062,1370,cs),
(982,1427,o),
(875,1458,o),
(738,1458,cs),
(605,1458,o),
(486,1428,o),
(398,1367,cs),
(310,1306,o),
(256,1213,o),
(256,1088,cs),
(256,1024,o),
(271,964,o),
(298,907,cs),
(325,850,o),
(364,796,o),
(412,740,cs),
(823,272,ls),
(903,180,o),
(982,92,o),
(1062,0,c)
);
},
{
closed = 1;
nodes = (
(593,-28,o),
(673,-12,o),
(741,19,cs),
(809,50,o),
(865,93,o),
(912,146,c),
(944,146,l),
(946,188,l),
(768,372,l),
(751,353,o),
(726,338,o),
(699,327,cs),
(672,316,o),
(643,310,o),
(612,310,cs),
(565,310,o),
(530,326,o),
(506,351,cs),
(482,375,o),
(470,409,o),
(470,446,cs),
(470,473,o),
(475,499,o),
(490,526,cs),
(505,553,o),
(525,579,o),
(556,602,c),
(374,824,l),
(282,783,o),
(198,731,o),
(138,655,cs),
(78,579,o),
(40,489,o),
(40,372,cs),
(40,255,o),
(79,158,o),
(156,86,cs),
(232,14,o),
(347,-28,o),
(500,-28,cs)
);
},
{
closed = 1;
nodes = (
(1224,330,l),
(1337,447,o),
(1443,555,o),
(1552,672,c),
(1204,898,l),
(1132,786,o),
(1062,679,o),
(990,566,c)
);
}
);
width = 1594;
},
{
layerId = "92C58FB0-5B53-4564-A5F2-AE63550C786A";
shapes = (
{
closed = 1;
nodes = (
(1478,0,l),
(1349,133,o),
(1225,262,o),
(1100,395,cs),
(666,848,ls),
(614,901,o),
(578,946,o),
(555,989,cs),
(531,1032,o),
(520,1071,o),
(520,1112,cs),
(520,1161,o),
(537,1203,o),
(565,1232,cs),
(593,1261,o),
(633,1278,o),
(680,1278,cs),
(727,1278,o),
(768,1261,o),
(797,1233,cs),
(826,1205,o),
(844,1166,o),
(844,1122,cs),
(844,1065,o),
(824,1019,o),
(785,980,cs),
(746,941,o),
(692,911,o),
(620,884,c),
(720,742,l),
(796,773,o),
(879,813,o),
(947,874,cs),
(1015,934,o),
(1062,1015,o),
(1062,1128,cs),
(1062,1232,o),
(1020,1313,o),
(948,1369,cs),
(876,1425,o),
(781,1454,o),
(668,1454,cs),
(560,1454,o),
(467,1425,o),
(395,1365,cs),
(323,1305,o),
(282,1223,o),
(282,1110,cs),
(282,1041,o),
(300,977,o),
(333,917,cs),
(366,857,o),
(412,798,o),
(472,738,c),
(922,272,ls),
(1010,183,o),
(1096,92,o),
(1184,0,c)
);
},
{
closed = 1;
nodes = (
(630,-22,o),
(709,-1,o),
(781,36,cs),
(853,73,o),
(914,128,o),
(974,196,c),
(1002,196,l),
(994,234,l),
(864,370,l),
(817,306,o),
(768,257,o),
(717,224,cs),
(666,191,o),
(614,174,o),
(562,174,cs),
(482,174,o),
(422,198,o),
(379,238,cs),
(336,278,o),
(314,335,o),
(314,400,cs),
(314,468,o),
(336,523,o),
(376,571,cs),
(416,619,o),
(473,659,o),
(542,690,c),
(440,836,l),
(348,796,o),
(262,743,o),
(194,667,cs),
(126,591,o),
(84,499,o),
(84,374,cs),
(84,265,o),
(120,166,o),
(196,94,cs),
(272,22,o),
(381,-22,o),
(530,-22,cs)
);
},
{
closed = 1;
nodes = (
(1130,352,l),
(1226,477,o),
(1316,593,o),
(1412,714,c),
(1214,842,l),
(1138,722,o),
(1067,611,o),
(990,490,c)
);
}
);
width = 1500;
},
{
layerId = "C18B794B-6E1F-49F6-B17C-E02DC1D0FE96";
shapes = (
{
closed = 1;
nodes = (
(1431,0,l),
(1312,120,o),
(1196,238,o),
(1077,359,cs),
(622,818,ls),
(562,878,o),
(520,927,o),
(492,976,cs),
(464,1025,o),
(451,1070,o),
(451,1120,cs),
(451,1179,o),
(470,1231,o),
(504,1268,cs),
(538,1306,o),
(588,1328,o),
(648,1328,cs),
(704,1328,o),
(751,1308,o),
(786,1274,cs),
(820,1241,o),
(840,1193,o),
(840,1135,cs),
(840,1061,o),
(813,1006,o),
(766,961,cs),
(719,916,o),
(654,883,o),
(578,853,c),
(650,754,l),
(728,785,o),
(810,826,o),
(876,886,cs),
(943,946,o),
(988,1027,o),
(988,1138,cs),
(988,1237,o),
(950,1315,o),
(887,1369,cs),
(824,1424,o),
(739,1452,o),
(641,1452,cs),
(544,1452,o),
(459,1422,o),
(394,1364,cs),
(329,1305,o),
(292,1224,o),
(292,1119,cs),
(292,1047,o),
(311,983,o),
(347,922,cs),
(383,860,o),
(432,802,o),
(495,738,cs),
(959,272,l),
(1051,182,o),
(1140,90,o),
(1230,0,c)
);
},
{
closed = 1;
nodes = (
(642,-20,o),
(723,2,o),
(796,43,cs),
(870,85,o),
(931,145,o),
(993,220,c),
(1019,220,l),
(1012,252,l),
(917,342,l),
(862,264,o),
(807,208,o),
(748,170,cs),
(689,133,o),
(628,116,o),
(558,116,cs),
(461,116,o),
(386,143,o),
(334,190,cs),
(282,237,o),
(255,304,o),
(255,383,cs),
(255,465,o),
(283,532,o),
(334,587,cs),
(385,643,o),
(454,688,o),
(535,725,c),
(465,829,l),
(375,789,o),
(286,737,o),
(216,661,cs),
(146,585,o),
(100,494,o),
(100,369,cs),
(100,262,o),
(136,165,o),
(210,94,cs),
(285,24,o),
(393,-20,o),
(540,-20,cs)
);
},
{
closed = 1;
nodes = (
(1097,327,l),
(1187,454,o),
(1271,571,o),
(1360,696,c),
(1227,779,l),
(1149,657,o),
(1078,545,o),
(998,419,c)
);
}
);
width = 1464;
},
{
layerId = "94197535-374B-4926-914D-6CE8AC50E1C9";
shapes = (
{
closed = 1;
nodes = (
(1374,0,l),
(1266,104,o),
(1161,208,o),
(1048,316,cs),
(568,782,ls),
(499,850,o),
(448,904,o),
(415,960,cs),
(382,1016,o),
(366,1069,o),
(366,1130,cs),
(366,1202,o),
(389,1266,o),
(430,1313,cs),
(471,1360,o),
(532,1388,o),
(608,1388,cs),
(676,1388,o),
(731,1365,o),
(772,1325,c),
(812,1284,o),
(836,1226,o),
(836,1150,cs),
(836,1057,o),
(799,990,o),
(742,938,cs),
(685,886,o),
(607,849,o),
(526,814,c),
(564,768,l),
(644,800,o),
(726,841,o),
(790,901,cs),
(854,961,o),
(898,1041,o),
(898,1150,cs),
(898,1243,o),
(865,1318,o),
(813,1370,cs),
(760,1422,o),
(688,1450,o),
(608,1450,cs),
(524,1450,o),
(449,1418,o),
(393,1362,cs),
(337,1306,o),
(304,1226,o),
(304,1130,cs),
(304,1054,o),
(325,991,o),
(364,927,cs),
(403,863,o),
(456,806,o),
(524,738,cs),
(1004,272,ls),
(1100,180,o),
(1194,88,o),
(1286,0,c)
);
},
{
closed = 1;
nodes = (
(656,-18,o),
(739,5,o),
(815,52,cs),
(891,99,o),
(952,165,o),
(1016,250,c),
(1040,250,l),
(1034,274,l),
(982,308,l),
(917,212,o),
(854,148,o),
(786,105,cs),
(718,62,o),
(644,44,o),
(552,44,cs),
(435,44,o),
(343,75,o),
(279,131,cs),
(215,187,o),
(182,265,o),
(182,362,cs),
(182,462,o),
(219,542,o),
(283,607,cs),
(347,672,o),
(430,724,o),
(526,768,c),
(496,820,l),
(408,780,o),
(315,729,o),
(243,653,cs),
(171,577,o),
(120,487,o),
(120,362,cs),
(120,258,o),
(156,164,o),
(228,95,cs),
(300,26,o),
(407,-18,o),
(552,-18,cs)
);
},
{
closed = 1;
nodes = (
(1056,296,l),
(1140,425,o),
(1215,545,o),
(1296,674,c),
(1242,702,l),
(1162,577,o),
(1092,464,o),
(1008,332,c)
);
}
);
width = 1420;
}
);
unicode = 38;
}
{
glyphname = quotesingle;
layers = (
{
layerId = "DBFEB7CD-EA6A-4398-9607-E41666997EF2";
shapes = (
{
closed = 1;
nodes = (
(404,720,l),
(420,983,o),
(435,1233,o),
(454,1490,c),
(36,1480,l),
(55,1225,o),
(70,977,o),
(86,718,c)
);
}
);
width = 504;
},
{
layerId = "38EDA6ED-2D3B-4EB9-8093-529BF0DC7182";
shapes = (
{
closed = 1;
nodes = (
(284,836,l),
(291,1059,o),
(305,1272,o),
(320,1489,c),
(74,1483,l),
(89,1267,o),
(103,1055,o),
(110,834,c)
);
}
);
width = 429;
},
{
layerId = "5813D18E-CE46-47D4-BE44-DF651A6D3020";
shapes = (
{
closed = 1;
nodes = (
(182,934,l),
(182,1122,o),
(194,1304,o),
(206,1488,c),
(106,1486,l),
(118,1302,o),
(130,1123,o),
(130,932,c)
);
}
);
width = 366;
}
);
leftKerningGroup = quotedbl2;
rightKerningGroup = quotedbl;
unicode = 39;
}
{
glyphname = parenleft;
layers = (
{
layerId = "DBFEB7CD-EA6A-4398-9607-E41666997EF2";
shapes = (
{
closed = 1;
nodes = (
(852,-166,l),
(760,-82,o),
(676,20,o),
(612,153,cs),
(548,286,o),
(508,446,o),
(508,646,cs),
(508,846,o),
(548,1006,o),
(612,1139,cs),
(676,1272,o),
(760,1374,o),
(852,1458,c),
(588,1582,l),
(432,1501,o),
(301,1377,o),
(208,1218,cs),
(115,1059,o),
(60,867,o),
(60,646,cs),
(60,426,o),
(115,235,o),
(208,75,cs),
(301,-85,o),
(432,-209,o),
(588,-290,c)
);
}
);
width = 882;
},
{
layerId = "38EDA6ED-2D3B-4EB9-8093-529BF0DC7182";
shapes = (
{
closed = 1;
nodes = (
(730,-181,l),
(629,-97,o),
(533,7,o),
(461,144,cs),
(389,280,o),
(343,442,o),
(343,647,cs),
(343,852,o),
(389,1015,o),
(461,1151,cs),
(533,1287,o),
(629,1391,o),
(730,1475,c),
(576,1548,l),
(439,1456,o),
(321,1339,o),
(237,1190,cs),
(153,1041,o),
(103,863,o),
(103,647,cs),
(103,432,o),
(153,255,o),
(237,106,cs),
(321,-43,o),
(439,-162,o),
(576,-254,c)
);
}
);
width = 799;
},
{
layerId = "5813D18E-CE46-47D4-BE44-DF651A6D3020";
shapes = (
{
closed = 1;
nodes = (
(628,-194,l),
(516,-109,o),
(412,-1,o),
(333,136,cs),
(254,273,o),
(204,439,o),
(204,648,cs),
(204,859,o),
(254,1025,o),
(333,1162,cs),
(412,1299,o),
(516,1405,o),
(628,1490,c),
(566,1520,l),
(445,1420,o),
(338,1307,o),
(262,1166,cs),
(186,1025,o),
(140,859,o),
(140,648,cs),
(140,439,o),
(186,272,o),
(262,131,cs),
(338,-10,o),
(445,-124,o),
(566,-224,c)
);
}
);
width = 728;
}
);
unicode = 40;
}
{
glyphname = parenright;
layers = (
{
layerId = "53B253BD-EAB0-49E0-8B4C-FD971ECE0D4A";
shapes = (
{
closed = 1;
nodes = (
(294,-290,l),
(451,-209,o),
(581,-86,o),
(674,75,cs),
(767,235,o),
(822,423,o),
(822,646,cs),
(822,867,o),
(767,1056,o),
(674,1217,cs),
(581,1378,o),
(451,1501,o),
(294,1582,c),
(30,1458,l),
(122,1374,o),
(207,1272,o),
(271,1139,cs),
(335,1006,o),
(374,847,o),
(374,646,cs),
(374,445,o),
(335,286,o),
(271,153,cs),
(207,20,o),
(122,-82,o),
(30,-166,c)
);
}
);
width = 882;
},
{
layerId = "3B65AEAE-576E-4C08-BDA7-4B24E1278BB4";
shapes = (
{
closed = 1;
nodes = (
(222,-254,l),
(359,-162,o),
(477,-44,o),
(561,105,cs),
(645,254,o),
(695,431,o),
(695,647,cs),
(695,863,o),
(645,1040,o),
(561,1189,cs),
(477,1338,o),
(359,1456,o),
(222,1548,c),
(68,1475,l),
(169,1391,o),
(266,1288,o),
(338,1151,cs),
(410,1014,o),
(455,854,o),
(455,647,cs),
(455,440,o),
(410,280,o),
(338,143,cs),
(266,6,o),
(169,-97,o),
(68,-181,c)
);
}
);
width = 799;
},
{
layerId = "359FCFA0-5099-431D-AD00-ECD767CAC005";
shapes = (
{
closed = 1;
nodes = (
(195,-241,l),
(327,-145,o),
(438,-29,o),
(519,117,cs),
(599,262,o),
(647,433,o),
(647,647,cs),
(647,861,o),
(599,1033,o),
(519,1178,cs),
(438,1324,o),
(327,1440,o),
(195,1535,c),
(82,1482,l),
(189,1397,o),
(289,1293,o),
(364,1156,cs),
(440,1019,o),
(486,856,o),
(486,647,cs),
(486,438,o),
(440,276,o),
(364,139,cs),
(289,2,o),
(189,-102,o),
(82,-187,c)
);
}
);
width = 767;
},
{
layerId = "3AA18437-0CC1-4501-8D0B-B0921B064785";
shapes = (
{
closed = 1;
nodes = (
(162,-224,l),
(287,-124,o),
(391,-10,o),
(467,131,cs),
(543,272,o),
(588,436,o),
(588,648,cs),
(588,859,o),
(543,1024,o),
(467,1165,cs),
(391,1306,o),
(287,1420,o),
(162,1520,c),
(100,1490,l),
(213,1405,o),
(316,1298,o),
(396,1161,cs),
(476,1024,o),
(524,859,o),
(524,648,cs),
(524,436,o),
(476,272,o),
(396,135,cs),
(316,-2,o),
(213,-109,o),
(100,-194,c)
);
}
);
width = 728;
}
);
unicode = 41;
}
{
glyphname = asterisk;
layers = (
{
layerId = "01881FF6-28F4-4241-92CC-0A260EF73B3D";
shapes = (
{
closed = 1;
nodes = (
(986,914,l),
(841,975,o),
(697,1037,o),
(552,1098,c),
(423,1194,o),
(305,1286,o),
(176,1382,c),
(40,1146,l),
(185,1085,o),
(329,1023,o),
(474,962,c),
(603,866,o),
(721,774,o),
(850,678,c)
);
},
{
closed = 1;
nodes = (
(176,678,l),
(305,774,o),
(423,866,o),
(552,962,c),
(697,1023,o),
(841,1085,o),
(986,1146,c),
(850,1382,l),
(721,1286,o),
(603,1194,o),
(474,1098,c),
(329,1037,o),
(185,975,o),
(40,914,c)
);
},
{
closed = 1;
nodes = (
(650,562,l),
(631,719,o),
(611,873,o),
(592,1030,c),
(612,1187,o),
(630,1341,o),
(650,1498,c),
(376,1498,l),
(396,1341,o),
(415,1187,o),
(434,1030,c),
(415,873,o),
(395,719,o),
(376,562,c)
);
}
);
width = 1026;
},
{
layerId = "A55F0C2B-6E8D-4FB2-8CDB-992FDB8C8E10";
shapes = (
{
closed = 1;
nodes = (
(915,866,l),
(778,938,o),
(645,1007,o),
(508,1076,c),
(379,1165,o),
(261,1252,o),
(132,1340,c),
(51,1202,l),
(188,1130,o),
(322,1063,o),
(459,991,c),
(584,903,o),
(705,817,o),
(834,729,c)
);
},
{
closed = 1;
nodes = (
(132,729,l),
(261,817,o),
(383,904,o),
(508,992,c),
(645,1061,o),
(778,1130,o),
(915,1202,c),
(834,1340,l),
(705,1252,o),
(584,1165,o),
(459,1077,c),
(322,1005,o),
(188,938,o),
(51,866,c)
);
},
{
closed = 1;
nodes = (
(563,576,l),
(552,729,o),
(543,882,o),
(532,1035,c),
(543,1188,o),
(552,1340,o),
(563,1493,c),
(403,1493,l),
(414,1340,o),
(423,1188,o),
(434,1035,c),
(423,882,o),
(414,729,o),
(403,576,c)
);
}
);
width = 966;
},
{
layerId = "18A54BDD-310B-488C-A032-20C0CCB5659F";
shapes = (
{
closed = 1;
nodes = (
(888,848,l),
(755,922,o),
(625,996,o),
(492,1068,c),
(363,1155,o),
(244,1238,o),
(115,1324,c),
(55,1224,l),
(188,1148,o),
(320,1078,o),
(453,1002,c),
(580,916,o),
(700,835,o),
(829,748,c)
);
},
{
closed = 1;
nodes = (
(115,748,l),
(244,835,o),
(365,918,o),
(492,1004,c),
(625,1076,o),
(755,1148,o),
(888,1224,c),
(829,1324,l),
(700,1238,o),
(580,1156,o),
(453,1069,c),
(320,994,o),
(188,924,o),
(55,848,c)
);
},
{
closed = 1;
nodes = (
(530,581,l),
(523,734,o),
(517,884,o),
(510,1037,c),
(517,1188,o),
(523,1338,o),
(530,1491,c),
(413,1491,l),
(421,1338,o),
(427,1188,o),
(434,1037,c),
(427,884,o),
(421,734,o),
(413,581,c)
);
}
);
width = 944;
},
{
layerId = "42B9E918-1EE0-49C2-B7C8-A26B802712C7";
shapes = (
{
closed = 1;
nodes = (
(856,826,l),
(727,903,o),
(601,982,o),
(472,1058,c),
(343,1142,o),
(223,1220,o),
(94,1304,c),
(60,1250,l),
(189,1170,o),
(317,1096,o),
(446,1016,c),
(575,932,o),
(693,856,o),
(822,772,c)
);
},
{
closed = 1;
nodes = (
(94,772,l),
(223,856,o),
(343,934,o),
(472,1018,c),
(601,1094,o),
(727,1170,o),
(856,1250,c),
(822,1304,l),
(693,1220,o),
(575,1144,o),
(446,1060,c),
(317,980,o),
(189,906,o),
(60,826,c)
);
},
{
closed = 1;
nodes = (
(490,588,l),
(487,741,o),
(485,887,o),
(482,1040,c),
(485,1189,o),
(487,1335,o),
(490,1488,c),
(426,1488,l),
(429,1335,o),
(431,1189,o),
(434,1040,c),
(431,887,o),
(429,741,o),
(426,588,c)
);
}
);
width = 916;
}
);
leftKerningGroup = degree2;
rightKerningGroup = degree;
unicode = 42;
}
{
glyphname = plus;
layers = (
{
layerId = "3741C398-C536-4E04-9B31-DF775DED3426";
shapes = (
{
closed = 1;
nodes = (
(806,88,l),
(806,504,l),
(806,732,l),
(806,1148,l),
(414,1148,l),
(414,732,l),
(414,504,l),
(414,88,l)
);
},
{
closed = 1;
nodes = (
(80,428,l),
(496,428,l),
(724,428,l),
(1140,428,l),
(1140,808,l),
(724,808,l),
(496,808,l),
(80,808,l)
);
}
);
width = 1220;
},
{
layerId = "32AC1926-81FC-462E-AFF9-9B08428E2569";
shapes = (
{
closed = 1;
nodes = (
(700,111,l),
(700,475,l),
(700,732,l),
(700,1096,l),
(488,1096,l),
(488,732,l),
(488,475,l),
(488,111,l)
);
},
{
closed = 1;
nodes = (
(113,500,l),
(477,500,l),
(711,500,l),
(1075,500,l),
(1075,707,l),
(711,707,l),
(477,707,l),
(113,707,l)
);
}
);
width = 1187;
},
{
layerId = "608C4FA3-96E7-4DF2-B0AE-105347578AB3";
shapes = (
{
closed = 1;
nodes = (
(664,119,l),
(664,465,l),
(664,731,l),
(664,1078,l),
(513,1078,l),
(513,731,l),
(513,465,l),
(513,119,l)
);
},
{
closed = 1;
nodes = (
(124,524,l),
(470,524,l),
(707,524,l),
(1053,524,l),
(1053,672,l),
(707,672,l),
(470,672,l),
(124,672,l)
);
}
);
width = 1176;
},
{
layerId = "5E854513-9682-4163-9876-812542B08F08";
shapes = (
{
closed = 1;
nodes = (
(610,130,l),
(610,450,l),
(610,730,l),
(610,1050,l),
(550,1050,l),
(550,730,l),
(550,450,l),
(550,130,l)
);
},
{
closed = 1;
nodes = (
(140,560,l),
(460,560,l),
(700,560,l),
(1020,560,l),
(1020,620,l),
(700,620,l),
(460,620,l),
(140,620,l)
);
}
);
width = 1160;
}
);
leftKerningGroup = plus2;
rightKerningGroup = plus;
unicode = 43;
}
{
glyphname = comma;
layers = (
{
layerId = "01881FF6-28F4-4241-92CC-0A260EF73B3D";
shapes = (
{
closed = 1;
nodes = (
(188,-310,l),
(256,-267,o),
(331,-202,o),
(391,-118,cs),
(451,-34,o),
(494,65,o),
(494,174,cs),
(494,243,o),
(480,304,o),
(445,351,cs),
(410,398,o),
(358,431,o),
(282,440,c),
(92,422,l),
(92,104,ls),
(92,20,o),
(85,-55,o),
(66,-124,cs),
(47,-193,o),
(23,-257,o),
(-12,-314,c)
);
}
);
width = 544;
},
{
layerId = "A55F0C2B-6E8D-4FB2-8CDB-992FDB8C8E10";
shapes = (
{
closed = 1;
nodes = (
(162,-311,l),
(218,-267,o),
(275,-201,o),
(318,-125,cs),
(361,-49,o),
(390,38,o),
(390,127,cs),
(390,172,o),
(380,212,o),
(359,241,cs),
(338,270,o),
(305,290,o),
(258,295,c),
(147,285,l),
(147,62,ls),
(147,-14,o),
(140,-79,o),
(124,-140,c),
(107,-200,o),
(82,-258,o),
(43,-314,c)
);
}
);
width = 481;
},
{
layerId = "18A54BDD-310B-488C-A032-20C0CCB5659F";
shapes = (
{
closed = 1;
nodes = (
(152,-311,l),
(204,-267,o),
(254,-202,o),
(291,-128,cs),
(327,-54,o),
(350,28,o),
(350,109,cs),
(350,145,o),
(343,176,o),
(327,199,c),
(310,221,o),
(285,236,o),
(249,240,c),
(168,233,l),
(168,46,ls),
(168,-27,o),
(162,-87,o),
(146,-146,cs),
(130,-204,o),
(104,-258,o),
(64,-314,c)
);
}
);
width = 457;
},
{
layerId = "42B9E918-1EE0-49C2-B7C8-A26B802712C7";
shapes = (
{
closed = 1;
nodes = (
(140,-312,l),
(187,-267,o),
(228,-204,o),
(257,-132,cs),
(285,-60,o),
(302,16,o),
(302,88,cs),
(302,112,o),
(298,132,o),
(287,147,cs),
(276,162,o),
(261,171,o),
(238,172,c),
(194,170,l),
(194,26,ls),
(194,-42,o),
(189,-97,o),
(173,-153,cs),
(157,-209,o),
(131,-258,o),
(90,-314,c)
);
}
);
width = 428;
}
);
leftKerningGroup = comma2;
rightKerningGroup = comma;
unicode = 44;
}
{
glyphname = hyphen;
layers = (
{
layerId = "B35F0E5C-A0C7-48D4-9FBC-8D88C206E4CA";
shapes = (
{
closed = 1;
nodes = (
(80,418,l),
(430,418,l),
(780,418,l),
(780,798,l),
(430,798,l),
(80,798,l)
);
}
);
width = 860;
},
{
layerId = "EBB6BD1C-9525-4B95-94A2-FACE28C4DF76";
shapes = (
{
closed = 1;
nodes = (
(113,495,l),
(425,495,l),
(737,495,l),
(737,702,l),
(425,702,l),
(113,702,l)
);
}
);
width = 849;
},
{
layerId = "B65D3DEB-C1FE-4E99-ABBB-AA13A5F125F2";
shapes = (
{
closed = 1;
nodes = (
(140,560,l),
(420,560,l),
(700,560,l),
(700,620,l),
(420,620,l),
(140,620,l)
);
}
);
width = 840;
}
);
leftKerningGroup = hyphen2;
rightKerningGroup = hyphen;
unicode = 45;
}
{
glyphname = period;
layers = (
{
layerId = "3741C398-C536-4E04-9B31-DF775DED3426";
shapes = (
{
closed = 1;
nodes = (
(371,-32,o),
(432,-6,o),
(475,38,cs),
(518,81,o),
(540,141,o),
(540,206,cs),
(540,274,o),
(519,329,o),
(476,372,cs),
(433,415,o),
(372,438,o),
(296,438,cs),
(219,438,o),
(159,415,o),
(116,372,cs),
(73,329,o),
(50,274,o),
(50,206,cs),
(50,141,o),
(73,81,o),
(116,38,cs),
(159,-6,o),
(218,-32,o),
(294,-32,cs)
);
}
);
width = 590;
},
{
layerId = "32AC1926-81FC-462E-AFF9-9B08428E2569";
shapes = (
{
closed = 1;
nodes = (
(302,-24,o),
(341,-7,o),
(369,21,cs),
(397,49,o),
(412,89,o),
(412,134,cs),
(412,181,o),
(397,219,o),
(369,246,cs),
(341,273,o),
(302,289,o),
(251,289,cs),
(202,289,o),
(161,273,o),
(133,246,cs),
(105,219,o),
(90,181,o),
(90,134,cs),
(90,89,o),
(105,49,o),
(133,21,cs),
(161,-7,o),
(202,-24,o),
(251,-24,cs)
);
}
);
width = 502;
},
{
layerId = "608C4FA3-96E7-4DF2-B0AE-105347578AB3";
shapes = (
{
closed = 1;
nodes = (
(278,-22,o),
(310,-8,o),
(333,15,cs),
(357,38,o),
(369,71,o),
(369,109,cs),
(369,149,o),
(357,181,o),
(333,203,cs),
(310,225,o),
(278,238,o),
(236,238,cs),
(196,238,o),
(163,225,o),
(139,203,cs),
(116,181,o),
(104,149,o),
(104,109,cs),
(104,71,o),
(116,38,o),
(139,15,cs),
(163,-8,o),
(196,-22,o),
(236,-22,cs)
);
}
);
width = 472;
},
{
layerId = "5E854513-9682-4163-9876-812542B08F08";
shapes = (
{
closed = 1;
nodes = (
(242,-18,o),
(264,-10,o),
(280,6,cs),
(296,22,o),
(304,44,o),
(304,72,cs),
(304,101,o),
(296,123,o),
(280,139,cs),
(264,154,o),
(242,162,o),
(214,162,cs),
(187,162,o),
(165,154,o),
(149,139,cs),
(133,123,o),
(124,101,o),
(124,72,cs),
(124,44,o),
(133,22,o),
(149,6,cs),
(165,-10,o),
(187,-18,o),
(214,-18,cs)
);
}
);
width = 428;
}
);
leftKerningGroup = comma2;
rightKerningGroup = comma;
unicode = 46;
}
{
glyphname = slash;
layers = (
{
layerId = "3741C398-C536-4E04-9B31-DF775DED3426";
shapes = (
{
closed = 1;
nodes = (
(426,0,l),
(453,76,o),
(475,143,o),
(502,216,cs),
(529,288,o),
(554,364,o),
(586,456,cs),
(758,947,ls),
(793,1044,o),
(820,1126,o),
(847,1202,cs),
(874,1278,o),
(899,1349,o),
(926,1426,c),
(502,1426,l),
(475,1349,o),
(451,1278,o),
(424,1202,cs),
(397,1126,o),
(369,1048,o),
(336,952,cs),
(162,456,ls),
(130,364,o),
(105,288,o),
(78,216,cs),
(51,143,o),
(29,76,o),
(2,0,c)
);
}
);
width = 928;
},
{
layerId = "32AC1926-81FC-462E-AFF9-9B08428E2569";
shapes = (
{
closed = 1;
nodes = (
(274,0,l),
(305,73,o),
(331,142,o),
(362,215,cs),
(393,288,o),
(423,364,o),
(460,456,cs),
(660,948,ls),
(700,1044,o),
(733,1126,o),
(764,1202,cs),
(795,1278,o),
(824,1349,o),
(856,1426,c),
(626,1426,l),
(594,1349,o),
(566,1278,o),
(535,1202,cs),
(503,1126,o),
(471,1048,o),
(432,952,cs),
(230,456,ls),
(193,364,o),
(161,288,o),
(132,216,cs),
(103,143,o),
(75,76,o),
(44,0,c)
);
}
);
width = 900;
},
{
layerId = "608C4FA3-96E7-4DF2-B0AE-105347578AB3";
shapes = (
{
closed = 1;
nodes = (
(223,0,l),
(255,73,o),
(283,142,o),
(315,215,cs),
(347,288,o),
(379,364,o),
(418,456,cs),
(627,948,ls),
(669,1044,o),
(703,1126,o),
(736,1202,cs),
(769,1278,o),
(799,1349,o),
(832,1426,c),
(668,1426,l),
(634,1349,o),
(605,1278,o),
(572,1202,cs),
(539,1126,o),
(505,1048,o),
(465,952,cs),
(253,456,ls),
(215,364,o),
(181,288,o),
(151,216,cs),
(120,143,o),
(91,76,o),
(58,0,c)
);
}
);
width = 890;
},
{
layerId = "5E854513-9682-4163-9876-812542B08F08";
shapes = (
{
closed = 1;
nodes = (
(146,0,l),
(179,73,o),
(211,142,o),
(244,215,cs),
(277,288,o),
(313,364,o),
(354,456,cs),
(578,948,ls),
(622,1044,o),
(659,1126,o),
(694,1202,cs),
(729,1278,o),
(761,1349,o),
(796,1426,c),
(730,1426,l),
(695,1349,o),
(663,1278,o),
(628,1202,cs),
(593,1126,o),
(557,1048,o),
(514,952,cs),
(288,456,ls),
(247,364,o),
(211,288,o),
(179,216,cs),
(146,143,o),
(115,76,o),
(80,0,c)
);
}
);
width = 876;
}
);
unicode = 47;
}
{
glyphname = zero;
layers = (
{
layerId = "33233A5A-37BF-4318-8FBD-C207E8A0D0D5";
shapes = (
{
closed = 1;
nodes = (
(927,-31,o),
(1084,43,o),
(1188,175,cs),
(1292,307,o),
(1339,490,o),
(1339,713,cs),
(1339,929,o),
(1294,1115,o),
(1190,1248,cs),
(1086,1380,o),
(926,1458,o),
(697,1458,cs),
(468,1458,o),
(309,1380,o),
(208,1247,cs),
(107,1114,o),
(62,928,o),
(62,711,cs),
(62,507,o),
(104,324,o),
(205,188,cs),
(306,53,o),
(468,-31,o),
(707,-31,cs)
);
},
{
closed = 1;
nodes = (
(646,356,o),
(607,392,o),
(584,456,cs),
(561,520,o),
(552,608,o),
(552,713,cs),
(552,822,o),
(562,912,o),
(586,975,cs),
(610,1038,o),
(647,1070,o),
(703,1070,cs),
(755,1070,o),
(793,1037,o),
(817,974,cs),
(841,911,o),
(852,821,o),
(852,713,cs),
(852,608,o),
(843,520,o),
(820,456,cs),
(796,392,o),
(759,356,o),
(703,356,cs)
);
}
);
width = 1401;
},
{
layerId = "DDE9F572-ABA5-4A0A-A4FB-BFEA0CC6579C";
shapes = (
{
closed = 1;
nodes = (
(881,-24,o),
(1024,49,o),
(1121,178,cs),
(1217,307,o),
(1266,490,o),
(1266,715,cs),
(1266,935,o),
(1219,1116,o),
(1123,1248,cs),
(1027,1379,o),
(882,1454,o),
(683,1454,cs),
(486,1454,o),
(341,1380,o),
(245,1249,cs),
(149,1118,o),
(102,935,o),
(102,714,cs),
(102,503,o),
(145,321,o),
(241,188,cs),
(336,56,o),
(482,-24,o),
(689,-24,cs)
);
},
{
closed = 1;
nodes = (
(568,190,o),
(488,245,o),
(437,338,cs),
(385,431,o),
(363,562,o),
(363,715,cs),
(363,868,o),
(387,1000,o),
(439,1093,cs),
(491,1185,o),
(572,1239,o),
(685,1239,cs),
(797,1239,o),
(876,1189,o),
(929,1097,cs),
(981,1005,o),
(1006,876,o),
(1006,715,cs),
(1006,562,o),
(984,432,o),
(933,339,cs),
(881,246,o),
(802,190,o),
(685,190,cs)
);
}
);
width = 1368;
},
{
layerId = "5D7E25E3-B3FF-498B-986D-FDCC95DA2522";
shapes = (
{
closed = 1;
nodes = (
(843,-18,o),
(973,50,o),
(1065,179,cs),
(1157,307,o),
(1205,489,o),
(1205,717,cs),
(1205,940,o),
(1159,1121,o),
(1068,1250,cs),
(979,1378,o),
(844,1450,o),
(671,1450,cs),
(500,1450,o),
(368,1380,o),
(276,1251,cs),
(184,1122,o),
(135,941,o),
(135,717,cs),
(135,500,o),
(179,319,o),
(270,188,cs),
(361,59,o),
(494,-18,o),
(675,-18,cs)
);
},
{
closed = 1;
nodes = (
(503,49,o),
(388,117,o),
(312,237,cs),
(236,357,o),
(202,522,o),
(202,717,cs),
(202,910,o),
(238,1074,o),
(314,1195,cs),
(390,1315,o),
(506,1383,o),
(671,1383,cs),
(832,1383,o),
(947,1320,o),
(1024,1203,cs),
(1101,1086,o),
(1138,921,o),
(1138,717,cs),
(1138,525,o),
(1106,360,o),
(1030,240,cs),
(954,119,o),
(839,49,o),
(671,49,cs)
);
}
);
width = 1341;
}
);
leftKerningGroup = six2;
rightKerningGroup = six;
unicode = 48;
}
{
glyphname = one;
layers = (
{
layerId = "066FA146-1B0F-4CB2-BC80-6E1AAE3525A6";
shapes = (
{
closed = 1;
nodes = (
(128,806,l),
(297,878,o),
(453,951,o),
(622,1023,c),
(641,1426,l),
(432,1334,o),
(229,1258,o),
(21,1166,c)
);
},
{
closed = 1;
nodes = (
(868,0,l),
(868,440,l),
(868,928,l),
(868,1426,l),
(641,1426,l),
(393,1234,l),
(393,827,l),
(393,440,l),
(393,0,l)
);
}
);
width = 992;
},
{
layerId = "FC81129E-CBCD-4201-8026-CD58C840939D";
shapes = (
{
closed = 1;
nodes = (
(114,961,l),
(275,1045,o),
(425,1123,o),
(586,1204,c),
(595,1426,l),
(411,1334,o),
(238,1252,o),
(54,1160,c)
);
},
{
closed = 1;
nodes = (
(717,0,l),
(717,451,l),
(717,930,l),
(717,1426,l),
(595,1426,l),
(465,1319,l),
(465,883,l),
(465,451,l),
(465,0,l)
);
}
);
width = 915;
},
{
layerId = "40CDE73F-57A4-4695-A0C8-7244E9D52202";
shapes = (
{
closed = 1;
nodes = (
(102,1094,l),
(255,1183,o),
(404,1270,o),
(557,1359,c),
(557,1426,l),
(396,1334,o),
(244,1249,o),
(83,1157,c)
);
},
{
closed = 1;
nodes = (
(590,0,l),
(590,461,l),
(590,932,l),
(590,1426,l),
(557,1426,l),
(527,1392,l),
(527,932,l),
(527,461,l),
(527,0,l)
);
}
);
width = 851;
}
);
leftKerningGroup = one;
unicode = 49;
}
{
glyphname = two;
layers = (
{
layerId = "3741C398-C536-4E04-9B31-DF775DED3426";
shapes = (
{
closed = 1;
nodes = (
(1137,0,l),
(1137,401,l),
(771,401,l),
(548,401,l),
(601,312,l),
(777,434,ls),
(902,522,o),
(991,614,o),
(1048,710,cs),
(1105,806,o),
(1131,905,o),
(1131,1009,cs),
(1131,1150,o),
(1087,1263,o),
(995,1340,cs),
(903,1417,o),
(774,1458,o),
(597,1458,cs),
(496,1458,o),
(398,1446,o),
(306,1427,cs),
(214,1408,o),
(133,1383,o),
(68,1356,c),
(105,911,l),
(165,951,o),
(229,991,o),
(297,1020,cs),
(365,1048,o),
(430,1066,o),
(494,1066,cs),
(591,1066,o),
(641,1026,o),
(641,942,cs),
(641,869,o),
(606,796,o),
(542,720,cs),
(478,644,o),
(386,563,o),
(273,471,c),
(205,418,o),
(144,368,o),
(76,312,c),
(76,0,l)
);
}
);
width = 1209;
},
{
layerId = "32AC1926-81FC-462E-AFF9-9B08428E2569";
shapes = (
{
closed = 1;
nodes = (
(1067,0,l),
(1067,218,l),
(621,218,l),
(348,218,l),
(382,168,l),
(599,346,ls),
(748,467,o),
(858,583,o),
(934,696,cs),
(1010,809,o),
(1045,922,o),
(1045,1035,cs),
(1045,1164,o),
(1003,1269,o),
(923,1342,cs),
(843,1414,o),
(728,1454,o),
(575,1454,cs),
(486,1454,o),
(395,1442,o),
(311,1419,cs),
(227,1396,o),
(152,1367,o),
(88,1335,c),
(112,1090,l),
(180,1135,o),
(249,1172,o),
(321,1197,cs),
(393,1222,o),
(459,1237,o),
(527,1237,cs),
(702,1237,o),
(785,1161,o),
(785,1004,cs),
(785,904,o),
(742,809,o),
(665,708,cs),
(588,607,o),
(476,501,o),
(335,380,cs),
(255,311,o),
(175,242,o),
(95,173,c),
(95,0,l)
);
}
);
width = 1166;
},
{
layerId = "608C4FA3-96E7-4DF2-B0AE-105347578AB3";
shapes = (
{
closed = 1;
nodes = (
(1043,0,l),
(1043,156,l),
(569,156,l),
(280,156,l),
(307,119,l),
(538,316,ls),
(696,450,o),
(814,572,o),
(895,692,cs),
(976,811,o),
(1015,927,o),
(1015,1045,cs),
(1015,1170,o),
(975,1272,o),
(899,1343,cs),
(822,1414,o),
(712,1452,o),
(567,1452,cs),
(481,1452,o),
(394,1440,o),
(313,1416,cs),
(231,1393,o),
(157,1362,o),
(94,1328,c),
(114,1151,l),
(185,1198,o),
(255,1234,o),
(329,1259,cs),
(403,1283,o),
(470,1295,o),
(538,1295,cs),
(739,1295,o),
(834,1208,o),
(834,1025,cs),
(834,917,o),
(789,815,o),
(707,704,cs),
(625,594,o),
(508,479,o),
(356,349,cs),
(271,275,o),
(186,201,o),
(101,126,c),
(101,0,l)
);
}
);
width = 1152;
},
{
layerId = "5E854513-9682-4163-9876-812542B08F08";
shapes = (
{
closed = 1;
nodes = (
(1007,0,l),
(1007,63,l),
(492,63,l),
(177,63,l),
(194,46,l),
(446,271,ls),
(618,424,o),
(747,556,o),
(836,685,cs),
(924,814,o),
(971,934,o),
(971,1059,cs),
(971,1180,o),
(934,1277,o),
(862,1345,cs),
(790,1413,o),
(687,1450,o),
(554,1450,cs),
(474,1450,o),
(392,1436,o),
(315,1412,cs),
(238,1388,o),
(164,1354,o),
(104,1317,c),
(117,1243,l),
(193,1292,o),
(265,1327,o),
(341,1351,cs),
(417,1374,o),
(486,1383,o),
(554,1383,cs),
(794,1383,o),
(907,1278,o),
(907,1057,cs),
(907,936,o),
(859,824,o),
(770,699,cs),
(681,574,o),
(555,447,o),
(388,302,cs),
(296,221,o),
(202,140,o),
(110,56,c),
(110,0,l)
);
}
);
width = 1132;
}
);
leftKerningGroup = two2;
rightKerningGroup = two;
unicode = 50;
}
{
glyphname = three;
layers = (
{
layerId = "01881FF6-28F4-4241-92CC-0A260EF73B3D";
shapes = (
{
closed = 1;
nodes = (
(792,-32,o),
(937,12,o),
(1033,89,cs),
(1129,165,o),
(1174,274,o),
(1174,403,cs),
(1174,511,o),
(1141,588,o),
(1090,644,cs),
(1038,700,o),
(968,731,o),
(895,744,c),
(895,777,l),
(967,790,o),
(1029,820,o),
(1074,869,cs),
(1118,917,o),
(1145,984,o),
(1145,1073,cs),
(1145,1190,o),
(1099,1286,o),
(1007,1354,cs),
(915,1422,o),
(780,1458,o),
(595,1458,cs),
(498,1458,o),
(400,1449,o),
(312,1430,cs),
(224,1411,o),
(145,1388,o),
(81,1364,c),
(118,936,l),
(178,971,o),
(242,1003,o),
(310,1027,cs),
(378,1051,o),
(442,1066,o),
(506,1066,cs),
(555,1066,o),
(593,1058,o),
(618,1039,cs),
(642,1020,o),
(655,993,o),
(655,957,cs),
(655,924,o),
(644,899,o),
(619,883,cs),
(594,867,o),
(558,860,o),
(502,860,cs),
(312,860,l),
(312,552,l),
(533,552,ls),
(586,552,o),
(625,545,o),
(650,530,c),
(674,514,o),
(686,490,o),
(686,457,cs),
(686,428,o),
(676,403,o),
(652,386,cs),
(628,369,o),
(591,361,o),
(531,361,cs),
(463,361,o),
(393,374,o),
(317,398,cs),
(241,422,o),
(166,454,o),
(93,490,c),
(62,66,l),
(118,41,o),
(194,16,o),
(283,-3,cs),
(371,-22,o),
(472,-32,o),
(585,-32,cs)
);
}
);
width = 1232;
},
{
layerId = "A55F0C2B-6E8D-4FB2-8CDB-992FDB8C8E10";
shapes = (
{
closed = 1;
nodes = (
(760,-24,o),
(887,20,o),
(975,93,cs),
(1063,166,o),
(1104,269,o),
(1104,386,cs),
(1104,499,o),
(1065,582,o),
(1005,642,cs),
(945,702,o),
(869,736,o),
(793,749,c),
(793,770,l),
(866,786,o),
(934,823,o),
(983,879,cs),
(1031,935,o),
(1061,1007,o),
(1061,1096,cs),
(1061,1209,o),
(1018,1294,o),
(934,1358,cs),
(850,1422,o),
(736,1454,o),
(587,1454,cs),
(499,1454,o),
(415,1442,o),
(331,1419,cs),
(247,1396,o),
(173,1366,o),
(112,1333,c),
(137,1096,l),
(205,1140,o),
(272,1175,o),
(344,1199,cs),
(416,1223,o),
(483,1236,o),
(548,1236,cs),
(624,1236,o),
(686,1222,o),
(731,1191,c),
(775,1159,o),
(801,1112,o),
(801,1048,cs),
(801,987,o),
(778,934,o),
(727,895,cs),
(675,856,o),
(597,834,o),
(484,834,cs),
(342,834,l),
(342,631,l),
(498,631,ls),
(611,631,o),
(694,613,o),
(754,574,cs),
(814,535,o),
(845,478,o),
(845,405,cs),
(845,341,o),
(824,291,o),
(777,252,cs),
(729,213,o),
(656,192,o),
(552,192,cs),
(484,192,o),
(410,203,o),
(334,226,cs),
(258,249,o),
(182,280,o),
(106,320,c),
(85,87,l),
(145,56,o),
(220,28,o),
(305,8,cs),
(389,-12,o),
(481,-24,o),
(577,-24,cs)
);
}
);
width = 1198;
},
{
layerId = "18A54BDD-310B-488C-A032-20C0CCB5659F";
shapes = (
{
closed = 1;
nodes = (
(746,-21,o),
(869,22,o),
(953,94,cs),
(1037,167,o),
(1077,267,o),
(1077,380,cs),
(1077,497,o),
(1034,580,o),
(973,642,cs),
(910,704,o),
(830,738,o),
(754,750,c),
(754,768,l),
(829,785,o),
(898,824,o),
(948,883,cs),
(998,940,o),
(1029,1016,o),
(1029,1105,cs),
(1029,1214,o),
(985,1298,o),
(906,1360,cs),
(827,1422,o),
(719,1452,o),
(585,1452,cs),
(500,1452,o),
(418,1440,o),
(338,1415,cs),
(257,1390,o),
(185,1357,o),
(125,1321,c),
(144,1157,l),
(214,1205,o),
(283,1241,o),
(357,1266,cs),
(431,1290,o),
(499,1302,o),
(564,1302,cs),
(649,1302,o),
(722,1285,o),
(774,1249,cs),
(826,1211,o),
(857,1155,o),
(857,1078,cs),
(857,1003,o),
(830,939,o),
(768,890,cs),
(705,842,o),
(611,813,o),
(476,813,cs),
(353,813,l),
(353,673,l),
(484,673,ls),
(619,673,o),
(722,649,o),
(795,601,cs),
(867,553,o),
(906,482,o),
(906,391,cs),
(906,314,o),
(881,251,o),
(825,202,cs),
(768,154,o),
(682,128,o),
(560,128,cs),
(491,128,o),
(416,137,o),
(340,159,cs),
(264,181,o),
(187,212,o),
(111,254,c),
(94,93,l),
(155,61,o),
(230,32,o),
(314,11,cs),
(396,-9,o),
(485,-21,o),
(574,-21,cs)
);
}
);
width = 1185;
},
{
layerId = "42B9E918-1EE0-49C2-B7C8-A26B802712C7";
shapes = (
{
closed = 1;
nodes = (
(728,-18,o),
(846,24,o),
(926,96,cs),
(1006,168,o),
(1044,265,o),
(1044,373,cs),
(1044,494,o),
(997,578,o),
(933,642,cs),
(868,706,o),
(783,740,o),
(707,752,c),
(707,765,l),
(783,784,o),
(854,826,o),
(906,887,cs),
(957,947,o),
(990,1026,o),
(990,1115,cs),
(990,1219,o),
(945,1302,o),
(872,1362,cs),
(799,1422,o),
(699,1450,o),
(582,1450,cs),
(502,1450,o),
(422,1437,o),
(346,1410,cs),
(270,1383,o),
(200,1347,o),
(140,1307,c),
(152,1232,l),
(224,1284,o),
(297,1322,o),
(373,1347,cs),
(449,1371,o),
(519,1383,o),
(584,1383,cs),
(680,1383,o),
(766,1363,o),
(827,1319,cs),
(888,1275,o),
(925,1208,o),
(925,1115,cs),
(925,1023,o),
(894,944,o),
(818,884,cs),
(742,824,o),
(628,788,o),
(467,788,cs),
(367,788,l),
(367,725,l),
(467,725,ls),
(628,725,o),
(756,694,o),
(844,634,cs),
(932,574,o),
(980,486,o),
(980,373,cs),
(980,280,o),
(951,201,o),
(883,141,cs),
(815,81,o),
(714,49,o),
(569,49,cs),
(500,49,o),
(424,57,o),
(348,78,cs),
(271,98,o),
(193,129,o),
(117,173,c),
(104,100,l),
(168,67,o),
(243,36,o),
(324,15,cs),
(404,-6,o),
(490,-18,o),
(571,-18,cs)
);
}
);
width = 1169;
}
);
leftKerningGroup = three;
rightKerningGroup = six;
unicode = 51;
}
{
glyphname = four;
layers = (
{
layerId = "3741C398-C536-4E04-9B31-DF775DED3426";
shapes = (
{
closed = 1;
nodes = (
(1106,0,l),
(1106,440,l),
(1106,928,l),
(1106,1426,l),
(637,1426,l),
(577,1345,o),
(523,1265,o),
(463,1181,cs),
(304,957,ls),
(264,900,o),
(216,835,o),
(169,767,cs),
(122,699,o),
(76,634,o),
(37,581,c),
(37,269,l),
(785,269,l),
(1244,269,l),
(1244,670,l),
(785,670,l),
(748,628,l),
(405,628,l),
(418,601,l),
(474,681,o),
(527,757,o),
(583,837,cs),
(791,1133,ls),
(855,1225,o),
(914,1309,o),
(982,1405,c),
(672,1234,l),
(672,827,l),
(672,498,l),
(630,440,l),
(630,0,l)
);
}
);
width = 1301;
},
{
layerId = "32AC1926-81FC-462E-AFF9-9B08428E2569";
shapes = (
{
closed = 1;
nodes = (
(971,0,l),
(971,407,l),
(971,926,l),
(971,1426,l),
(722,1426,l),
(658,1334,o),
(594,1245,o),
(529,1153,cs),
(352,902,ls),
(307,838,o),
(254,763,o),
(202,690,cs),
(150,617,o),
(99,544,o),
(56,484,c),
(56,313,l),
(816,313,l),
(1206,313,l),
(1206,531,l),
(816,531,l),
(785,531,l),
(257,531,l),
(266,444,l),
(330,536,o),
(392,622,o),
(456,714,cs),
(693,1051,ls),
(766,1155,o),
(836,1255,o),
(913,1364,c),
(729,1312,l),
(729,878,l),
(729,446,l),
(720,407,l),
(720,0,l)
);
}
);
width = 1260;
},
{
layerId = "608C4FA3-96E7-4DF2-B0AE-105347578AB3";
shapes = (
{
closed = 1;
nodes = (
(926,0,l),
(926,396,l),
(926,925,l),
(926,1426,l),
(751,1426,l),
(685,1331,o),
(618,1239,o),
(552,1144,cs),
(369,884,ls),
(322,818,o),
(268,741,o),
(214,665,cs),
(160,589,o),
(107,513,o),
(63,451,c),
(63,329,l),
(826,329,l),
(1193,329,l),
(1193,485,l),
(826,485,l),
(797,485,l),
(207,485,l),
(214,421,l),
(281,516,o),
(345,607,o),
(412,702,cs),
(660,1054,ls),
(736,1163,o),
(810,1267,o),
(890,1380,c),
(756,1339,l),
(756,896,l),
(756,428,l),
(750,396,l),
(750,0,l)
);
}
);
width = 1247;
},
{
layerId = "5E854513-9682-4163-9876-812542B08F08";
shapes = (
{
closed = 1;
nodes = (
(859,0,l),
(859,379,l),
(859,923,l),
(859,1426,l),
(794,1426,l),
(725,1326,o),
(654,1230,o),
(586,1130,c),
(394,858,ls),
(345,789,o),
(288,707,o),
(232,627,cs),
(175,547,o),
(120,467,o),
(73,402,c),
(73,352,l),
(842,352,l),
(1173,352,l),
(1173,415,l),
(842,415,l),
(815,415,l),
(131,415,l),
(135,386,l),
(207,486,o),
(274,584,o),
(346,684,cs),
(611,1059,ls),
(692,1176,o),
(771,1284,o),
(855,1405,c),
(796,1380,l),
(796,923,l),
(796,402,l),
(796,379,l),
(796,0,l)
);
}
);
width = 1228;
}
);
leftKerningGroup = four2;
rightKerningGroup = four;
unicode = 52;
}
{
glyphname = five;
layers = (
{
layerId = "3741C398-C536-4E04-9B31-DF775DED3426";
shapes = (
{
closed = 1;
nodes = (
(785,-32,o),
(930,18,o),
(1027,106,cs),
(1123,194,o),
(1168,318,o),
(1168,463,cs),
(1168,604,o),
(1124,710,o),
(1052,782,cs),
(980,854,o),
(880,891,o),
(767,891,cs),
(690,891,o),
(623,874,o),
(563,845,c),
(530,845,l),
(552,1170,l),
(431,1025,l),
(630,1025,l),
(1108,1025,l),
(1108,1426,l),
(157,1426,l),
(107,570,l),
(308,556,l),
(320,563,o),
(341,568,o),
(362,573,cs),
(383,578,o),
(404,582,o),
(420,585,cs),
(451,592,o),
(468,593,o),
(511,593,cs),
(567,593,o),
(609,582,o),
(637,562,cs),
(665,542,o),
(678,512,o),
(678,475,cs),
(678,438,o),
(668,408,o),
(645,389,cs),
(621,370,o),
(583,361,o),
(527,361,cs),
(462,361,o),
(391,374,o),
(315,398,cs),
(239,422,o),
(165,454,o),
(93,490,c),
(62,66,l),
(118,41,o),
(191,16,o),
(279,-3,cs),
(367,-22,o),
(469,-32,o),
(577,-32,cs)
);
}
);
width = 1226;
},
{
layerId = "32AC1926-81FC-462E-AFF9-9B08428E2569";
shapes = (
{
closed = 1;
nodes = (
(754,-24,o),
(885,25,o),
(974,113,cs),
(1063,201,o),
(1108,324,o),
(1108,473,cs),
(1108,626,o),
(1061,740,o),
(981,816,cs),
(901,892,o),
(793,930,o),
(672,930,cs),
(587,930,o),
(506,911,o),
(422,874,c),
(402,874,l),
(424,1289,l),
(334,1208,l),
(533,1208,l),
(1030,1208,l),
(1030,1426,l),
(189,1426,l),
(147,652,l),
(257,643,l),
(289,659,o),
(318,672,o),
(345,683,cs),
(372,694,o),
(395,702,o),
(418,707,c),
(465,719,o),
(508,724,o),
(556,724,cs),
(640,724,o),
(713,707,o),
(766,664,cs),
(818,621,o),
(849,556,o),
(849,463,cs),
(849,378,o),
(827,310,o),
(776,263,cs),
(725,216,o),
(652,192,o),
(548,192,cs),
(480,192,o),
(409,203,o),
(333,226,cs),
(257,249,o),
(182,280,o),
(106,320,c),
(85,87,l),
(145,56,o),
(219,28,o),
(303,8,cs),
(387,-12,o),
(478,-24,o),
(571,-24,cs)
);
}
);
width = 1202;
},
{
layerId = "608C4FA3-96E7-4DF2-B0AE-105347578AB3";
shapes = (
{
closed = 1;
nodes = (
(742,-22,o),
(869,26,o),
(956,112,cs),
(1043,199,o),
(1088,319,o),
(1088,465,cs),
(1088,619,o),
(1039,731,o),
(957,807,cs),
(875,883,o),
(765,919,o),
(641,919,cs),
(540,919,o),
(448,893,o),
(358,850,c),
(341,850,l),
(366,1330,l),
(301,1270,l),
(501,1270,l),
(1004,1270,l),
(1004,1426,l),
(201,1426,l),
(161,680,l),
(240,673,l),
(276,692,o),
(308,707,o),
(337,720,cs),
(366,733,o),
(392,742,o),
(417,749,cs),
(469,764,o),
(517,769,o),
(571,769,cs),
(665,769,o),
(749,749,o),
(810,699,cs),
(870,649,o),
(907,572,o),
(907,459,cs),
(907,356,o),
(880,276,o),
(820,220,cs),
(761,164,o),
(674,135,o),
(556,135,cs),
(487,135,o),
(415,145,o),
(339,167,cs),
(263,189,o),
(186,220,o),
(110,261,c),
(93,93,l),
(154,61,o),
(228,32,o),
(310,11,cs),
(393,-10,o),
(481,-22,o),
(569,-22,cs)
);
}
);
width = 1195;
},
{
layerId = "5E854513-9682-4163-9876-812542B08F08";
shapes = (
{
closed = 1;
nodes = (
(724,-18,o),
(846,27,o),
(930,111,cs),
(1014,195,o),
(1059,311,o),
(1059,452,cs),
(1059,609,o),
(1006,718,o),
(921,794,cs),
(836,870,o),
(723,903,o),
(594,903,cs),
(469,903,o),
(362,867,o),
(262,815,c),
(250,815,l),
(280,1392,l),
(251,1363,l),
(452,1363,l),
(965,1363,l),
(965,1426,l),
(219,1426,l),
(182,721,l),
(214,717,l),
(257,741,o),
(293,760,o),
(326,776,cs),
(358,791,o),
(387,803,o),
(416,812,cs),
(476,831,o),
(530,836,o),
(594,836,cs),
(702,836,o),
(803,811,o),
(876,751,cs),
(948,690,o),
(994,597,o),
(994,452,cs),
(994,323,o),
(959,224,o),
(887,155,cs),
(815,86,o),
(708,49,o),
(567,49,cs),
(498,49,o),
(423,57,o),
(347,78,cs),
(271,98,o),
(193,129,o),
(117,173,c),
(104,101,l),
(168,68,o),
(241,39,o),
(321,16,cs),
(401,-7,o),
(486,-18,o),
(567,-18,cs)
);
}
);
width = 1184;
}
);
leftKerningGroup = five2;
rightKerningGroup = five;
unicode = 53;
}
{
glyphname = six;
layers = (
{
layerId = "59107719-3C4E-47A6-814F-E6C1AF0696EE";
shapes = (
{
closed = 1;
nodes = (
(62,201,o),
(284,-32,o),
(684,-32,cs),
(1000,-32,o),
(1240,143,o),
(1240,474,cs),
(1240,727,o),
(1077,894,o),
(823,894,cs),
(733,894,o),
(631,872,o),
(558,817,c),
(517,817,l),
(461,757,o),
(432,722,o),
(432,685,cs),
(432,648,o),
(461,611,o),
(521,547,c),
(557,588,o),
(610,602,o),
(663,602,cs),
(736,602,o),
(771,554,o),
(771,485,cs),
(771,416,o),
(735,361,o),
(661,361,cs),
(537,361,o),
(523,580,o),
(523,674,cs),
(523,960,o),
(716,1148,o),
(1010,1148,c),
(880,1458,l),
(429,1458,o),
(62,1079,o),
(62,615,cs)
);
}
);
width = 1298;
},
{
layerId = "154AD331-AB6C-4DF7-8377-5EAD1D513505";
shapes = (
{
closed = 1;
nodes = (
(102,249,o),
(263,-24,o),
(647,-24,cs),
(942,-24,o),
(1139,170,o),
(1139,468,cs),
(1139,723,o),
(976,900,o),
(715,900,cs),
(582,900,o),
(458,853,o),
(365,756,c),
(333,758,l),
(308,714,o),
(295,683,o),
(295,654,cs),
(295,626,o),
(308,599,o),
(335,560,c),
(420,650,o),
(518,704,o),
(643,704,cs),
(802,704,o),
(897,611,o),
(897,454,cs),
(897,293,o),
(801,184,o),
(637,184,cs),
(391,184,o),
(345,446,o),
(345,637,cs),
(345,982,o),
(611,1274,o),
(925,1274,c),
(839,1454,l),
(440,1454,o),
(102,1070,o),
(102,616,cs)
);
}
);
width = 1271;
},
{
layerId = "FA691644-D190-44BA-8874-3018883EB52A";
shapes = (
{
closed = 1;
nodes = (
(135,284,o),
(291,-18,o),
(650,-18,cs),
(932,-18,o),
(1123,183,o),
(1123,462,cs),
(1123,737,o),
(934,908,o),
(663,908,cs),
(485,908,o),
(345,842,o),
(217,722,c),
(192,724,l),
(191,709,o),
(189,694,o),
(189,675,cs),
(189,656,o),
(191,637,o),
(192,614,c),
(324,753,o),
(467,841,o),
(663,841,cs),
(904,841,o),
(1059,707,o),
(1059,462,cs),
(1059,213,o),
(903,49,o),
(650,49,cs),
(320,49,o),
(200,325,o),
(200,607,cs),
(200,1081,o),
(449,1400,o),
(820,1400,c),
(780,1450,l),
(399,1450,o),
(135,1109,o),
(135,616,cs)
);
}
);
width = 1248;
}
);
leftKerningGroup = six2;
rightKerningGroup = six;
unicode = 54;
}
{
glyphname = seven;
layers = (
{
layerId = "DBFEB7CD-EA6A-4398-9607-E41666997EF2";
shapes = (
{
closed = 1;
nodes = (
(661,0,l),
(725,149,o),
(781,285,o),
(845,434,cs),
(951,684,ls),
(1014,832,o),
(1070,966,o),
(1133,1114,c),
(1133,1426,l),
(52,1426,l),
(52,1025,l),
(482,1025,l),
(723,1025,l),
(630,1114,l),
(591,1025,o),
(552,934,o),
(513,845,cs),
(351,477,ls),
(283,320,o),
(215,161,o),
(143,0,c)
);
}
);
width = 1184;
},
{
layerId = "38EDA6ED-2D3B-4EB9-8093-529BF0DC7182";
shapes = (
{
closed = 1;
nodes = (
(485,0,l),
(557,167,o),
(630,325,o),
(703,489,cs),
(827,768,ls),
(903,936,o),
(970,1090,o),
(1045,1255,c),
(1045,1425,l),
(52,1425,l),
(52,1207,l),
(549,1207,l),
(828,1207,l),
(778,1259,l),
(731,1155,o),
(686,1056,o),
(639,955,cs),
(450,539,ls),
(370,359,o),
(291,183,o),
(207,0,c)
);
}
);
width = 1120;
},
{
layerId = "5813D18E-CE46-47D4-BE44-DF651A6D3020";
shapes = (
{
closed = 1;
nodes = (
(333,0,l),
(417,181,o),
(498,359,o),
(582,536,cs),
(723,840,ls),
(810,1027,o),
(887,1195,o),
(971,1376,c),
(971,1426,l),
(52,1426,l),
(52,1363,l),
(607,1363,l),
(917,1363,l),
(905,1384,l),
(852,1271,o),
(800,1161,o),
(748,1048,cs),
(536,592,ls),
(444,396,o),
(353,200,o),
(261,0,c)
);
}
);
width = 1065;
}
);
leftKerningGroup = seven2;
rightKerningGroup = seven;
unicode = 55;
}
{
glyphname = eight;
layers = (
{
layerId = "DBFEB7CD-EA6A-4398-9607-E41666997EF2";
shapes = (
{
closed = 1;
nodes = (
(860,-32,o),
(1007,12,o),
(1104,89,cs),
(1200,166,o),
(1246,274,o),
(1246,403,cs),
(1246,511,o),
(1213,591,o),
(1162,647,cs),
(1111,703,o),
(1041,736,o),
(969,752,c),
(969,785,l),
(1041,800,o),
(1102,831,o),
(1146,880,cs),
(1189,928,o),
(1215,993,o),
(1215,1077,cs),
(1215,1193,o),
(1166,1286,o),
(1070,1354,cs),
(974,1422,o),
(836,1458,o),
(653,1458,cs),
(470,1458,o),
(331,1422,o),
(235,1354,cs),
(139,1286,o),
(89,1193,o),
(89,1077,cs),
(89,993,o),
(115,928,o),
(159,880,c),
(202,831,o),
(263,800,o),
(335,785,c),
(335,752,l),
(263,736,o),
(194,704,o),
(143,648,cs),
(91,592,o),
(58,512,o),
(58,403,cs),
(58,274,o),
(104,166,o),
(201,89,cs),
(297,12,o),
(445,-32,o),
(653,-32,cs)
);
},
{
closed = 1;
nodes = (
(610,348,o),
(579,359,o),
(558,379,cs),
(537,399,o),
(527,426,o),
(527,457,cs),
(527,490,o),
(539,517,o),
(560,537,cs),
(581,556,o),
(612,566,o),
(652,566,cs),
(691,566,o),
(721,556,o),
(744,537,cs),
(767,517,o),
(777,490,o),
(777,457,cs),
(777,426,o),
(767,399,o),
(747,379,cs),
(726,359,o),
(694,348,o),
(653,348,cs)
);
},
{
closed = 1;
nodes = (
(620,876,o),
(595,887,o),
(576,907,cs),
(557,927,o),
(548,955,o),
(548,988,cs),
(548,1025,o),
(558,1053,o),
(577,1073,cs),
(596,1092,o),
(622,1101,o),
(653,1101,cs),
(684,1101,o),
(711,1092,o),
(731,1073,c),
(750,1053,o),
(761,1025,o),
(761,988,cs),
(761,955,o),
(751,927,o),
(732,907,cs),
(713,887,o),
(686,876,o),
(653,876,cs)
);
}
);
width = 1304;
},
{
layerId = "38EDA6ED-2D3B-4EB9-8093-529BF0DC7182";
shapes = (
{
closed = 1;
nodes = (
(824,-24,o),
(958,21,o),
(1047,97,cs),
(1136,173,o),
(1179,280,o),
(1179,401,cs),
(1179,517,o),
(1139,597,o),
(1083,657,cs),
(1026,717,o),
(953,749,o),
(888,764,c),
(888,785,l),
(953,801,o),
(1016,836,o),
(1061,888,cs),
(1106,940,o),
(1135,1008,o),
(1135,1092,cs),
(1135,1201,o),
(1089,1292,o),
(1002,1356,cs),
(915,1420,o),
(793,1454,o),
(637,1454,cs),
(480,1454,o),
(358,1420,o),
(271,1356,cs),
(184,1292,o),
(137,1201,o),
(137,1092,cs),
(137,1008,o),
(166,940,o),
(211,888,cs),
(256,836,o),
(319,801,o),
(384,785,c),
(384,764,l),
(319,749,o),
(246,718,o),
(190,658,cs),
(133,598,o),
(93,517,o),
(93,401,cs),
(93,280,o),
(137,173,o),
(226,97,cs),
(315,21,o),
(450,-24,o),
(637,-24,cs)
);
},
{
closed = 1;
nodes = (
(533,194,o),
(462,217,o),
(415,260,cs),
(367,303,o),
(345,360,o),
(345,425,cs),
(345,502,o),
(376,560,o),
(428,600,cs),
(480,639,o),
(551,658,o),
(635,658,cs),
(719,658,o),
(792,639,o),
(845,600,c),
(897,560,o),
(928,502,o),
(928,425,cs),
(928,360,o),
(906,303,o),
(859,260,cs),
(812,217,o),
(741,194,o),
(637,194,cs)
);
},
{
closed = 1;
nodes = (
(556,853,o),
(493,874,o),
(450,910,cs),
(407,945,o),
(384,994,o),
(384,1054,cs),
(384,1115,o),
(409,1163,o),
(453,1195,cs),
(497,1227,o),
(561,1242,o),
(637,1242,cs),
(713,1242,o),
(776,1227,o),
(821,1195,cs),
(865,1163,o),
(890,1115,o),
(890,1054,cs),
(890,994,o),
(867,945,o),
(824,910,cs),
(780,874,o),
(717,853,o),
(637,853,cs)
);
}
);
width = 1272;
},
{
layerId = "5813D18E-CE46-47D4-BE44-DF651A6D3020";
shapes = (
{
closed = 1;
nodes = (
(792,-18,o),
(914,28,o),
(998,104,cs),
(1082,180,o),
(1121,282,o),
(1121,398,cs),
(1121,519,o),
(1076,606,o),
(1016,667,cs),
(955,727,o),
(879,761,o),
(819,773,c),
(819,786,l),
(880,803,o),
(942,841,o),
(989,896,cs),
(1036,951,o),
(1067,1022,o),
(1067,1107,cs),
(1067,1211,o),
(1024,1296,o),
(945,1356,cs),
(866,1416,o),
(756,1450,o),
(623,1450,cs),
(490,1450,o),
(382,1416,o),
(303,1356,cs),
(224,1296,o),
(179,1211,o),
(179,1107,cs),
(179,1022,o),
(210,951,o),
(257,896,cs),
(304,841,o),
(365,803,o),
(425,786,c),
(425,773,l),
(365,761,o),
(290,727,o),
(230,667,cs),
(170,606,o),
(125,519,o),
(125,398,cs),
(125,282,o),
(164,180,o),
(248,104,cs),
(332,28,o),
(454,-18,o),
(623,-18,cs)
);
},
{
closed = 1;
nodes = (
(470,49,o),
(363,84,o),
(292,148,cs),
(221,212,o),
(190,298,o),
(190,398,cs),
(190,518,o),
(237,604,o),
(316,661,cs),
(395,718,o),
(502,746,o),
(623,746,cs),
(744,746,o),
(852,718,o),
(931,661,cs),
(1010,604,o),
(1057,518,o),
(1057,398,cs),
(1057,298,o),
(1027,212,o),
(956,148,cs),
(885,84,o),
(776,49,o),
(623,49,cs)
);
},
{
closed = 1;
nodes = (
(502,809,o),
(406,841,o),
(342,894,cs),
(278,946,o),
(244,1021,o),
(244,1109,cs),
(244,1197,o),
(280,1266,o),
(347,1313,cs),
(414,1360,o),
(506,1383,o),
(623,1383,cs),
(739,1383,o),
(831,1360,o),
(899,1313,cs),
(967,1266,o),
(1003,1197,o),
(1003,1109,cs),
(1003,1021,o),
(968,946,o),
(904,894,cs),
(839,841,o),
(744,809,o),
(623,809,cs)
);
}
);
width = 1246;
}
);
leftKerningGroup = six2;
rightKerningGroup = six;
unicode = 56;
}
{
glyphname = nine;
layers = (
{
layerId = "59107719-3C4E-47A6-814F-E6C1AF0696EE";
shapes = (
{
closed = 1;
nodes = (
(1236,1225,o),
(1014,1458,o),
(614,1458,cs),
(298,1458,o),
(58,1283,o),
(58,952,cs),
(58,699,o),
(221,532,o),
(475,532,cs),
(565,532,o),
(667,554,o),
(740,609,c),
(781,609,l),
(837,669,o),
(866,704,o),
(866,741,cs),
(866,778,o),
(837,815,o),
(777,879,c),
(741,838,o),
(688,824,o),
(635,824,cs),
(562,824,o),
(527,872,o),
(527,941,cs),
(527,1010,o),
(563,1065,o),
(637,1065,cs),
(761,1065,o),
(775,846,o),
(775,752,cs),
(775,466,o),
(582,278,o),
(288,278,c),
(418,-32,l),
(869,-32,o),
(1236,347,o),
(1236,811,cs)
);
}
);
width = 1298;
},
{
layerId = "154AD331-AB6C-4DF7-8377-5EAD1D513505";
shapes = (
{
closed = 1;
nodes = (
(1169,1181,o),
(1008,1454,o),
(624,1454,cs),
(329,1454,o),
(132,1260,o),
(132,962,cs),
(132,707,o),
(295,530,o),
(556,530,cs),
(689,530,o),
(813,577,o),
(906,674,c),
(938,672,l),
(963,716,o),
(976,747,o),
(976,776,cs),
(976,804,o),
(963,831,o),
(936,870,c),
(851,780,o),
(753,726,o),
(628,726,cs),
(469,726,o),
(374,819,o),
(374,976,cs),
(374,1137,o),
(470,1246,o),
(634,1246,cs),
(880,1246,o),
(926,984,o),
(926,793,cs),
(926,448,o),
(660,156,o),
(346,156,c),
(432,-24,l),
(831,-24,o),
(1169,360,o),
(1169,814,cs)
);
}
);
width = 1271;
},
{
layerId = "FA691644-D190-44BA-8874-3018883EB52A";
shapes = (
{
closed = 1;
nodes = (
(1113,1148,o),
(957,1450,o),
(598,1450,cs),
(316,1450,o),
(125,1249,o),
(125,970,cs),
(125,695,o),
(314,524,o),
(585,524,cs),
(763,524,o),
(903,590,o),
(1031,710,c),
(1056,708,l),
(1057,723,o),
(1059,738,o),
(1059,757,cs),
(1059,776,o),
(1057,795,o),
(1056,818,c),
(924,679,o),
(781,591,o),
(585,591,cs),
(344,591,o),
(189,725,o),
(189,970,cs),
(189,1219,o),
(345,1383,o),
(598,1383,cs),
(928,1383,o),
(1048,1107,o),
(1048,825,cs),
(1048,351,o),
(799,32,o),
(428,32,c),
(468,-18,l),
(849,-18,o),
(1113,323,o),
(1113,816,cs)
);
}
);
width = 1248;
}
);
leftKerningGroup = six2;
rightKerningGroup = six;
unicode = 57;
}
{
glyphname = colon;
layers = (
{
layerId = "70396C8E-6CDB-42F9-9328-A9E72BA9B704";
shapes = (
{
alignment = -1;
pos = (0,598);
ref = period;
},
{
alignment = -1;
ref = period;
}
);
width = 590;
},
{
layerId = "3EF77CA0-AC37-45E2-BAEE-C9E0CE64A2A3";
shapes = (
{
alignment = -1;
pos = (0,732);
ref = period;
},
{
alignment = -1;
ref = period;
}
);
width = 502;
},
{
layerId = "24538CAD-4802-43D5-ADA8-22A032C706C3";
shapes = (
{
closed = 1;
nodes = (
(275,762,o),
(306,775,o),
(329,797,cs),
(352,820,o),
(363,852,o),
(363,889,cs),
(363,928,o),
(352,959,o),
(329,981,cs),
(306,1002,o),
(275,1015,o),
(234,1015,cs),
(195,1015,o),
(163,1002,o),
(140,981,c),
(118,959,o),
(105,928,o),
(105,889,cs),
(105,852,o),
(118,820,o),
(140,797,c),
(163,775,o),
(195,762,o),
(234,762,cs)
);
},
{
closed = 1;
nodes = (
(275,-21,o),
(306,-8,o),
(329,14,cs),
(352,37,o),
(363,69,o),
(363,106,cs),
(363,145,o),
(352,176,o),
(329,198,cs),
(306,219,o),
(275,232,o),
(234,232,cs),
(195,232,o),
(163,219,o),
(140,198,c),
(118,176,o),
(105,145,o),
(105,106,cs),
(105,69,o),
(118,37,o),
(140,14,c),
(163,-8,o),
(195,-21,o),
(234,-21,cs)
);
}
);
width = 469;
},
{
layerId = "8D116CAD-4DFA-4CD5-B105-D71FC4D96B49";
shapes = (
{
alignment = -1;
pos = (0,846);
ref = period;
},
{
alignment = -1;
ref = period;
}
);
width = 428;
}
);
leftKerningGroup = colon2;
rightKerningGroup = colon;
unicode = 58;
}
{
glyphname = less;
layers = (
{
layerId = "3741C398-C536-4E04-9B31-DF775DED3426";
shapes = (
{
closed = 1;
nodes = (
(1100,466,l),
(1004,497,o),
(911,526,o),
(818,555,cs),
(670,602,l),
(670,634,l),
(819,681,ls),
(915,712,o),
(1004,739,o),
(1100,770,c),
(1100,1170,l),
(951,1117,o),
(808,1066,o),
(683,1022,cs),
(497,956,ls),
(372,912,o),
(229,861,o),
(80,808,c),
(80,428,l),
(229,376,o),
(371,324,o),
(496,280,cs),
(683,214,ls),
(808,170,o),
(947,119,o),
(1100,66,c)
);
}
);
width = 1180;
},
{
layerId = "32AC1926-81FC-462E-AFF9-9B08428E2569";
shapes = (
{
closed = 1;
nodes = (
(1036,345,l),
(903,397,o),
(772,450,o),
(639,506,cs),
(429,591,l),
(429,612,l),
(639,698,ls),
(772,754,o),
(903,806,o),
(1036,859,c),
(1036,1078,l),
(903,1025,o),
(779,975,o),
(670,931,cs),
(477,852,ls),
(369,809,o),
(246,759,o),
(113,706,c),
(113,497,l),
(246,445,o),
(368,395,o),
(476,352,cs),
(670,273,ls),
(779,229,o),
(903,178,o),
(1036,126,c)
);
}
);
width = 1147;
},
{
layerId = "608C4FA3-96E7-4DF2-B0AE-105347578AB3";
shapes = (
{
closed = 1;
nodes = (
(1014,304,l),
(869,364,o),
(725,425,o),
(578,489,c),
(347,587,l),
(347,605,l),
(578,704,ls),
(725,768,o),
(869,828,o),
(1014,889,c),
(1014,1047,l),
(887,994,o),
(769,944,o),
(665,900,cs),
(469,817,ls),
(368,774,o),
(250,724,o),
(124,672,c),
(124,521,l),
(250,469,o),
(367,419,o),
(469,376,cs),
(665,293,ls),
(769,249,o),
(887,198,o),
(1014,146,c)
);
}
);
width = 1136;
},
{
layerId = "5E854513-9682-4163-9876-812542B08F08";
shapes = (
{
closed = 1;
nodes = (
(980,242,l),
(819,314,o),
(655,388,o),
(486,464,cs),
(224,582,l),
(224,594,l),
(486,712,ls),
(655,788,o),
(819,862,o),
(980,934,c),
(980,1000,l),
(863,948,o),
(754,898,o),
(658,854,cs),
(458,764,ls),
(366,721,o),
(257,672,o),
(140,620,c),
(140,556,l),
(257,504,o),
(365,455,o),
(458,412,cs),
(657,322,ls),
(754,278,o),
(863,228,o),
(980,176,c)
);
}
);
width = 1120;
}
);
leftKerningGroup = plus2;
unicode = 60;
}
{
glyphname = equal;
layers = (
{
layerId = "FDF10714-118B-4256-971C-9D299BF9B2D9";
name = "#instance";
width = 1180;
},
{
layerId = "4D982121-A3EA-4020-9401-9D37D3998041";
shapes = (
{
closed = 1;
nodes = (
(100,168,l),
(516,168,l),
(664,168,l),
(1080,168,l),
(1080,548,l),
(664,548,l),
(516,548,l),
(100,548,l)
);
},
{
closed = 1;
nodes = (
(100,688,l),
(516,688,l),
(664,688,l),
(1080,688,l),
(1080,1068,l),
(664,1068,l),
(516,1068,l),
(100,1068,l)
);
}
);
width = 1180;
},
{
layerId = "1C7D9B22-12D2-48C2-AAB6-7F43D5B1BEB0";
shapes = (
{
closed = 1;
nodes = (
(122,267,l),
(486,267,l),
(662,267,l),
(1026,267,l),
(1026,474,l),
(662,474,l),
(486,474,l),
(122,474,l)
);
},
{
closed = 1;
nodes = (
(122,732,l),
(486,732,l),
(662,732,l),
(1026,732,l),
(1026,939,l),
(662,939,l),
(486,939,l),
(122,939,l)
);
}
);
width = 1147;
},
{
layerId = "05AFCDC2-A193-4E92-AE8D-3DCA52EE59FA";
shapes = (
{
closed = 1;
nodes = (
(140,350,l),
(460,350,l),
(660,350,l),
(980,350,l),
(980,410,l),
(660,410,l),
(460,410,l),
(140,410,l)
);
},
{
closed = 1;
nodes = (
(140,770,l),
(460,770,l),
(660,770,l),
(980,770,l),
(980,830,l),
(660,830,l),
(460,830,l),
(140,830,l)
);
}
);
width = 1120;
}
);
unicode = 61;
}
{
glyphname = greater;
layers = (
{
layerId = "3741C398-C536-4E04-9B31-DF775DED3426";
shapes = (
{
closed = 1;
nodes = (
(80,66,l),
(233,118,o),
(371,170,o),
(496,214,cs),
(684,280,ls),
(809,324,o),
(947,376,o),
(1100,428,c),
(1100,808,l),
(947,860,o),
(809,912,o),
(684,956,cs),
(496,1022,ls),
(371,1066,o),
(233,1118,o),
(80,1170,c),
(80,770,l),
(176,739,o),
(266,711,o),
(362,680,cs),
(510,634,l),
(510,602,l),
(362,556,ls),
(266,525,o),
(176,497,o),
(80,466,c)
);
}
);
width = 1180;
},
{
layerId = "32AC1926-81FC-462E-AFF9-9B08428E2569";
shapes = (
{
closed = 1;
nodes = (
(112,126,l),
(245,178,o),
(368,229,o),
(477,273,cs),
(672,352,ls),
(780,395,o),
(902,445,o),
(1035,497,c),
(1035,706,l),
(902,758,o),
(780,809,o),
(672,852,cs),
(477,931,ls),
(368,975,o),
(245,1026,o),
(112,1078,c),
(112,859,l),
(245,806,o),
(376,753,o),
(509,697,cs),
(719,612,l),
(719,591,l),
(509,506,ls),
(376,450,o),
(245,397,o),
(112,345,c)
);
}
);
width = 1147;
},
{
layerId = "608C4FA3-96E7-4DF2-B0AE-105347578AB3";
shapes = (
{
closed = 1;
nodes = (
(123,146,l),
(250,198,o),
(367,249,o),
(471,293,cs),
(668,376,ls),
(770,419,o),
(886,469,o),
(1013,521,c),
(1013,672,l),
(886,724,o),
(770,774,o),
(668,817,cs),
(471,900,ls),
(367,944,o),
(250,995,o),
(123,1047,c),
(123,889,l),
(267,828,o),
(412,767,o),
(559,703,c),
(790,605,l),
(790,587,l),
(559,489,l),
(412,425,o),
(267,364,o),
(123,304,c)
);
}
);
width = 1136;
},
{
layerId = "5E854513-9682-4163-9876-812542B08F08";
shapes = (
{
closed = 1;
nodes = (
(140,176,l),
(257,228,o),
(366,278,o),
(462,322,cs),
(662,412,ls),
(754,455,o),
(863,504,o),
(980,556,c),
(980,620,l),
(863,672,o),
(754,721,o),
(662,764,cs),
(462,854,ls),
(366,898,o),
(257,948,o),
(140,1000,c),
(140,934,l),
(301,862,o),
(465,788,o),
(634,712,cs),
(896,594,l),
(896,582,l),
(634,464,ls),
(466,388,o),
(301,314,o),
(140,242,c)
);
}
);
width = 1120;
}
);
rightKerningGroup = plus;
unicode = 62;
}
{
glyphname = question;
layers = (
{
guides = (
{
angle = 90;
position = "{-429, 0}";
}
);
layerId = "38BC816E-D43A-41BE-BA15-848C078B51D1";
shapes = (
{
closed = 1;
nodes = (
(1003,1324,o),
(792,1485,o),
(267,1510,c),
(196,1162,l),
(382,1156,o),
(651,1099,o),
(651,1066,cs),
(651,1046,o),
(627,1031,o),
(570,1016,cs),
(436,981,ls),
(234,928,o),
(172,867,o),
(172,750,cs),
(172,685,o),
(178,660,o),
(206,589,cs),
(225,541,l),
(402,541,l),
(406,549,ls),
(411,559,o),
(459,585,o),
(485,590,cs),
(640,621,ls),
(882,669,o),
(1003,804,o),
(1003,1025,cs)
);
},
{
closed = 1;
nodes = (
(431,-32,o),
(492,-6,o),
(535,38,cs),
(578,81,o),
(600,141,o),
(600,206,cs),
(600,274,o),
(579,329,o),
(536,372,cs),
(493,415,o),
(432,438,o),
(356,438,cs),
(279,438,o),
(219,415,o),
(176,372,cs),
(133,329,o),
(110,274,o),
(110,206,cs),
(110,141,o),
(133,81,o),
(176,38,cs),
(219,-6,o),
(278,-32,o),
(354,-32,cs)
);
}
);
width = 1035;
},
{
layerId = "CC778D2D-072A-4DB6-BE4E-3C1A765FC49D";
shapes = (
{
closed = 1;
nodes = (
(867,1319,o),
(671,1465,o),
(268,1510,c),
(224,1306,l),
(400,1289,o),
(665,1203,o),
(665,1089,cs),
(665,998,o),
(622,949,o),
(517,917,cs),
(441,894,ls),
(288,848,o),
(231,782,o),
(238,683,cs),
(241,640,o),
(245,612,o),
(261,541,cs),
(274,483,l),
(388,483,l),
(386,546,ls),
(384,607,o),
(421,657,o),
(479,671,cs),
(566,692,ls),
(784,745,o),
(867,847,o),
(867,1066,cs)
);
},
{
closed = 1;
nodes = (
(399,-24,o),
(438,-7,o),
(466,21,cs),
(494,49,o),
(509,89,o),
(509,134,cs),
(509,181,o),
(494,219,o),
(466,246,cs),
(438,273,o),
(399,289,o),
(348,289,cs),
(299,289,o),
(258,273,o),
(230,246,cs),
(202,219,o),
(187,181,o),
(187,134,cs),
(187,89,o),
(202,49,o),
(230,21,cs),
(258,-7,o),
(299,-24,o),
(348,-24,cs)
);
}
);
width = 930;
},
{
layerId = "452C7134-94CE-4761-9646-58D083594750";
shapes = (
{
closed = 1;
nodes = (
(649,1314,o),
(467,1445,o),
(181,1510,c),
(163,1444,l),
(329,1416,o),
(590,1303,o),
(590,1111,cs),
(590,984,o),
(539,914,o),
(378,822,cs),
(357,810,ls),
(255,752,o),
(213,699,o),
(213,618,cs),
(213,584,o),
(219,550,o),
(226,494,cs),
(234,427,l),
(287,427,l),
(279,543,ls),
(271,653,o),
(294,699,o),
(385,748,cs),
(407,760,ls),
(572,850,o),
(649,942,o),
(649,1104,cs)
);
},
{
closed = 1;
nodes = (
(288,-18,o),
(310,-10,o),
(326,6,cs),
(342,22,o),
(350,44,o),
(350,72,cs),
(350,101,o),
(342,123,o),
(326,139,cs),
(310,154,o),
(288,162,o),
(260,162,cs),
(233,162,o),
(211,154,o),
(195,139,cs),
(179,123,o),
(170,101,o),
(170,72,cs),
(170,44,o),
(179,22,o),
(195,6,cs),
(211,-10,o),
(233,-18,o),
(260,-18,cs)
);
}
);
width = 745;
}
);
unicode = 63;
}
{
glyphname = at;
layers = (
{
layerId = "70396C8E-6CDB-42F9-9328-A9E72BA9B704";
shapes = (
{
closed = 1;
nodes = (
(1065,-314,o),
(1163,-303,o),
(1259,-280,cs),
(1355,-256,o),
(1443,-221,o),
(1528,-170,c),
(1528,102,l),
(1415,30,o),
(1310,-13,o),
(1214,-40,cs),
(1118,-67,o),
(1033,-74,o),
(960,-74,cs),
(876,-74,o),
(801,-66,o),
(733,-49,cs),
(596,-16,o),
(492,48,o),
(420,137,cs),
(384,182,o),
(357,231,o),
(338,287,cs),
(299,400,o),
(295,531,o),
(328,676,cs),
(360,821,o),
(422,950,o),
(526,1043,cs),
(630,1136,o),
(765,1194,o),
(950,1194,cs),
(1143,1194,o),
(1290,1140,o),
(1386,1032,cs),
(1482,924,o),
(1517,773,o),
(1478,574,cs),
(1465,509,o),
(1443,459,o),
(1415,427,cs),
(1387,394,o),
(1354,378,o),
(1318,378,cs),
(1295,378,o),
(1272,389,o),
(1259,417,cs),
(1246,445,o),
(1243,489,o),
(1256,554,cs),
(1263,587,ls),
(1292,724,o),
(1321,855,o),
(1348,980,c),
(1044,964,l),
(1010,864,l),
(984,864,l),
(967,907,o),
(941,939,o),
(909,960,c),
(876,980,o),
(836,990,o),
(792,990,cs),
(700,990,o),
(626,948,o),
(566,880,cs),
(506,812,o),
(467,724,o),
(448,628,cs),
(423,495,o),
(438,375,o),
(487,283,cs),
(536,191,o),
(618,134,o),
(726,134,cs),
(766,134,o),
(806,142,o),
(845,163,cs),
(884,184,o),
(917,218,o),
(944,270,c),
(968,270,l),
(993,225,o),
(1037,187,o),
(1097,160,cs),
(1157,133,o),
(1228,118,o),
(1312,118,cs),
(1388,118,o),
(1479,140,o),
(1559,204,cs),
(1639,267,o),
(1709,366,o),
(1738,522,cs),
(1755,607,o),
(1759,686,o),
(1752,766,cs),
(1737,923,o),
(1682,1057,o),
(1586,1169,cs),
(1539,1225,o),
(1484,1271,o),
(1420,1310,cs),
(1291,1390,o),
(1138,1434,o),
(954,1434,cs),
(754,1434,o),
(565,1383,o),
(405,1267,cs),
(245,1151,o),
(126,979,o),
(74,734,cs),
(54,638,o),
(46,548,o),
(51,459,cs),
(60,279,o),
(116,126,o),
(220,-3,cs),
(271,-67,o),
(332,-122,o),
(405,-169,cs),
(550,-261,o),
(733,-314,o),
(960,-314,cs)
);
},
{
closed = 1;
nodes = (
(812,436,o),
(796,454,o),
(788,479,cs),
(779,504,o),
(779,536,o),
(784,564,cs),
(791,599,o),
(803,628,o),
(822,649,cs),
(841,669,o),
(861,682,o),
(886,682,cs),
(906,682,o),
(926,671,o),
(934,656,c),
(896,478,l),
(884,454,o),
(863,436,o),
(836,436,cs)
);
}
);
width = 1804;
},
{
layerId = "3EF77CA0-AC37-45E2-BAEE-C9E0CE64A2A3";
shapes = (
{
closed = 1;
nodes = (
(1049,-276,o),
(1149,-265,o),
(1245,-241,cs),
(1341,-216,o),
(1434,-178,o),
(1515,-126,c),
(1515,38,l),
(1410,-30,o),
(1307,-73,o),
(1211,-98,cs),
(1115,-123,o),
(1026,-132,o),
(949,-132,cs),
(857,-132,o),
(777,-122,o),
(704,-103,cs),
(555,-63,o),
(447,7,o),
(367,107,cs),
(328,156,o),
(297,210,o),
(276,270,cs),
(233,391,o),
(227,525,o),
(259,670,cs),
(298,851,o),
(377,988,o),
(494,1084,cs),
(611,1180,o),
(759,1229,o),
(939,1229,cs),
(1151,1229,o),
(1312,1156,o),
(1416,1031,cs),
(1520,906,o),
(1559,735,o),
(1519,532,cs),
(1503,452,o),
(1473,388,o),
(1434,344,cs),
(1394,299,o),
(1345,274,o),
(1293,274,cs),
(1253,274,o),
(1221,288,o),
(1202,320,cs),
(1183,351,o),
(1178,399,o),
(1193,471,cs),
(1201,509,ls),
(1236,666,o),
(1267,822,o),
(1298,967,c),
(1127,956,l),
(1100,855,l),
(1083,855,l),
(1058,891,o),
(1024,923,o),
(984,944,cs),
(944,965,o),
(896,978,o),
(843,978,cs),
(750,978,o),
(671,939,o),
(607,875,cs),
(543,810,o),
(500,718,o),
(477,613,c),
(452,488,o),
(465,372,o),
(513,284,cs),
(561,196,o),
(642,141,o),
(759,141,cs),
(802,141,o),
(847,151,o),
(891,172,cs),
(935,193,o),
(976,226,o),
(1008,274,c),
(1024,274,l),
(1039,235,o),
(1069,197,o),
(1114,169,cs),
(1158,141,o),
(1218,122,o),
(1298,122,cs),
(1362,122,o),
(1440,148,o),
(1512,208,cs),
(1584,268,o),
(1644,362,o),
(1671,502,cs),
(1686,582,o),
(1691,657,o),
(1684,733,cs),
(1671,882,o),
(1619,1009,o),
(1531,1117,cs),
(1487,1170,o),
(1437,1214,o),
(1377,1253,cs),
(1257,1329,o),
(1114,1373,o),
(942,1373,cs),
(746,1373,o),
(565,1324,o),
(416,1212,cs),
(267,1100,o),
(157,936,o),
(109,701,c),
(90,616,o),
(85,533,o),
(90,452,cs),
(101,287,o),
(154,146,o),
(250,22,cs),
(298,-42,o),
(356,-92,o),
(424,-136,cs),
(561,-224,o),
(734,-276,o),
(949,-276,cs)
);
},
{
closed = 1;
nodes = (
(748,312,o),
(703,344,o),
(679,393,c),
(654,441,o),
(649,508,o),
(665,580,cs),
(678,644,o),
(704,700,o),
(741,740,cs),
(778,779,o),
(828,803,o),
(888,803,cs),
(963,803,o),
(1016,769,o),
(1055,722,c),
(994,430,l),
(949,349,o),
(880,312,o),
(813,312,cs)
);
}
);
width = 1775;
},
{
layerId = "24538CAD-4802-43D5-ADA8-22A032C706C3";
shapes = (
{
closed = 1;
nodes = (
(1043,-262,o),
(1142,-250,o),
(1240,-226,cs),
(1338,-201,o),
(1430,-164,o),
(1510,-110,c),
(1510,14,l),
(1407,-54,o),
(1306,-96,o),
(1210,-121,cs),
(1114,-146,o),
(1024,-155,o),
(945,-155,cs),
(851,-155,o),
(769,-145,o),
(693,-124,cs),
(541,-82,o),
(428,-8,o),
(346,96,cs),
(306,147,o),
(275,202,o),
(253,264,cs),
(208,387,o),
(202,523,o),
(232,668,cs),
(274,863,o),
(360,1003,o),
(482,1099,cs),
(605,1195,o),
(757,1242,o),
(935,1242,cs),
(1154,1242,o),
(1320,1163,o),
(1428,1031,cs),
(1535,899,o),
(1575,721,o),
(1535,516,cs),
(1518,432,o),
(1485,362,o),
(1441,313,cs),
(1396,263,o),
(1341,234,o),
(1284,234,cs),
(1236,234,o),
(1201,249,o),
(1180,282,cs),
(1159,315,o),
(1154,365,o),
(1169,439,cs),
(1178,479,ls),
(1214,646,o),
(1246,810,o),
(1279,962,c),
(1159,953,l),
(1134,852,l),
(1120,852,l),
(1093,886,o),
(1056,917,o),
(1013,939,cs),
(970,961,o),
(919,974,o),
(862,974,cs),
(769,974,o),
(689,937,o),
(623,873,cs),
(557,809,o),
(512,718,o),
(488,607,cs),
(463,486,o),
(475,371,o),
(523,284,cs),
(570,198,o),
(652,143,o),
(771,143,cs),
(815,143,o),
(862,154,o),
(909,176,cs),
(955,198,o),
(999,230,o),
(1032,276,c),
(1046,276,l),
(1057,239,o),
(1080,201,o),
(1120,172,cs),
(1159,144,o),
(1214,124,o),
(1293,124,cs),
(1353,124,o),
(1426,150,o),
(1494,210,cs),
(1562,269,o),
(1620,361,o),
(1645,494,cs),
(1660,572,o),
(1665,646,o),
(1658,720,cs),
(1646,865,o),
(1597,991,o),
(1510,1097,cs),
(1468,1149,o),
(1419,1193,o),
(1360,1231,cs),
(1244,1306,o),
(1105,1349,o),
(938,1349,cs),
(743,1349,o),
(566,1301,o),
(421,1190,cs),
(275,1080,o),
(169,919,o),
(122,689,cs),
(105,607,o),
(100,529,o),
(105,450,cs),
(116,291,o),
(167,152,o),
(261,31,c),
(308,-31,o),
(365,-80,o),
(431,-124,cs),
(565,-210,o),
(734,-262,o),
(945,-262,cs)
);
},
{
closed = 1;
nodes = (
(724,264,o),
(668,300,o),
(638,360,c),
(606,419,o),
(600,498,o),
(620,586,c),
(635,662,o),
(665,727,o),
(711,775,cs),
(756,821,o),
(815,849,o),
(889,849,cs),
(985,849,o),
(1050,807,o),
(1101,747,c),
(1031,411,l),
(973,309,o),
(888,264,o),
(804,264,cs)
);
}
);
width = 1764;
},
{
layerId = "8D116CAD-4DFA-4CD5-B105-D71FC4D96B49";
shapes = (
{
closed = 1;
nodes = (
(1036,-244,o),
(1134,-232,o),
(1234,-208,cs),
(1334,-183,o),
(1424,-146,o),
(1504,-90,c),
(1504,-16,l),
(1404,-84,o),
(1305,-125,o),
(1209,-150,cs),
(1113,-174,o),
(1021,-182,o),
(940,-182,cs),
(844,-182,o),
(760,-172,o),
(680,-149,cs),
(523,-105,o),
(405,-26,o),
(321,82,cs),
(280,135,o),
(248,192,o),
(225,256,cs),
(178,381,o),
(171,521,o),
(200,666,cs),
(244,877,o),
(339,1022,o),
(468,1118,cs),
(597,1214,o),
(754,1258,o),
(930,1258,cs),
(1158,1258,o),
(1330,1172,o),
(1442,1031,cs),
(1554,890,o),
(1595,704,o),
(1554,496,cs),
(1537,407,o),
(1500,330,o),
(1449,274,cs),
(1398,218,o),
(1337,186,o),
(1272,186,cs),
(1216,186,o),
(1177,201,o),
(1154,236,cs),
(1130,271,o),
(1125,324,o),
(1140,400,cs),
(1149,443,ls),
(1186,622,o),
(1221,795,o),
(1256,956,c),
(1198,950,l),
(1176,848,l),
(1166,848,l),
(1135,879,o),
(1096,909,o),
(1049,932,cs),
(1001,955,o),
(947,968,o),
(886,968,cs),
(793,968,o),
(710,935,o),
(642,871,cs),
(574,807,o),
(526,717,o),
(502,600,cs),
(477,483,o),
(487,369,o),
(535,285,cs),
(582,201,o),
(665,146,o),
(786,146,cs),
(830,146,o),
(881,157,o),
(930,180,cs),
(979,203,o),
(1026,234,o),
(1062,278,c),
(1072,278,l),
(1079,243,o),
(1094,205,o),
(1127,176,cs),
(1160,147,o),
(1210,126,o),
(1286,126,cs),
(1342,126,o),
(1409,152,o),
(1473,212,cs),
(1536,271,o),
(1590,359,o),
(1614,484,cs),
(1629,560,o),
(1634,632,o),
(1627,704,cs),
(1615,845,o),
(1569,968,o),
(1485,1072,cs),
(1444,1123,o),
(1396,1167,o),
(1340,1204,cs),
(1227,1277,o),
(1093,1320,o),
(932,1320,cs),
(740,1320,o),
(567,1272,o),
(426,1164,cs),
(285,1056,o),
(183,899,o),
(138,674,cs),
(123,597,o),
(118,523,o),
(123,447,cs),
(134,295,o),
(183,160,o),
(275,43,c),
(320,-17,o),
(375,-66,o),
(440,-109,cs),
(569,-193,o),
(735,-244,o),
(940,-244,cs)
);
},
{
closed = 1;
nodes = (
(694,206,o),
(626,247,o),
(587,319,cs),
(548,391,o),
(541,485,o),
(564,594,cs),
(583,683,o),
(618,761,o),
(674,817,cs),
(730,873,o),
(798,906,o),
(890,906,cs),
(1011,906,o),
(1091,854,o),
(1158,778,c),
(1076,388,l),
(1003,260,o),
(897,206,o),
(794,206,cs)
);
}
);
width = 1750;
}
);
leftKerningGroup = c;
rightKerningGroup = D;
unicode = 64;
}
{
glyphname = A;
layers = (
{
anchors = (
{
name = bottom;
position = "{750, 0}";
},
{
name = ogonek;
position = "{1478, 0}";
},
{
name = top;
position = "{750, 1426}";
},
{
name = topleft;
position = "{340, 1426}";
}
);
layerId = "33233A5A-37BF-4318-8FBD-C207E8A0D0D5";
shapes = (
{
closed = 1;
nodes = (
(514,0,l),
(542,133,o),
(574,283,o),
(602,416,cs),
(730,1020,l),
(762,1020,l),
(888,408,ls),
(901,344,o),
(915,279,o),
(930,208,cs),
(945,136,o),
(957,68,o),
(972,0,c),
(1478,0,l),
(1434,153,o),
(1385,322,o),
(1338,482,cs),
(1196,972,ls),
(1171,1057,o),
(1149,1133,o),
(1128,1206,cs),
(1107,1279,o),
(1087,1350,o),
(1064,1426,c),
(438,1426,l),
(417,1354,o),
(397,1285,o),
(376,1212,cs),
(355,1139,o),
(333,1061,o),
(306,972,cs),
(164,482,ls),
(143,406,o),
(118,325,o),
(94,241,cs),
(70,157,o),
(47,76,o),
(24,0,c)
);
},
{
closed = 1;
nodes = (
(1100,232,l),
(1054,592,l),
(510,592,l),
(454,232,l)
);
}
);
width = 1498;
},
{
anchors = (
{
name = bottom;
position = "{706, 0}";
},
{
name = ogonek;
position = "{1362, 0}";
},
{
name = top;
position = "{706, 1426}";
},
{
name = topleft;
position = "{286, 1426}";
}
);
layerId = "DDE9F572-ABA5-4A0A-A4FB-BFEA0CC6579C";
shapes = (
{
closed = 1;
nodes = (
(311,0,l),
(362,160,o),
(417,332,o),
(468,489,cs),
(695,1201,l),
(716,1201,l),
(942,481,ls),
(965,405,o),
(990,328,o),
(1017,244,cs),
(1044,160,o),
(1068,80,o),
(1093,0,c),
(1362,0,l),
(1310,153,o),
(1254,324,o),
(1198,481,cs),
(1031,972,ls),
(1002,1060,o),
(975,1136,o),
(950,1209,cs),
(925,1281,o),
(901,1350,o),
(876,1426,c),
(540,1426,l),
(515,1354,o),
(491,1284,o),
(466,1211,cs),
(441,1138,o),
(415,1060,o),
(384,972,cs),
(216,482,ls),
(189,406,o),
(161,325,o),
(133,242,cs),
(105,159,o),
(77,76,o),
(50,0,c)
);
},
{
closed = 1;
nodes = (
(1080,326,l),
(1059,523,l),
(382,523,l),
(356,326,l)
);
}
);
width = 1410;
},
{
anchors = (
{
name = bottom;
position = "{668, 0}";
},
{
name = ogonek;
position = "{1264, 0}";
},
{
name = top;
position = "{668, 1426}";
},
{
name = topleft;
position = "{241, 1426}";
}
);
layerId = "5D7E25E3-B3FF-498B-986D-FDCC95DA2522";
shapes = (
{
closed = 1;
nodes = (
(140,0,l),
(212,183,o),
(286,374,o),
(354,551,cs),
(666,1354,l),
(678,1354,l),
(988,544,ls),
(1020,459,o),
(1054,371,o),
(1091,276,cs),
(1127,180,o),
(1161,89,o),
(1196,0,c),
(1264,0,l),
(1204,153,o),
(1140,324,o),
(1080,481,cs),
(892,972,ls),
(859,1060,o),
(829,1138,o),
(801,1211,cs),
(773,1283,o),
(746,1353,o),
(718,1426,c),
(626,1426,l),
(598,1354,o),
(571,1284,o),
(543,1211,cs),
(514,1138,o),
(485,1061,o),
(450,973,cs),
(260,484,ls),
(231,407,o),
(198,326,o),
(166,242,cs),
(134,158,o),
(103,77,o),
(72,0,c)
);
},
{
closed = 1;
nodes = (
(1064,406,l),
(1064,466,l),
(274,466,l),
(274,406,l)
);
}
);
width = 1336;
}
);
leftKerningGroup = A2;
rightKerningGroup = A;
unicode = 65;
}
{
glyphname = B;
layers = (
{
layerId = "3741C398-C536-4E04-9B31-DF775DED3426";
shapes = (
{
closed = 1;
nodes = (
(654,0,ls),
(922,0,o),
(1088,40,o),
(1187,109,cs),
(1286,180,o),
(1318,281,o),
(1318,408,cs),
(1318,508,o),
(1295,582,o),
(1244,638,cs),
(1193,694,o),
(1120,729,o),
(1020,752,c),
(1020,784,l),
(1097,800,o),
(1165,834,o),
(1213,890,cs),
(1261,946,o),
(1290,1016,o),
(1290,1108,cs),
(1290,1200,o),
(1263,1280,o),
(1179,1336,cs),
(1095,1392,o),
(954,1426,o),
(726,1426,cs),
(92,1426,l),
(92,948,l),
(92,458,l),
(92,0,l)
);
},
{
closed = 1;
nodes = (
(574,334,l),
(574,564,l),
(574,844,l),
(574,1100,l),
(688,1100,ls),
(759,1100,o),
(786,1050,o),
(786,978,cs),
(786,938,o),
(775,910,o),
(756,891,cs),
(736,872,o),
(709,864,o),
(676,864,cs),
(456,864,l),
(456,566,l),
(704,566,ls),
(741,566,o),
(768,554,o),
(785,534,cs),
(802,514,o),
(810,485,o),
(810,450,cs),
(810,409,o),
(799,380,o),
(780,361,cs),
(761,342,o),
(734,334,o),
(702,334,cs)
);
}
);
width = 1362;
},
{
layerId = "32AC1926-81FC-462E-AFF9-9B08428E2569";
shapes = (
{
closed = 1;
nodes = (
(635,0,ls),
(870,0,o),
(1019,43,o),
(1111,112,c),
(1202,183,o),
(1235,280,o),
(1235,396,cs),
(1235,504,o),
(1202,580,o),
(1150,636,cs),
(1098,692,o),
(1025,721,o),
(945,738,c),
(945,760,l),
(1018,780,o),
(1081,818,o),
(1128,874,cs),
(1175,930,o),
(1201,1002,o),
(1201,1094,cs),
(1201,1195,o),
(1169,1276,o),
(1093,1336,cs),
(1016,1395,o),
(894,1426,o),
(713,1426,cs),
(161,1426,l),
(161,950,l),
(161,468,l),
(161,0,l)
);
},
{
closed = 1;
nodes = (
(415,210,l),
(415,524,l),
(415,890,l),
(415,1216,l),
(693,1216,ls),
(853,1216,o),
(933,1155,o),
(933,1028,cs),
(933,971,o),
(913,920,o),
(870,881,cs),
(827,842,o),
(763,820,o),
(671,820,cs),
(355,820,l),
(355,618,l),
(679,618,ls),
(771,618,o),
(843,603,o),
(892,571,cs),
(941,538,o),
(967,490,o),
(967,418,cs),
(967,353,o),
(946,300,o),
(895,265,cs),
(844,229,o),
(770,210,o),
(657,210,cs)
);
}
);
width = 1308;
},
{
layerId = "608C4FA3-96E7-4DF2-B0AE-105347578AB3";
shapes = (
{
closed = 1;
nodes = (
(629,0,ls),
(853,0,o),
(997,44,o),
(1086,113,c),
(1176,184,o),
(1208,280,o),
(1208,392,cs),
(1208,504,o),
(1173,579,o),
(1120,635,cs),
(1066,691,o),
(994,719,o),
(921,733,c),
(921,751,l),
(992,773,o),
(1054,812,o),
(1100,869,cs),
(1145,927,o),
(1171,998,o),
(1171,1090,cs),
(1171,1194,o),
(1139,1276,o),
(1065,1336,cs),
(991,1395,o),
(875,1426,o),
(709,1426,cs),
(185,1426,l),
(185,950,l),
(185,471,l),
(185,0,l)
);
},
{
closed = 1;
nodes = (
(363,151,l),
(363,505,l),
(363,914,l),
(363,1275,l),
(696,1275,ls),
(886,1275,o),
(984,1207,o),
(984,1050,cs),
(984,983,o),
(961,919,o),
(910,871,cs),
(859,824,o),
(782,794,o),
(671,794,cs),
(322,794,l),
(322,649,l),
(671,649,ls),
(783,649,o),
(869,632,o),
(929,593,cs),
(989,554,o),
(1021,494,o),
(1021,405,cs),
(1021,326,o),
(996,262,o),
(935,219,cs),
(874,175,o),
(782,151,o),
(643,151,cs)
);
}
);
width = 1291;
},
{
layerId = "5E854513-9682-4163-9876-812542B08F08";
shapes = (
{
closed = 1;
nodes = (
(620,0,ls),
(827,0,o),
(964,45,o),
(1049,114,cs),
(1136,185,o),
(1168,281,o),
(1168,386,cs),
(1168,503,o),
(1130,578,o),
(1074,634,cs),
(1018,690,o),
(948,715,o),
(884,726,c),
(884,738,l),
(953,763,o),
(1013,802,o),
(1057,862,cs),
(1100,922,o),
(1126,992,o),
(1126,1084,cs),
(1126,1192,o),
(1094,1276,o),
(1022,1336,cs),
(953,1395,o),
(847,1426,o),
(704,1426,cs),
(220,1426,l),
(220,950,l),
(220,476,l),
(220,0,l)
);
},
{
closed = 1;
nodes = (
(284,62,l),
(284,476,l),
(284,950,l),
(284,1364,l),
(700,1364,ls),
(936,1364,o),
(1060,1284,o),
(1060,1084,cs),
(1060,1000,o),
(1034,918,o),
(970,857,cs),
(906,796,o),
(811,756,o),
(670,756,cs),
(272,756,l),
(272,696,l),
(660,696,ls),
(801,696,o),
(909,675,o),
(985,626,cs),
(1061,577,o),
(1102,499,o),
(1102,386,cs),
(1102,286,o),
(1070,206,o),
(994,150,cs),
(918,94,o),
(801,62,o),
(622,62,cs)
);
}
);
width = 1266;
}
);
leftKerningGroup = B;
unicode = 66;
}
{
glyphname = C;
layers = (
{
layerId = "D4F413C4-7636-4268-82C2-B87F29C22812";
name = "#instance";
shapes = (
{
closed = 1;
nodes = (
(908,-32,o),
(994,-25,o),
(1074,-12,cs),
(1154,1,o),
(1227,22,o),
(1284,50,c),
(1262,494,l),
(1133,394,o),
(1008,364,o),
(896,364,cs),
(779,364,o),
(697,405,o),
(641,469,cs),
(585,533,o),
(560,618,o),
(560,710,cs),
(560,827,o),
(591,910,o),
(647,966,cs),
(703,1022,o),
(775,1048,o),
(860,1048,cs),
(968,1048,o),
(1099,1010,o),
(1256,906,c),
(1290,1356,l),
(1229,1387,o),
(1151,1411,o),
(1066,1430,cs),
(981,1449,o),
(889,1458,o),
(800,1458,cs),
(551,1458,o),
(367,1379,o),
(239,1243,cs),
(111,1107,o),
(48,924,o),
(48,708,cs),
(48,476,o),
(122,295,o),
(258,166,cs),
(394,37,o),
(584,-32,o),
(824,-32,cs)
);
}
);
width = 1364;
},
{
layerId = "7B7025DB-32D1-45E9-B8AD-2A1739A26F17";
shapes = (
{
closed = 1;
nodes = (
(908,-32,o),
(994,-25,o),
(1074,-12,cs),
(1154,1,o),
(1227,22,o),
(1284,50,c),
(1262,494,l),
(1133,394,o),
(1008,364,o),
(896,364,cs),
(779,364,o),
(697,405,o),
(641,469,cs),
(585,533,o),
(560,618,o),
(560,710,cs),
(560,827,o),
(591,910,o),
(647,966,cs),
(703,1022,o),
(775,1048,o),
(860,1048,cs),
(968,1048,o),
(1099,1010,o),
(1256,906,c),
(1290,1356,l),
(1229,1387,o),
(1151,1411,o),
(1066,1430,cs),
(981,1449,o),
(889,1458,o),
(800,1458,cs),
(551,1458,o),
(367,1379,o),
(239,1243,cs),
(111,1107,o),
(48,924,o),
(48,708,cs),
(48,476,o),
(122,295,o),
(258,166,cs),
(394,37,o),
(584,-32,o),
(824,-32,cs)
);
}
);
width = 1364;
},
{
layerId = "E0D3637C-DFAE-46FE-ABBC-43C2FC0937C6";
shapes = (
{
closed = 1;
nodes = (
(909,-24,o),
(987,-17,o),
(1063,-1,cs),
(1139,16,o),
(1208,41,o),
(1265,74,c),
(1249,315,l),
(1124,224,o),
(989,193,o),
(860,193,cs),
(689,193,o),
(567,251,o),
(483,347,cs),
(399,443,o),
(357,572,o),
(357,713,cs),
(357,878,o),
(406,1005,o),
(490,1094,cs),
(574,1182,o),
(692,1230,o),
(829,1230,cs),
(958,1230,o),
(1095,1194,o),
(1252,1098,c),
(1273,1342,l),
(1221,1370,o),
(1149,1398,o),
(1069,1419,cs),
(988,1440,o),
(896,1454,o),
(803,1454,cs),
(580,1454,o),
(405,1379,o),
(280,1246,cs),
(155,1113,o),
(87,932,o),
(87,713,cs),
(87,494,o),
(157,315,o),
(286,183,cs),
(415,51,o),
(597,-24,o),
(829,-24,cs)
);
}
);
width = 1368;
},
{
layerId = "92B4EA3D-FB5D-4A4F-93D4-532A379F7211";
shapes = (
{
closed = 1;
nodes = (
(910,-18,o),
(984,-10,o),
(1056,9,cs),
(1128,28,o),
(1194,55,o),
(1250,94,c),
(1238,164,l),
(1118,80,o),
(974,48,o),
(830,48,cs),
(617,48,o),
(458,123,o),
(350,244,cs),
(242,365,o),
(186,528,o),
(186,716,cs),
(186,921,o),
(250,1085,o),
(359,1202,cs),
(468,1319,o),
(620,1384,o),
(804,1384,cs),
(949,1384,o),
(1093,1348,o),
(1250,1260,c),
(1260,1330,l),
(1215,1357,o),
(1151,1386,o),
(1071,1410,cs),
(991,1433,o),
(902,1450,o),
(806,1450,cs),
(607,1450,o),
(441,1376,o),
(316,1247,cs),
(191,1118,o),
(120,938,o),
(120,718,cs),
(120,510,o),
(186,329,o),
(311,196,cs),
(436,63,o),
(610,-18,o),
(834,-18,cs)
);
}
);
width = 1372;
}
);
leftKerningGroup = C2;
rightKerningGroup = C;
unicode = 67;
}
{
glyphname = D;
layers = (
{
anchors = (
{
name = bottom;
position = "{710, 0}";
},
{
name = center;
position = "{730, 714}";
},
{
name = top;
position = "{710, 1426}";
}
);
layerId = "6CD39112-DB7C-4870-A72A-3B89CF7BEC2F";
shapes = (
{
closed = 1;
nodes = (
(92,0,l),
(638,0,ls),
(926,0,o),
(1120,78,o),
(1241,207,cs),
(1362,336,o),
(1412,512,o),
(1412,716,cs),
(1412,948,o),
(1350,1122,o),
(1233,1243,cs),
(1116,1364,o),
(949,1426,o),
(732,1426,cs),
(92,1426,l),
(92,948,l),
(92,458,l)
);
},
{
closed = 1;
nodes = (
(584,386,l),
(584,586,l),
(584,824,l),
(584,1040,l),
(646,1040,ls),
(738,1040,o),
(800,1008,o),
(841,952,cs),
(881,896,o),
(900,818,o),
(900,722,cs),
(900,625,o),
(884,541,o),
(843,481,cs),
(800,421,o),
(735,386,o),
(636,386,cs)
);
}
);
width = 1460;
},
{
anchors = (
{
name = bottom;
position = "{706, 0}";
},
{
name = center;
position = "{734, 714}";
},
{
name = top;
position = "{706, 1426}";
}
);
layerId = "068B454A-8861-4901-9D12-7077DFDCE54C";
shapes = (
{
closed = 1;
nodes = (
(161,0,l),
(634,0,ls),
(909,0,o),
(1096,79,o),
(1215,208,cs),
(1336,337,o),
(1383,514,o),
(1383,718,cs),
(1383,945,o),
(1321,1120,o),
(1204,1241,cs),
(1087,1362,o),
(918,1426,o),
(697,1426,cs),
(161,1426,l),
(161,949,l),
(161,468,l)
);
},
{
closed = 1;
nodes = (
(421,210,l),
(421,526,l),
(421,892,l),
(421,1216,l),
(652,1216,ls),
(813,1216,o),
(927,1169,o),
(1003,1081,cs),
(1079,993,o),
(1113,871,o),
(1113,722,cs),
(1113,573,o),
(1083,449,o),
(1007,357,cs),
(931,265,o),
(811,210,o),
(634,210,cs)
);
}
);
width = 1470;
},
{
anchors = (
{
name = bottom;
position = "{703, 0}";
},
{
name = center;
position = "{738, 714}";
},
{
name = top;
position = "{703, 1426}";
}
);
layerId = "530C47E7-7F98-4E49-946D-E245391E2E52";
shapes = (
{
closed = 1;
nodes = (
(188,0,l),
(632,0,ls),
(902,0,o),
(1087,80,o),
(1205,209,cs),
(1324,339,o),
(1372,515,o),
(1372,719,cs),
(1372,944,o),
(1310,1119,o),
(1193,1240,cs),
(1076,1361,o),
(907,1426,o),
(684,1426,cs),
(188,1426,l),
(188,949,l),
(188,472,l)
);
},
{
closed = 1;
nodes = (
(359,143,l),
(359,504,l),
(359,918,l),
(359,1283,l),
(655,1283,ls),
(843,1283,o),
(976,1229,o),
(1064,1130,cs),
(1153,1030,o),
(1194,893,o),
(1194,722,cs),
(1194,554,o),
(1158,414,o),
(1069,310,cs),
(981,207,o),
(840,143,o),
(633,143,cs)
);
}
);
width = 1474;
},
{
anchors = (
{
name = bottom;
position = "{700, 0}";
},
{
name = center;
position = "{740, 714}";
},
{
name = top;
position = "{700, 1426}";
}
);
layerId = "17616679-9B94-41DB-9F8F-857BF431B8D7";
shapes = (
{
closed = 1;
nodes = (
(220,0,l),
(630,0,ls),
(894,0,o),
(1076,81,o),
(1192,210,cs),
(1309,342,o),
(1358,516,o),
(1358,720,cs),
(1358,943,o),
(1297,1117,o),
(1180,1238,cs),
(1063,1359,o),
(893,1426,o),
(668,1426,cs),
(220,1426,l),
(220,950,l),
(220,476,l)
);
},
{
closed = 1;
nodes = (
(284,62,l),
(284,476,l),
(284,950,l),
(284,1364,l),
(658,1364,ls),
(879,1364,o),
(1035,1302,o),
(1139,1189,cs),
(1243,1076,o),
(1292,919,o),
(1292,722,cs),
(1292,531,o),
(1249,372,o),
(1145,252,cs),
(1041,135,o),
(876,62,o),
(632,62,cs)
);
}
);
width = 1478;
}
);
leftKerningGroup = B;
rightKerningGroup = D;
unicode = 68;
}
{
glyphname = E;
layers = (
{
layerId = "70396C8E-6CDB-42F9-9328-A9E72BA9B704";
shapes = (
{
closed = 1;
nodes = (
(1120,0,l),
(1120,386,l),
(734,386,l),
(420,386,l),
(572,80,l),
(572,538,l),
(572,868,l),
(572,1346,l),
(388,1040,l),
(702,1040,l),
(1106,1040,l),
(1106,1426,l),
(92,1426,l),
(92,948,l),
(92,458,l),
(92,0,l)
);
},
{
closed = 1;
nodes = (
(702,542,l),
(1084,542,l),
(1084,886,l),
(702,886,l),
(458,886,l),
(458,542,l)
);
}
);
width = 1200;
},
{
layerId = "3EF77CA0-AC37-45E2-BAEE-C9E0CE64A2A3";
shapes = (
{
closed = 1;
nodes = (
(1085,0,l),
(1085,218,l),
(635,218,l),
(285,218,l),
(415,40,l),
(415,508,l),
(415,910,l),
(415,1386,l),
(269,1208,l),
(615,1208,l),
(1079,1208,l),
(1079,1426,l),
(161,1426,l),
(161,950,l),
(161,468,l),
(161,0,l)
);
},
{
closed = 1;
nodes = (
(625,616,l),
(1043,616,l),
(1043,826,l),
(625,826,l),
(357,826,l),
(357,616,l)
);
}
);
width = 1190;
},
{
layerId = "24538CAD-4802-43D5-ADA8-22A032C706C3";
shapes = (
{
closed = 1;
nodes = (
(1072,0,l),
(1072,148,l),
(598,148,l),
(270,148,l),
(356,26,l),
(356,497,l),
(356,925,l),
(356,1401,l),
(261,1278,l),
(583,1278,l),
(1070,1278,l),
(1070,1426,l),
(188,1426,l),
(188,950,l),
(188,472,l),
(188,0,l)
);
},
{
closed = 1;
nodes = (
(596,651,l),
(1029,651,l),
(1029,795,l),
(597,795,l),
(319,795,l),
(319,651,l)
);
}
);
width = 1186;
},
{
layerId = "8D116CAD-4DFA-4CD5-B105-D71FC4D96B49";
shapes = (
{
closed = 1;
nodes = (
(1056,0,l),
(1056,62,l),
(552,62,l),
(252,62,l),
(284,8,l),
(284,484,l),
(284,944,l),
(284,1420,l),
(252,1364,l),
(544,1364,l),
(1058,1364,l),
(1058,1426,l),
(220,1426,l),
(220,950,l),
(220,476,l),
(220,0,l)
);
},
{
closed = 1;
nodes = (
(560,694,l),
(1012,694,l),
(1012,756,l),
(562,756,l),
(272,756,l),
(272,694,l)
);
}
);
width = 1182;
}
);
leftKerningGroup = B;
rightKerningGroup = E;
unicode = 69;
}
{
glyphname = F;
layers = (
{
layerId = "01881FF6-28F4-4241-92CC-0A260EF73B3D";
shapes = (
{
closed = 1;
nodes = (
(572,0,l),
(572,458,l),
(572,868,l),
(572,1346,l),
(378,1022,l),
(692,1022,l),
(1096,1022,l),
(1096,1426,l),
(92,1426,l),
(92,948,l),
(92,458,l),
(92,0,l)
);
},
{
closed = 1;
nodes = (
(690,490,l),
(1072,490,l),
(1072,876,l),
(690,876,l),
(446,876,l),
(446,490,l)
);
}
);
width = 1162;
},
{
layerId = "A55F0C2B-6E8D-4FB2-8CDB-992FDB8C8E10";
shapes = (
{
closed = 1;
nodes = (
(415,0,l),
(415,468,l),
(415,909,l),
(415,1386,l),
(309,1207,l),
(600,1207,l),
(1064,1207,l),
(1064,1426,l),
(161,1426,l),
(161,949,l),
(161,468,l),
(161,0,l)
);
},
{
closed = 1;
nodes = (
(608,601,l),
(1028,601,l),
(1028,811,l),
(609,811,l),
(351,811,l),
(351,601,l)
);
}
);
width = 1151;
},
{
layerId = "18A54BDD-310B-488C-A032-20C0CCB5659F";
shapes = (
{
closed = 1;
nodes = (
(356,0,l),
(356,472,l),
(356,925,l),
(356,1401,l),
(283,1278,l),
(566,1278,l),
(1052,1278,l),
(1052,1426,l),
(188,1426,l),
(188,949,l),
(188,472,l),
(188,0,l)
);
},
{
closed = 1;
nodes = (
(577,643,l),
(1012,643,l),
(1012,786,l),
(579,786,l),
(315,786,l),
(315,643,l)
);
}
);
width = 1147;
},
{
layerId = "42B9E918-1EE0-49C2-B7C8-A26B802712C7";
shapes = (
{
closed = 1;
nodes = (
(284,0,l),
(284,476,l),
(284,944,l),
(284,1420,l),
(252,1364,l),
(524,1364,l),
(1038,1364,l),
(1038,1426,l),
(220,1426,l),
(220,950,l),
(220,476,l),
(220,0,l)
);
},
{
closed = 1;
nodes = (
(540,694,l),
(992,694,l),
(992,756,l),
(542,756,l),
(272,756,l),
(272,694,l)
);
}
);
width = 1142;
}
);
leftKerningGroup = B;
unicode = 70;
}
{
glyphname = G;
layers = (
{
layerId = "3741C398-C536-4E04-9B31-DF775DED3426";
shapes = (
{
closed = 1;
nodes = (
(936,-30,o),
(1044,-22,o),
(1140,-10,cs),
(1236,2,o),
(1314,19,o),
(1358,36,c),
(1300,462,l),
(1231,425,o),
(1170,399,o),
(1102,380,cs),
(1034,361,o),
(966,354,o),
(874,354,cs),
(769,354,o),
(688,396,o),
(636,461,cs),
(583,525,o),
(556,615,o),
(556,708,cs),
(556,829,o),
(593,912,o),
(650,968,cs),
(707,1024,o),
(784,1048,o),
(868,1048,cs),
(981,1048,o),
(1128,1006,o),
(1304,906,c),
(1338,1354,l),
(1277,1382,o),
(1199,1408,o),
(1111,1427,cs),
(1023,1446,o),
(926,1458,o),
(826,1458,cs),
(573,1458,o),
(382,1383,o),
(249,1250,cs),
(116,1117,o),
(48,934,o),
(48,710,cs),
(48,487,o),
(120,308,o),
(256,176,cs),
(391,45,o),
(584,-30,o),
(828,-30,cs)
);
},
{
closed = 1;
nodes = (
(1358,36,l),
(1358,855,l),
(732,855,l),
(732,539,l),
(900,539,l),
(900,26,l)
);
}
);
width = 1450;
},
{
layerId = "32AC1926-81FC-462E-AFF9-9B08428E2569";
shapes = (
{
closed = 1;
nodes = (
(950,-24,o),
(1046,-15,o),
(1134,0,cs),
(1222,15,o),
(1292,34,o),
(1337,54,c),
(1304,306,l),
(1236,269,o),
(1170,243,o),
(1098,227,cs),
(1026,210,o),
(953,202,o),
(873,202,cs),
(700,202,o),
(578,259,o),
(495,352,cs),
(411,444,o),
(373,572,o),
(373,713,cs),
(373,874,o),
(423,999,o),
(507,1084,cs),
(591,1169,o),
(706,1214,o),
(843,1214,cs),
(976,1214,o),
(1121,1177,o),
(1292,1081,c),
(1314,1342,l),
(1258,1369,o),
(1186,1397,o),
(1102,1418,cs),
(1017,1439,o),
(921,1454,o),
(821,1454,cs),
(589,1454,o),
(410,1380,o),
(281,1247,cs),
(152,1114,o),
(84,934,o),
(84,714,cs),
(84,498,o),
(151,319,o),
(283,186,cs),
(414,53,o),
(603,-24,o),
(850,-24,cs)
);
},
{
closed = 1;
nodes = (
(1337,54,l),
(1337,830,l),
(695,830,l),
(695,600,l),
(1074,600,l),
(1074,49,l)
);
}
);
width = 1461;
},
{
layerId = "608C4FA3-96E7-4DF2-B0AE-105347578AB3";
shapes = (
{
closed = 1;
nodes = (
(956,-22,o),
(1048,-12,o),
(1131,5,cs),
(1214,21,o),
(1283,42,o),
(1329,62,c),
(1306,243,l),
(1239,206,o),
(1170,181,o),
(1096,165,cs),
(1022,148,o),
(948,140,o),
(873,140,cs),
(673,140,o),
(532,203,o),
(437,308,cs),
(341,411,o),
(298,554,o),
(298,715,cs),
(298,894,o),
(353,1034,o),
(448,1132,cs),
(544,1229,o),
(674,1282,o),
(832,1282,cs),
(973,1282,o),
(1119,1245,o),
(1287,1153,c),
(1304,1337,l),
(1252,1364,o),
(1182,1393,o),
(1098,1415,cs),
(1014,1437,o),
(919,1452,o),
(819,1452,cs),
(597,1452,o),
(421,1378,o),
(294,1246,cs),
(167,1113,o),
(98,934,o),
(98,716,cs),
(98,503,o),
(163,323,o),
(294,190,cs),
(423,57,o),
(610,-22,o),
(859,-22,cs)
);
},
{
closed = 1;
nodes = (
(1329,62,l),
(1329,792,l),
(679,792,l),
(679,630,l),
(1145,630,l),
(1145,59,l)
);
}
);
width = 1465;
},
{
layerId = "5E854513-9682-4163-9876-812542B08F08";
shapes = (
{
closed = 1;
nodes = (
(964,-18,o),
(1050,-7,o),
(1127,12,cs),
(1203,31,o),
(1269,53,o),
(1316,74,c),
(1308,148,l),
(1243,112,o),
(1169,87,o),
(1093,71,cs),
(1017,55,o),
(941,48,o),
(872,48,cs),
(632,48,o),
(463,120,o),
(350,241,cs),
(237,362,o),
(186,526,o),
(186,718,cs),
(186,923,o),
(247,1086,o),
(360,1203,cs),
(473,1320,o),
(625,1384,o),
(816,1384,cs),
(969,1384,o),
(1115,1348,o),
(1280,1260,c),
(1290,1330,l),
(1243,1357,o),
(1177,1386,o),
(1093,1410,cs),
(1009,1433,o),
(916,1450,o),
(816,1450,cs),
(608,1450,o),
(438,1376,o),
(314,1244,cs),
(190,1112,o),
(120,934,o),
(120,718,cs),
(120,510,o),
(182,329,o),
(310,196,cs),
(437,63,o),
(621,-18,o),
(872,-18,cs)
);
},
{
closed = 1;
nodes = (
(1316,74,l),
(1316,736,l),
(656,736,l),
(656,674,l),
(1252,674,l),
(1252,74,l)
);
}
);
width = 1472;
}
);
leftKerningGroup = C2;
rightKerningGroup = G;
unicode = 71;
}
{
glyphname = H;
layers = (
{
layerId = "70396C8E-6CDB-42F9-9328-A9E72BA9B704";
shapes = (
{
closed = 1;
nodes = (
(1410,0,l),
(1410,458,l),
(1410,948,l),
(1410,1426,l),
(918,1426,l),
(918,948,l),
(918,458,l),
(918,0,l)
);
},
{
closed = 1;
nodes = (
(584,0,l),
(584,458,l),
(584,948,l),
(584,1426,l),
(92,1426,l),
(92,948,l),
(92,458,l),
(92,0,l)
);
},
{
closed = 1;
nodes = (
(1044,512,l),
(1044,916,l),
(464,916,l),
(464,512,l)
);
}
);
width = 1502;
},
{
layerId = "3EF77CA0-AC37-45E2-BAEE-C9E0CE64A2A3";
shapes = (
{
closed = 1;
nodes = (
(1338,0,l),
(1338,468,l),
(1338,950,l),
(1338,1427,l),
(1078,1427,l),
(1078,950,l),
(1078,468,l),
(1078,0,l)
);
},
{
closed = 1;
nodes = (
(421,0,l),
(421,468,l),
(421,950,l),
(421,1427,l),
(161,1427,l),
(161,950,l),
(161,468,l),
(161,0,l)
);
},
{
closed = 1;
nodes = (
(1162,611,l),
(1162,830,l),
(343,830,l),
(343,611,l)
);
}
);
width = 1500;
},
{
layerId = "24538CAD-4802-43D5-ADA8-22A032C706C3";
shapes = (
{
closed = 1;
nodes = (
(1311,0,l),
(1311,472,l),
(1311,950,l),
(1311,1427,l),
(1139,1427,l),
(1139,950,l),
(1139,472,l),
(1139,0,l)
);
},
{
closed = 1;
nodes = (
(359,0,l),
(359,472,l),
(359,950,l),
(359,1427,l),
(188,1427,l),
(188,950,l),
(188,472,l),
(188,0,l)
);
},
{
closed = 1;
nodes = (
(1207,648,l),
(1207,797,l),
(298,797,l),
(298,648,l)
);
}
);
width = 1499;
},
{
layerId = "8D116CAD-4DFA-4CD5-B105-D71FC4D96B49";
shapes = (
{
closed = 1;
nodes = (
(1278,0,l),
(1278,476,l),
(1278,950,l),
(1278,1426,l),
(1214,1426,l),
(1214,950,l),
(1214,476,l),
(1214,0,l)
);
},
{
closed = 1;
nodes = (
(284,0,l),
(284,476,l),
(284,950,l),
(284,1426,l),
(220,1426,l),
(220,950,l),
(220,476,l),
(220,0,l)
);
},
{
closed = 1;
nodes = (
(1262,694,l),
(1262,756,l),
(242,756,l),
(242,694,l)
);
}
);
width = 1498;
}
);
leftKerningGroup = B;
rightKerningGroup = H;
unicode = 72;
}
{
glyphname = I;
layers = (
{
anchors = (
{
name = bottom;
position = "{344, 0}";
},
{
name = ogonek;
position = "{604, 0}";
},
{
name = top;
position = "{344, 1426}";
},
{
name = topleft;
position = "{90, 1426}";
}
);
layerId = "DBFEB7CD-EA6A-4398-9607-E41666997EF2";
shapes = (
{
closed = 1;
nodes = (
(604,0,l),
(604,458,l),
(604,948,l),
(604,1426,l),
(102,1426,l),
(102,948,l),
(102,458,l),
(102,0,l)
);
}
);
width = 706;
},
{
anchors = (
{
name = bottom;
position = "{294, 0}";
},
{
name = ogonek;
position = "{431, 0}";
},
{
name = top;
position = "{294, 1426}";
},
{
name = topleft;
position = "{52, 1426}";
}
);
layerId = "38EDA6ED-2D3B-4EB9-8093-529BF0DC7182";
shapes = (
{
closed = 1;
nodes = (
(431,0,l),
(431,468,l),
(431,949,l),
(431,1426,l),
(166,1426,l),
(166,949,l),
(166,468,l),
(166,0,l)
);
}
);
width = 596;
},
{
anchors = (
{
name = bottom;
position = "{252, 0}";
},
{
name = ogonek;
position = "{284, 0}";
},
{
name = top;
position = "{252, 1426}";
},
{
name = topleft;
position = "{20, 1426}";
}
);
layerId = "5813D18E-CE46-47D4-BE44-DF651A6D3020";
shapes = (
{
closed = 1;
nodes = (
(284,0,l),
(284,476,l),
(284,950,l),
(284,1426,l),
(220,1426,l),
(220,950,l),
(220,476,l),
(220,0,l)
);
}
);
width = 504;
}
);
leftKerningGroup = B;
rightKerningGroup = H;
unicode = 73;
}
{
glyphname = J;
layers = (
{
layerId = "3741C398-C536-4E04-9B31-DF775DED3426";
shapes = (
{
closed = 1;
nodes = (
(466,-30,o),
(575,-11,o),
(659,53,cs),
(742,117,o),
(797,222,o),
(797,398,cs),
(800,1426,l),
(298,1426,l),
(296,460,ls),
(296,429,o),
(289,408,o),
(274,395,cs),
(259,382,o),
(238,376,o),
(210,376,cs),
(166,376,o),
(114,390,o),
(62,410,c),
(30,8,l),
(53,-1,o),
(105,-10,o),
(166,-18,cs),
(227,-25,o),
(296,-30,o),
(353,-30,cs)
);
}
);
width = 902;
},
{
layerId = "32AC1926-81FC-462E-AFF9-9B08428E2569";
shapes = (
{
closed = 1;
nodes = (
(383,-24,o),
(479,-4,o),
(551,56,cs),
(622,115,o),
(667,212,o),
(667,364,cs),
(669,1426,l),
(403,1426,l),
(402,391,ls),
(402,299,o),
(385,251,o),
(350,227,cs),
(315,202,o),
(268,200,o),
(204,200,cs),
(153,200,o),
(105,209,o),
(58,228,c),
(38,6,l),
(59,-2,o),
(98,-10,o),
(142,-15,cs),
(186,-20,o),
(236,-24,o),
(279,-24,cs)
);
}
);
width = 830;
},
{
layerId = "608C4FA3-96E7-4DF2-B0AE-105347578AB3";
shapes = (
{
closed = 1;
nodes = (
(348,-22,o),
(439,-1,o),
(506,57,cs),
(572,115,o),
(614,207,o),
(614,350,c),
(615,1426,l),
(430,1426,l),
(429,366,l),
(429,274,o),
(411,217,o),
(373,183,cs),
(334,149,o),
(279,138,o),
(202,138,cs),
(149,138,o),
(101,147,o),
(56,164,c),
(41,5,l),
(61,-2,o),
(95,-9,o),
(132,-14,c),
(170,-18,o),
(211,-22,o),
(248,-22,cs)
);
}
);
width = 800;
},
{
layerId = "5E854513-9682-4163-9876-812542B08F08";
shapes = (
{
closed = 1;
nodes = (
(295,-18,o),
(378,3,o),
(438,59,cs),
(498,114,o),
(534,200,o),
(534,328,cs),
(534,1426,l),
(470,1426,l),
(470,328,ls),
(470,236,o),
(451,165,o),
(407,118,cs),
(363,70,o),
(295,46,o),
(198,46,cs),
(142,46,o),
(94,53,o),
(54,68,c),
(46,4,l),
(65,-3,o),
(90,-8,o),
(118,-12,cs),
(145,-16,o),
(174,-18,o),
(202,-18,cs)
);
}
);
width = 754;
}
);
leftKerningGroup = B;
rightKerningGroup = H;
unicode = 74;
}
{
glyphname = K;
layers = (
{
layerId = "3741C398-C536-4E04-9B31-DF775DED3426";
shapes = (
{
closed = 1;
nodes = (
(1442,0,l),
(1405,68,o),
(1355,160,o),
(1303,256,cs),
(1250,352,o),
(1195,453,o),
(1148,538,cs),
(944,912,l),
(954,696,l),
(1138,981,ls),
(1235,1133,o),
(1329,1274,o),
(1426,1426,c),
(874,1426,l),
(843,1365,o),
(817,1312,o),
(793,1264,cs),
(769,1216,o),
(747,1173,o),
(724,1126,cs),
(628,934,l),
(550,934,l),
(550,556,l),
(636,556,l),
(734,313,ls),
(774,214,o),
(815,115,o),
(860,0,c)
);
},
{
closed = 1;
nodes = (
(582,0,l),
(582,458,l),
(582,948,l),
(582,1426,l),
(92,1426,l),
(92,948,l),
(92,458,l),
(92,0,l)
);
}
);
width = 1458;
},
{
layerId = "32AC1926-81FC-462E-AFF9-9B08428E2569";
shapes = (
{
closed = 1;
nodes = (
(1322,0,l),
(1270,64,o),
(1205,145,o),
(1133,233,cs),
(1061,321,o),
(991,410,o),
(927,487,cs),
(656,823,l),
(661,709,l),
(904,986,ls),
(1033,1134,o),
(1157,1273,o),
(1293,1426,c),
(989,1426,l),
(928,1354,o),
(876,1294,o),
(828,1238,cs),
(780,1182,o),
(735,1131,o),
(688,1075,cs),
(489,843,l),
(397,843,l),
(397,636,l),
(491,636,l),
(718,356,ls),
(807,245,o),
(898,132,o),
(1005,0,c)
);
},
{
closed = 1;
nodes = (
(420,0,l),
(420,468,l),
(420,949,l),
(420,1426,l),
(161,1426,l),
(161,949,l),
(161,468,l),
(161,0,l)
);
}
);
width = 1371;
},
{
layerId = "608C4FA3-96E7-4DF2-B0AE-105347578AB3";
shapes = (
{
closed = 1;
nodes = (
(1282,0,l),
(1225,62,o),
(1153,141,o),
(1076,225,cs),
(999,310,o),
(921,395,o),
(853,470,cs),
(559,793,l),
(562,713,l),
(826,988,ls),
(965,1134,o),
(1100,1273,o),
(1249,1426,c),
(1028,1426,l),
(956,1351,o),
(896,1288,o),
(840,1229,cs),
(784,1170,o),
(732,1117,o),
(676,1057,cs),
(442,812,l),
(345,812,l),
(345,663,l),
(443,663,l),
(713,370,ls),
(819,255,o),
(927,138,o),
(1054,0,c)
);
},
{
closed = 1;
nodes = (
(366,0,l),
(366,471,l),
(366,949,l),
(366,1426,l),
(185,1426,l),
(185,949,l),
(185,471,l),
(185,0,l)
);
}
);
width = 1342;
},
{
layerId = "5E854513-9682-4163-9876-812542B08F08";
shapes = (
{
closed = 1;
nodes = (
(1222,0,l),
(1158,60,o),
(1075,134,o),
(991,214,cs),
(906,294,o),
(817,373,o),
(741,445,cs),
(414,748,l),
(414,720,l),
(708,990,ls),
(864,1134,o),
(1014,1273,o),
(1182,1426,c),
(1087,1426,l),
(999,1346,o),
(927,1279,o),
(859,1215,cs),
(790,1151,o),
(727,1095,o),
(659,1031,cs),
(372,766,l),
(268,766,l),
(268,704,l),
(370,704,l),
(706,392,ls),
(837,271,o),
(971,147,o),
(1128,0,c)
);
},
{
closed = 1;
nodes = (
(284,0,l),
(284,476,l),
(284,950,l),
(284,1426,l),
(220,1426,l),
(220,950,l),
(220,476,l),
(220,0,l)
);
}
);
width = 1298;
}
);
leftKerningGroup = B;
rightKerningGroup = K;
unicode = 75;
}
{
glyphname = L;
layers = (
{
layerId = "E1D9B40E-63EA-4761-B046-1A10EFD45ACD";
shapes = (
{
closed = 1;
nodes = (
(1130,0,l),
(1130,424,l),
(718,424,l),
(420,424,l),
(584,80,l),
(584,538,l),
(584,948,l),
(584,1426,l),
(92,1426,l),
(92,948,l),
(92,458,l),
(92,0,l)
);
}
);
width = 1178;
},
{
layerId = "DAFD1245-179E-4A07-AD68-D4889A9FCF84";
shapes = (
{
closed = 1;
nodes = (
(1090,0,l),
(1090,228,l),
(599,228,l),
(329,228,l),
(421,41,l),
(421,509,l),
(421,949,l),
(421,1426,l),
(161,1426,l),
(161,949,l),
(161,468,l),
(161,0,l)
);
}
);
width = 1153;
},
{
layerId = "87D6F04F-5F5B-448D-9F51-E06B2445F72F";
shapes = (
{
closed = 1;
nodes = (
(1056,0,l),
(1056,62,l),
(500,62,l),
(252,62,l),
(284,8,l),
(284,484,l),
(284,950,l),
(284,1426,l),
(220,1426,l),
(220,950,l),
(220,476,l),
(220,0,l)
);
}
);
width = 1132;
}
);
leftKerningGroup = B;
rightKerningGroup = L;
unicode = 76;
}
{
glyphname = N;
layers = (
{
layerId = "E1D9B40E-63EA-4761-B046-1A10EFD45ACD";
shapes = (
{
closed = 1;
nodes = (
(550,0,l),
(550,458,l),
(550,608,l),
(582,608,l),
(735,376,ls),
(782,304,o),
(824,243,o),
(865,179,cs),
(905,115,o),
(945,60,o),
(982,0,c),
(1400,0,l),
(1400,458,l),
(1400,948,l),
(1400,1426,l),
(942,1426,l),
(942,948,l),
(942,818,l),
(908,818,l),
(760,1046,ls),
(720,1110,o),
(682,1167,o),
(642,1228,cs),
(602,1289,o),
(561,1354,o),
(514,1426,c),
(92,1426,l),
(92,948,l),
(92,458,l),
(92,0,l)
);
}
);
width = 1492;
},
{
layerId = "DAFD1245-179E-4A07-AD68-D4889A9FCF84";
shapes = (
{
closed = 1;
nodes = (
(405,0,l),
(405,468,l),
(405,989,l),
(424,989,l),
(695,602,ls),
(776,485,o),
(851,381,o),
(920,281,cs),
(989,181,o),
(1052,89,o),
(1116,0,c),
(1342,0,l),
(1342,468,l),
(1342,950,l),
(1342,1426,l),
(1098,1426,l),
(1098,950,l),
(1098,442,l),
(1078,442,l),
(809,825,ls),
(741,922,o),
(674,1018,o),
(605,1118,cs),
(536,1218,o),
(466,1318,o),
(390,1426,c),
(161,1426,l),
(161,950,l),
(161,468,l),
(161,0,l)
);
}
);
width = 1504;
},
{
layerId = "87D6F04F-5F5B-448D-9F51-E06B2445F72F";
shapes = (
{
closed = 1;
nodes = (
(284,0,l),
(284,476,l),
(284,1310,l),
(292,1310,l),
(662,793,ls),
(775,636,o),
(874,500,o),
(967,367,cs),
(1060,234,o),
(1146,117,o),
(1230,0,c),
(1294,0,l),
(1294,476,l),
(1294,950,l),
(1294,1426,l),
(1230,1426,l),
(1230,950,l),
(1230,124,l),
(1222,124,l),
(852,638,ls),
(760,767,o),
(672,890,o),
(576,1023,cs),
(480,1156,o),
(386,1289,o),
(286,1426,c),
(220,1426,l),
(220,950,l),
(220,476,l),
(220,0,l)
);
}
);
width = 1514;
}
);
leftKerningGroup = B;
rightKerningGroup = H;
unicode = 78;
}
{
glyphname = O;
layers = (
{
layerId = "53B253BD-EAB0-49E0-8B4C-FD971ECE0D4A";
shapes = (
{
closed = 1;
nodes = (
(1073,-32,o),
(1258,47,o),
(1386,180,cs),
(1514,313,o),
(1574,496,o),
(1574,712,cs),
(1574,921,o),
(1517,1103,o),
(1389,1240,cs),
(1264,1375,o),
(1071,1458,o),
(806,1458,cs),
(545,1458,o),
(355,1375,o),
(231,1240,cs),
(106,1103,o),
(48,921,o),
(48,710,cs),
(48,614,o),
(62,519,o),
(91,431,cs),
(120,343,o),
(166,262,o),
(227,194,cs),
(351,57,o),
(543,-32,o),
(818,-32,cs)
);
},
{
closed = 1;
nodes = (
(733,364,o),
(670,403,o),
(627,466,cs),
(583,530,o),
(560,616,o),
(560,712,cs),
(560,812,o),
(585,897,o),
(629,961,cs),
(673,1024,o),
(736,1062,o),
(812,1062,cs),
(885,1062,o),
(948,1025,o),
(992,961,cs),
(1036,897,o),
(1062,812,o),
(1062,712,cs),
(1062,616,o),
(1039,530,o),
(996,466,c),
(952,403,o),
(891,364,o),
(812,364,cs)
);
}
);
width = 1622;
},
{
layerId = "3B65AEAE-576E-4C08-BDA7-4B24E1278BB4";
shapes = (
{
closed = 1;
nodes = (
(1055,-24,o),
(1230,54,o),
(1355,187,cs),
(1480,320,o),
(1543,500,o),
(1543,715,cs),
(1543,922,o),
(1483,1105,o),
(1359,1238,cs),
(1238,1371,o),
(1054,1454,o),
(814,1454,cs),
(577,1454,o),
(396,1372,o),
(273,1240,cs),
(148,1107,o),
(87,925,o),
(87,714,cs),
(87,614,o),
(101,520,o),
(132,432,cs),
(163,344,o),
(207,265,o),
(267,197,cs),
(387,62,o),
(571,-24,o),
(822,-24,cs)
);
},
{
closed = 1;
nodes = (
(661,193,o),
(546,254,o),
(470,350,cs),
(394,446,o),
(357,574,o),
(357,715,cs),
(357,856,o),
(396,985,o),
(473,1081,cs),
(549,1176,o),
(665,1237,o),
(817,1237,cs),
(966,1237,o),
(1079,1182,o),
(1156,1086,cs),
(1232,990,o),
(1273,864,o),
(1273,715,cs),
(1273,578,o),
(1238,447,o),
(1162,351,cs),
(1086,255,o),
(973,193,o),
(817,193,cs)
);
}
);
width = 1631;
},
{
layerId = "359FCFA0-5099-431D-AD00-ECD767CAC005";
shapes = (
{
closed = 1;
nodes = (
(1049,-21,o),
(1221,56,o),
(1344,189,cs),
(1467,322,o),
(1532,502,o),
(1532,715,cs),
(1532,922,o),
(1471,1104,o),
(1348,1237,c),
(1228,1370,o),
(1049,1452,o),
(818,1452,cs),
(590,1452,o),
(411,1371,o),
(289,1239,cs),
(166,1106,o),
(102,925,o),
(102,715,cs),
(102,615,o),
(116,520,o),
(147,432,cs),
(178,344,o),
(222,266,o),
(282,198,cs),
(402,64,o),
(583,-21,o),
(824,-21,cs)
);
},
{
closed = 1;
nodes = (
(634,128,o),
(499,197,o),
(411,305,cs),
(322,414,o),
(280,557,o),
(280,715,cs),
(280,873,o),
(324,1017,o),
(414,1126,cs),
(503,1234,o),
(638,1303,o),
(819,1303,cs),
(997,1303,o),
(1129,1240,o),
(1219,1133,cs),
(1307,1026,o),
(1354,882,o),
(1354,715,cs),
(1354,561,o),
(1314,416,o),
(1225,307,cs),
(1138,198,o),
(1005,128,o),
(819,128,cs)
);
}
);
width = 1634;
},
{
layerId = "3AA18437-0CC1-4501-8D0B-B0921B064785";
shapes = (
{
closed = 1;
nodes = (
(1041,-18,o),
(1210,59,o),
(1331,192,cs),
(1452,325,o),
(1518,504,o),
(1518,716,cs),
(1518,923,o),
(1456,1103,o),
(1335,1236,cs),
(1216,1368,o),
(1042,1450,o),
(822,1450,cs),
(606,1450,o),
(430,1370,o),
(309,1238,cs),
(188,1105,o),
(120,925,o),
(120,716,cs),
(120,616,o),
(135,521,o),
(166,433,cs),
(197,345,o),
(241,267,o),
(301,199,cs),
(420,66,o),
(597,-18,o),
(826,-18,cs)
);
},
{
closed = 1;
nodes = (
(601,48,o),
(442,127,o),
(338,250,cs),
(234,375,o),
(186,537,o),
(186,716,cs),
(186,893,o),
(237,1056,o),
(342,1181,cs),
(446,1304,o),
(605,1384,o),
(822,1384,cs),
(1035,1384,o),
(1190,1311,o),
(1295,1190,cs),
(1399,1069,o),
(1452,905,o),
(1452,716,cs),
(1452,541,o),
(1407,378,o),
(1303,253,cs),
(1202,129,o),
(1043,48,o),
(822,48,cs)
);
}
);
width = 1638;
}
);
leftKerningGroup = C2;
rightKerningGroup = D;
unicode = 79;
}
{
glyphname = P;
layers = (
{
layerId = "53B253BD-EAB0-49E0-8B4C-FD971ECE0D4A";
shapes = (
{
closed = 1;
nodes = (
(574,0,l),
(574,458,l),
(574,868,l),
(574,1346,l),
(344,1056,l),
(702,1056,ls),
(713,1056,o),
(724,1055,o),
(733,1052,cs),
(752,1047,o),
(768,1036,o),
(780,1020,cs),
(787,1012,o),
(791,1004,o),
(795,993,cs),
(803,972,o),
(808,945,o),
(808,914,cs),
(808,866,o),
(800,830,o),
(781,806,cs),
(761,782,o),
(733,770,o),
(690,770,cs),
(516,770,l),
(516,426,l),
(810,426,ls),
(982,426,o),
(1106,476,o),
(1187,564,cs),
(1268,652,o),
(1306,779,o),
(1306,932,cs),
(1306,1127,o),
(1256,1249,o),
(1160,1325,cs),
(1064,1401,o),
(924,1426,o),
(736,1426,cs),
(92,1426,l),
(92,948,l),
(92,458,l),
(92,0,l)
);
}
);
width = 1346;
},
{
layerId = "3B65AEAE-576E-4C08-BDA7-4B24E1278BB4";
shapes = (
{
closed = 1;
nodes = (
(417,0,l),
(417,468,l),
(417,910,l),
(417,1386,l),
(291,1216,l),
(683,1216,ls),
(703,1216,o),
(723,1216,o),
(744,1213,c),
(784,1209,o),
(822,1198,o),
(857,1178,c),
(874,1167,o),
(888,1154,o),
(901,1138,c),
(925,1105,o),
(941,1059,o),
(941,994,cs),
(941,905,o),
(919,841,o),
(868,801,cs),
(817,760,o),
(743,742,o),
(635,742,cs),
(383,742,l),
(383,532,l),
(691,532,ls),
(882,532,o),
(1010,582,o),
(1091,663,c),
(1171,747,o),
(1205,859,o),
(1205,996,cs),
(1205,1151,o),
(1163,1259,o),
(1079,1328,cs),
(995,1396,o),
(872,1426,o),
(701,1426,cs),
(161,1426,l),
(161,950,l),
(161,468,l),
(161,0,l)
);
}
);
width = 1278;
},
{
layerId = "359FCFA0-5099-431D-AD00-ECD767CAC005";
shapes = (
{
closed = 1;
nodes = (
(357,0,l),
(357,472,l),
(357,925,l),
(357,1401,l),
(273,1283,l),
(676,1283,ls),
(699,1283,o),
(723,1282,o),
(748,1280,cs),
(797,1276,o),
(844,1264,o),
(886,1241,cs),
(908,1229,o),
(925,1213,o),
(941,1194,cs),
(972,1155,o),
(992,1100,o),
(992,1019,cs),
(992,910,o),
(964,835,o),
(902,786,cs),
(840,736,o),
(747,715,o),
(615,715,cs),
(334,715,l),
(334,573,l),
(646,573,ls),
(844,573,o),
(974,621,o),
(1055,700,c),
(1135,780,o),
(1167,891,o),
(1167,1020,cs),
(1167,1161,o),
(1129,1262,o),
(1049,1329,cs),
(968,1395,o),
(853,1426,o),
(688,1426,cs),
(188,1426,l),
(188,950,l),
(188,472,l),
(188,0,l)
);
}
);
width = 1252;
},
{
layerId = "3AA18437-0CC1-4501-8D0B-B0921B064785";
shapes = (
{
closed = 1;
nodes = (
(284,0,l),
(284,476,l),
(284,944,l),
(284,1420,l),
(252,1364,l),
(668,1364,ls),
(695,1364,o),
(724,1363,o),
(753,1362,c),
(813,1358,o),
(870,1345,o),
(922,1318,c),
(949,1305,o),
(971,1286,o),
(990,1263,cs),
(1029,1216,o),
(1054,1150,o),
(1054,1050,cs),
(1054,917,o),
(1019,827,o),
(943,767,cs),
(867,707,o),
(751,682,o),
(590,682,cs),
(274,682,l),
(274,622,l),
(592,622,ls),
(797,622,o),
(929,668,o),
(1010,745,cs),
(1090,821,o),
(1120,929,o),
(1120,1050,cs),
(1120,1173,o),
(1087,1266,o),
(1012,1330,cs),
(936,1394,o),
(829,1426,o),
(672,1426,cs),
(220,1426,l),
(220,950,l),
(220,476,l),
(220,0,l)
);
}
);
width = 1220;
}
);
leftKerningGroup = B;
unicode = 80;
}
{
glyphname = Q;
layers = (
{
layerId = "38BC816E-D43A-41BE-BA15-848C078B51D1";
shapes = (
{
closed = 1;
nodes = (
(1070,-32,o),
(1260,47,o),
(1386,180,cs),
(1512,312,o),
(1574,499,o),
(1574,712,cs),
(1574,919,o),
(1515,1104,o),
(1389,1240,cs),
(1263,1375,o),
(1071,1458,o),
(806,1458,cs),
(545,1458,o),
(355,1375,o),
(231,1240,cs),
(107,1105,o),
(48,918,o),
(48,710,cs),
(48,517,o),
(103,330,o),
(227,194,cs),
(351,57,o),
(543,-32,o),
(818,-32,cs)
);
},
{
closed = 1;
nodes = (
(733,364,o),
(670,403,o),
(627,466,cs),
(583,529,o),
(560,616,o),
(560,712,cs),
(560,811,o),
(585,898,o),
(629,961,cs),
(673,1024,o),
(736,1062,o),
(812,1062,cs),
(885,1062,o),
(948,1024,o),
(992,961,cs),
(1036,898,o),
(1062,811,o),
(1062,712,cs),
(1062,616,o),
(1039,529,o),
(996,466,cs),
(952,403,o),
(891,364,o),
(812,364,cs)
);
},
{
closed = 1;
nodes = (
(1550,-176,l),
(1446,-91,o),
(1352,-13,o),
(1252,68,cs),
(1022,256,l),
(758,-4,l),
(898,-140,ls),
(969,-208,o),
(1044,-281,o),
(1124,-360,c)
);
}
);
width = 1622;
},
{
layerId = "CC778D2D-072A-4DB6-BE4E-3C1A765FC49D";
shapes = (
{
closed = 1;
nodes = (
(1053,-24,o),
(1232,55,o),
(1355,187,cs),
(1478,318,o),
(1543,503,o),
(1543,715,cs),
(1543,919,o),
(1481,1105,o),
(1359,1238,cs),
(1237,1371,o),
(1054,1454,o),
(814,1454,cs),
(577,1454,o),
(396,1372,o),
(273,1240,cs),
(150,1107,o),
(87,922,o),
(87,714,cs),
(87,517,o),
(146,332,o),
(267,197,cs),
(387,62,o),
(571,-24,o),
(822,-24,cs)
);
},
{
closed = 1;
nodes = (
(661,193,o),
(546,254,o),
(470,350,cs),
(394,445,o),
(357,575,o),
(357,715,cs),
(357,855,o),
(396,985,o),
(473,1081,cs),
(549,1176,o),
(665,1237,o),
(817,1237,cs),
(965,1237,o),
(1079,1180,o),
(1156,1086,cs),
(1232,992,o),
(1273,862,o),
(1273,715,cs),
(1273,578,o),
(1237,447,o),
(1162,351,cs),
(1086,255,o),
(973,193,o),
(817,193,cs)
);
},
{
closed = 1;
nodes = (
(1477,-239,l),
(1372,-156,o),
(1288,-89,o),
(1197,-17,cs),
(990,146,l),
(848,3,l),
(1004,-132,ls),
(1084,-200,o),
(1165,-271,o),
(1249,-343,c)
);
}
);
width = 1631;
},
{
layerId = "452C7134-94CE-4761-9646-58D083594750";
shapes = (
{
closed = 1;
nodes = (
(1038,-18,o),
(1211,60,o),
(1331,192,cs),
(1451,323,o),
(1518,507,o),
(1518,716,cs),
(1518,920,o),
(1454,1104,o),
(1335,1236,cs),
(1216,1368,o),
(1042,1450,o),
(822,1450,cs),
(606,1450,o),
(430,1370,o),
(309,1238,cs),
(188,1106,o),
(120,923,o),
(120,716,cs),
(120,516,o),
(181,332,o),
(301,199,cs),
(420,66,o),
(597,-18,o),
(826,-18,cs)
);
},
{
closed = 1;
nodes = (
(601,48,o),
(442,127,o),
(338,250,cs),
(234,373,o),
(186,540,o),
(186,716,cs),
(186,891,o),
(237,1057,o),
(342,1181,cs),
(446,1304,o),
(605,1384,o),
(822,1384,cs),
(1033,1384,o),
(1190,1310,o),
(1295,1190,cs),
(1399,1069,o),
(1452,903,o),
(1452,716,cs),
(1452,544,o),
(1405,377,o),
(1303,253,cs),
(1201,129,o),
(1043,48,o),
(822,48,cs)
);
},
{
closed = 1;
nodes = (
(1416,-292,l),
(1311,-211,o),
(1233,-152,o),
(1150,-89,cs),
(962,54,l),
(924,8,l),
(1094,-125,ls),
(1182,-194,o),
(1267,-260,o),
(1354,-328,c)
);
}
);
width = 1638;
}
);
leftKerningGroup = C2;
rightKerningGroup = D;
unicode = 81;
}
{
glyphname = R;
layers = (
{
layerId = "3741C398-C536-4E04-9B31-DF775DED3426";
shapes = (
{
closed = 1;
nodes = (
(574,0,l),
(574,458,l),
(574,868,l),
(574,1346,l),
(220,1058,l),
(696,1058,ls),
(707,1058,o),
(718,1057,o),
(727,1054,cs),
(746,1049,o),
(761,1039,o),
(773,1024,c),
(780,1017,o),
(784,1008,o),
(788,999,cs),
(796,979,o),
(800,956,o),
(800,928,cs),
(800,872,o),
(786,840,o),
(766,821,cs),
(745,801,o),
(717,796,o),
(686,796,cs),
(484,796,l),
(484,502,l),
(820,502,l),
(532,682,l),
(728,282,ls),
(772,190,o),
(815,104,o),
(866,0,c),
(1416,0,l),
(1387,56,o),
(1346,126,o),
(1305,202,cs),
(1264,278,o),
(1221,354,o),
(1184,422,cs),
(1024,714,l),
(822,564,l),
(989,564,o),
(1108,604,o),
(1188,677,cs),
(1268,749,o),
(1306,853,o),
(1306,986,cs),
(1306,1161,o),
(1252,1268,o),
(1149,1336,cs),
(1045,1404,o),
(899,1426,o),
(710,1426,cs),
(92,1426,l),
(92,948,l),
(92,458,l),
(92,0,l)
);
}
);
width = 1430;
},
{
layerId = "32AC1926-81FC-462E-AFF9-9B08428E2569";
shapes = (
{
closed = 1;
nodes = (
(415,0,l),
(415,468,l),
(415,910,l),
(415,1386,l),
(233,1216,l),
(669,1216,ls),
(689,1216,o),
(709,1215,o),
(729,1214,c),
(769,1210,o),
(808,1199,o),
(841,1180,c),
(858,1169,o),
(872,1157,o),
(885,1141,c),
(909,1108,o),
(925,1061,o),
(925,996,cs),
(925,903,o),
(901,841,o),
(850,802,cs),
(799,762,o),
(724,746,o),
(623,746,cs),
(369,746,l),
(369,536,l),
(699,536,l),
(543,672,l),
(789,324,ls),
(861,220,o),
(933,117,o),
(1017,0,c),
(1315,0,l),
(1275,56,o),
(1226,125,o),
(1170,198,cs),
(1114,270,o),
(1060,347,o),
(1012,412,cs),
(803,696,l),
(709,588,l),
(888,589,o),
(1007,638,o),
(1084,718,cs),
(1160,798,o),
(1193,905,o),
(1193,1026,cs),
(1193,1175,o),
(1150,1273,o),
(1062,1337,cs),
(974,1401,o),
(849,1426,o),
(677,1426,cs),
(161,1426,l),
(161,950,l),
(161,468,l),
(161,0,l)
);
}
);
width = 1363;
},
{
layerId = "608C4FA3-96E7-4DF2-B0AE-105347578AB3";
shapes = (
{
closed = 1;
nodes = (
(363,0,l),
(363,471,l),
(363,924,l),
(363,1400,l),
(241,1275,l),
(661,1275,ls),
(683,1275,o),
(707,1275,o),
(731,1274,c),
(779,1270,o),
(825,1259,o),
(865,1238,cs),
(886,1227,o),
(904,1213,o),
(919,1194,cs),
(949,1156,o),
(969,1101,o),
(969,1022,cs),
(969,914,o),
(940,843,o),
(879,796,cs),
(818,748,o),
(727,728,o),
(602,728,cs),
(331,728,l),
(331,578,l),
(659,578,l),
(547,668,l),
(803,338,ls),
(888,229,o),
(971,122,o),
(1069,0,c),
(1281,0,l),
(1237,56,o),
(1184,124,o),
(1124,197,cs),
(1065,269,o),
(1006,344,o),
(955,409,cs),
(730,690,l),
(672,611,l),
(854,612,o),
(974,661,o),
(1050,739,cs),
(1126,818,o),
(1156,922,o),
(1156,1040,cs),
(1156,1180,o),
(1117,1275,o),
(1034,1337,cs),
(951,1400,o),
(833,1426,o),
(667,1426,cs),
(185,1426,l),
(185,950,l),
(185,471,l),
(185,0,l)
);
}
);
width = 1340;
},
{
layerId = "5E854513-9682-4163-9876-812542B08F08";
shapes = (
{
closed = 1;
nodes = (
(284,0,l),
(284,476,l),
(284,944,l),
(284,1420,l),
(252,1364,l),
(648,1364,ls),
(675,1364,o),
(704,1364,o),
(733,1363,cs),
(793,1360,o),
(850,1350,o),
(902,1326,cs),
(929,1313,o),
(951,1296,o),
(970,1273,cs),
(1009,1228,o),
(1034,1160,o),
(1034,1060,cs),
(1034,931,o),
(999,846,o),
(923,786,cs),
(847,726,o),
(731,702,o),
(570,702,cs),
(274,702,l),
(274,642,l),
(598,642,l),
(554,662,l),
(824,360,ls),
(928,243,o),
(1029,129,o),
(1146,0,c),
(1230,0,l),
(1181,56,o),
(1120,123,o),
(1056,195,cs),
(992,267,o),
(926,340,o),
(869,404,cs),
(620,682,l),
(616,646,l),
(804,647,o),
(924,695,o),
(999,771,cs),
(1075,847,o),
(1100,947,o),
(1100,1060,cs),
(1100,1188,o),
(1067,1278,o),
(992,1338,cs),
(916,1398,o),
(809,1426,o),
(652,1426,cs),
(220,1426,l),
(220,950,l),
(220,476,l),
(220,0,l)
);
}
);
width = 1306;
}
);
leftKerningGroup = B;
rightKerningGroup = R;
unicode = 82;
}
{
glyphname = S;
layers = (
{
anchors = (
{
name = bottom;
position = "{616, 0}";
},
{
name = top;
position = "{616, 1426}";
}
);
layerId = "94D01061-A32A-45A3-B948-3F6416FBC8A6";
shapes = (
{
closed = 1;
nodes = (
(803,-32,o),
(952,9,o),
(1051,89,cs),
(1150,169,o),
(1194,283,o),
(1194,432,cs),
(1194,557,o),
(1167,644,o),
(1096,713,cs),
(1025,781,o),
(914,831,o),
(742,876,cs),
(682,892,o),
(639,906,o),
(611,923,c),
(582,939,o),
(568,961,o),
(568,990,cs),
(568,1018,o),
(580,1038,o),
(603,1051,cs),
(626,1064,o),
(656,1070,o),
(696,1070,cs),
(747,1070,o),
(810,1061,o),
(878,1042,cs),
(946,1022,o),
(1016,995,o),
(1084,956,c),
(1116,1364,l),
(1052,1389,o),
(968,1413,o),
(876,1430,cs),
(783,1447,o),
(683,1458,o),
(590,1458,cs),
(402,1458,o),
(268,1412,o),
(180,1332,cs),
(92,1252,o),
(50,1137,o),
(50,996,cs),
(50,863,o),
(86,772,o),
(154,704,cs),
(222,636,o),
(318,594,o),
(442,562,c),
(514,545,o),
(570,529,o),
(613,509,cs),
(656,489,o),
(678,467,o),
(678,432,cs),
(678,404,o),
(670,385,o),
(647,370,cs),
(624,355,o),
(593,348,o),
(546,348,cs),
(486,348,o),
(413,359,o),
(337,379,cs),
(260,399,o),
(180,429,o),
(108,466,c),
(76,64,l),
(132,39,o),
(215,16,o),
(307,-3,cs),
(399,-22,o),
(500,-32,o),
(588,-32,cs)
);
}
);
width = 1232;
},
{
anchors = (
{
name = bottom;
position = "{600, 0}";
},
{
name = top;
position = "{600, 1426}";
}
);
layerId = "A20360DC-C558-4CC0-982F-E982844551E5";
shapes = (
{
closed = 1;
nodes = (
(780,-24,o),
(909,18,o),
(994,94,cs),
(1078,170,o),
(1118,273,o),
(1118,398,cs),
(1118,514,o),
(1092,594,o),
(1021,661,cs),
(950,728,o),
(838,777,o),
(666,830,cs),
(562,862,o),
(487,890,o),
(439,925,cs),
(391,960,o),
(368,1001,o),
(368,1058,cs),
(368,1118,o),
(397,1163,o),
(444,1192,cs),
(491,1221,o),
(555,1236,o),
(624,1236,cs),
(680,1236,o),
(746,1225,o),
(814,1204,cs),
(882,1183,o),
(951,1151,o),
(1012,1110,c),
(1034,1350,l),
(985,1377,o),
(916,1402,o),
(836,1422,cs),
(756,1441,o),
(668,1454,o),
(580,1454,cs),
(419,1454,o),
(296,1411,o),
(216,1339,cs),
(135,1267,o),
(94,1166,o),
(94,1046,cs),
(94,925,o),
(132,840,o),
(204,776,cs),
(276,712,o),
(381,668,o),
(514,628,cs),
(618,597,o),
(701,570,o),
(758,531,cs),
(815,492,o),
(846,447,o),
(846,382,cs),
(846,317,o),
(818,269,o),
(771,238,cs),
(723,206,o),
(658,192,o),
(578,192,cs),
(505,192,o),
(429,203,o),
(353,226,cs),
(277,249,o),
(205,279,o),
(136,318,c),
(116,78,l),
(165,54,o),
(241,29,o),
(326,9,cs),
(411,-11,o),
(507,-24,o),
(596,-24,cs)
);
}
);
width = 1188;
},
{
anchors = (
{
name = bottom;
position = "{586, 0}";
},
{
name = top;
position = "{586, 1426}";
}
);
layerId = "50349594-6C27-41CE-BEB9-EE127BFCE265";
shapes = (
{
closed = 1;
nodes = (
(761,-18,o),
(873,25,o),
(946,97,cs),
(1019,169,o),
(1054,265,o),
(1054,370,cs),
(1054,463,o),
(1029,534,o),
(958,595,cs),
(887,656,o),
(775,709,o),
(602,766,cs),
(461,813,o),
(361,853,o),
(294,901,cs),
(227,949,o),
(198,1006,o),
(198,1090,cs),
(198,1194,o),
(241,1267,o),
(309,1315,cs),
(377,1363,o),
(468,1384,o),
(564,1384,cs),
(624,1384,o),
(691,1376,o),
(759,1357,cs),
(827,1337,o),
(892,1309,o),
(952,1266,c),
(964,1338,l),
(928,1365,o),
(870,1393,o),
(802,1414,cs),
(733,1435,o),
(654,1450,o),
(570,1450,cs),
(429,1450,o),
(321,1410,o),
(246,1345,cs),
(171,1280,o),
(132,1190,o),
(132,1090,cs),
(132,989,o),
(172,918,o),
(248,858,cs),
(324,798,o),
(433,755,o),
(574,708,cs),
(707,665,o),
(810,626,o),
(881,575,cs),
(952,524,o),
(988,462,o),
(988,370,cs),
(988,250,o),
(946,171,o),
(875,120,cs),
(804,69,o),
(709,48,o),
(604,48,cs),
(516,48,o),
(439,60,o),
(367,80,cs),
(294,100,o),
(228,129,o),
(160,164,c),
(148,96,l),
(192,69,o),
(261,42,o),
(342,19,cs),
(422,-4,o),
(515,-18,o),
(604,-18,cs)
);
}
);
width = 1150;
}
);
leftKerningGroup = S2;
rightKerningGroup = S;
unicode = 83;
}
{
glyphname = T;
layers = (
{
layerId = "38BC816E-D43A-41BE-BA15-848C078B51D1";
shapes = (
{
closed = 1;
nodes = (
(896,0,l),
(896,458,l),
(896,868,l),
(896,1346,l),
(714,1002,l),
(924,1002,l),
(1262,1002,l),
(1262,1426,l),
(40,1426,l),
(40,1002,l),
(378,1002,l),
(588,1002,l),
(406,1346,l),
(406,868,l),
(406,458,l),
(406,0,l)
);
}
);
width = 1302;
},
{
layerId = "CC778D2D-072A-4DB6-BE4E-3C1A765FC49D";
shapes = (
{
closed = 1;
nodes = (
(773,0,l),
(773,468,l),
(773,909,l),
(773,1386,l),
(672,1198,l),
(852,1198,l),
(1230,1198,l),
(1230,1426,l),
(56,1426,l),
(56,1198,l),
(434,1198,l),
(614,1198,l),
(514,1386,l),
(514,909,l),
(514,468,l),
(514,0,l)
);
}
);
width = 1287;
},
{
layerId = "452C7134-94CE-4761-9646-58D083594750";
shapes = (
{
closed = 1;
nodes = (
(670,0,l),
(670,476,l),
(670,944,l),
(670,1420,l),
(638,1364,l),
(792,1364,l),
(1204,1364,l),
(1204,1426,l),
(70,1426,l),
(70,1364,l),
(482,1364,l),
(636,1364,l),
(606,1420,l),
(606,944,l),
(606,476,l),
(606,0,l)
);
}
);
width = 1274;
}
);
leftKerningGroup = T2;
rightKerningGroup = T;
unicode = 84;
}
{
glyphname = U;
layers = (
{
layerId = "3741C398-C536-4E04-9B31-DF775DED3426";
shapes = (
{
closed = 1;
nodes = (
(954,-32,o),
(1110,23,o),
(1214,127,cs),
(1318,231,o),
(1366,377,o),
(1366,566,cs),
(1366,948,l),
(1366,1426,l),
(876,1426,l),
(876,948,l),
(876,586,ls),
(876,513,o),
(866,457,o),
(842,420,cs),
(818,383,o),
(781,364,o),
(728,364,cs),
(679,364,o),
(643,383,o),
(616,420,cs),
(589,457,o),
(576,513,o),
(576,586,cs),
(576,948,l),
(576,1426,l),
(86,1426,l),
(86,948,l),
(86,568,ls),
(86,377,o),
(126,231,o),
(230,127,cs),
(333,23,o),
(491,-32,o),
(730,-32,cs)
);
}
);
width = 1452;
},
{
layerId = "32AC1926-81FC-462E-AFF9-9B08428E2569";
shapes = (
{
closed = 1;
nodes = (
(936,-24,o),
(1077,30,o),
(1173,130,cs),
(1269,230,o),
(1312,366,o),
(1312,539,cs),
(1312,949,l),
(1312,1426,l),
(1053,1426,l),
(1053,949,l),
(1053,559,ls),
(1053,442,o),
(1032,353,o),
(981,289,cs),
(930,225,o),
(851,193,o),
(730,193,cs),
(613,193,o),
(532,225,o),
(480,289,cs),
(428,353,o),
(405,441,o),
(405,558,cs),
(405,949,l),
(405,1426,l),
(146,1426,l),
(146,949,l),
(146,540,ls),
(146,365,o),
(186,230,o),
(282,130,cs),
(377,31,o),
(520,-24,o),
(731,-24,cs)
);
}
);
width = 1459;
},
{
layerId = "608C4FA3-96E7-4DF2-B0AE-105347578AB3";
shapes = (
{
closed = 1;
nodes = (
(930,-22,o),
(1067,32,o),
(1159,130,cs),
(1252,229,o),
(1294,363,o),
(1294,530,cs),
(1294,949,l),
(1294,1426,l),
(1113,1426,l),
(1113,949,l),
(1113,550,ls),
(1113,418,o),
(1089,316,o),
(1028,244,cs),
(967,172,o),
(874,135,o),
(731,135,cs),
(590,135,o),
(496,173,o),
(434,245,cs),
(373,317,o),
(347,417,o),
(347,548,cs),
(347,949,l),
(347,1426,l),
(166,1426,l),
(166,949,l),
(166,530,ls),
(166,363,o),
(206,229,o),
(299,130,cs),
(391,33,o),
(530,-22,o),
(731,-22,cs)
);
}
);
width = 1461;
},
{
layerId = "5E854513-9682-4163-9876-812542B08F08";
shapes = (
{
closed = 1;
nodes = (
(921,-18,o),
(1051,35,o),
(1139,131,cs),
(1227,227,o),
(1266,359,o),
(1266,516,cs),
(1266,950,l),
(1266,1426,l),
(1202,1426,l),
(1202,950,l),
(1202,536,ls),
(1202,383,o),
(1174,261,o),
(1098,177,cs),
(1022,93,o),
(909,48,o),
(732,48,cs),
(556,48,o),
(442,94,o),
(366,178,cs),
(290,262,o),
(260,381,o),
(260,534,cs),
(260,950,l),
(260,1426,l),
(196,1426,l),
(196,950,l),
(196,516,ls),
(196,359,o),
(237,227,o),
(325,131,cs),
(413,36,o),
(545,-18,o),
(732,-18,cs)
);
}
);
width = 1464;
}
);
leftKerningGroup = U2;
rightKerningGroup = U;
unicode = 85;
}
{
glyphname = V;
layers = (
{
layerId = "3741C398-C536-4E04-9B31-DF775DED3426";
shapes = (
{
closed = 1;
nodes = (
(1058,0,l),
(1077,72,o),
(1098,148,o),
(1118,225,cs),
(1138,302,o),
(1159,380,o),
(1178,452,cs),
(1298,900,ls),
(1319,980,o),
(1343,1065,o),
(1367,1157,cs),
(1391,1249,o),
(1415,1338,o),
(1438,1426,c),
(908,1426,l),
(881,1265,o),
(851,1093,o),
(824,936,cs),
(748,494,l),
(716,494,l),
(652,934,ls),
(641,1010,o),
(629,1095,o),
(617,1180,cs),
(604,1264,o),
(592,1349,o),
(580,1426,c),
(34,1426,l),
(57,1342,o),
(80,1249,o),
(104,1157,cs),
(128,1065,o),
(151,975,o),
(171,898,cs),
(287,452,ls),
(306,383,o),
(325,308,o),
(345,228,cs),
(365,148,o),
(385,72,o),
(404,0,c)
);
}
);
width = 1472;
},
{
layerId = "32AC1926-81FC-462E-AFF9-9B08428E2569";
shapes = (
{
closed = 1;
nodes = (
(874,0,l),
(898,72,o),
(923,150,o),
(950,227,cs),
(977,304,o),
(1000,382,o),
(1024,451,cs),
(1173,900,ls),
(1200,980,o),
(1228,1065,o),
(1259,1157,cs),
(1290,1249,o),
(1320,1341,o),
(1348,1426,c),
(1068,1426,l),
(1007,1223,o),
(940,1013,o),
(880,816,cs),
(710,265,l),
(689,265,l),
(523,813,ls),
(494,909,o),
(462,1014,o),
(430,1119,cs),
(398,1224,o),
(366,1330,o),
(337,1426,c),
(49,1426,l),
(77,1341,o),
(108,1248,o),
(139,1156,cs),
(170,1064,o),
(200,975,o),
(225,899,cs),
(374,452,ls),
(397,383,o),
(422,308,o),
(449,228,cs),
(476,148,o),
(500,72,o),
(524,0,c)
);
}
);
width = 1398;
},
{
layerId = "608C4FA3-96E7-4DF2-B0AE-105347578AB3";
shapes = (
{
closed = 1;
nodes = (
(812,0,l),
(837,72,o),
(865,151,o),
(893,228,cs),
(922,305,o),
(946,382,o),
(972,451,c),
(1131,900,ls),
(1160,979,o),
(1190,1065,o),
(1223,1157,cs),
(1255,1249,o),
(1288,1341,o),
(1318,1426,c),
(1122,1426,l),
(1049,1210,o),
(970,986,o),
(899,776,c),
(697,188,l),
(680,188,l),
(479,772,ls),
(444,875,o),
(406,986,o),
(367,1099,cs),
(329,1212,o),
(290,1323,o),
(255,1426,c),
(54,1426,l),
(85,1341,o),
(118,1248,o),
(151,1156,cs),
(184,1064,o),
(216,975,o),
(243,899,cs),
(403,452,ls),
(428,383,o),
(455,308,o),
(484,228,cs),
(512,148,o),
(539,72,o),
(565,0,c)
);
}
);
width = 1373;
},
{
layerId = "5E854513-9682-4163-9876-812542B08F08";
shapes = (
{
closed = 1;
nodes = (
(718,0,l),
(746,73,o),
(777,152,o),
(808,229,cs),
(839,306,o),
(866,382,o),
(893,450,cs),
(1068,901,ls),
(1099,978,o),
(1132,1066,o),
(1168,1158,cs),
(1203,1250,o),
(1239,1341,o),
(1272,1426,c),
(1204,1426,l),
(1112,1190,o),
(1016,946,o),
(928,715,cs),
(678,72,l),
(666,72,l),
(414,711,ls),
(370,824,o),
(321,944,o),
(273,1069,cs),
(225,1194,o),
(176,1313,o),
(132,1426,c),
(62,1426,l),
(97,1341,o),
(133,1248,o),
(169,1156,cs),
(205,1064,o),
(241,976,o),
(270,900,cs),
(447,452,ls),
(474,384,o),
(505,309,o),
(536,229,cs),
(567,149,o),
(598,72,o),
(626,0,c)
);
}
);
width = 1336;
}
);
unicode = 86;
}
{
glyphname = W;
layers = (
{
layerId = "066FA146-1B0F-4CB2-BC80-6E1AAE3525A6";
shapes = (
{
closed = 1;
nodes = (
(926,0,l),
(935,60,o),
(944,124,o),
(955,189,cs),
(966,253,o),
(974,317,o),
(983,377,cs),
(1034,716,l),
(1066,716,l),
(1122,377,l),
(1133,317,o),
(1142,252,o),
(1153,188,cs),
(1164,124,o),
(1175,60,o),
(1184,0,c),
(1768,0,l),
(1785,69,o),
(1804,144,o),
(1824,224,cs),
(1843,304,o),
(1863,378,o),
(1880,450,cs),
(1992,902,ls),
(2011,979,o),
(2033,1066,o),
(2056,1158,cs),
(2079,1250,o),
(2101,1341,o),
(2122,1426,c),
(1564,1426,l),
(1557,1357,o),
(1549,1280,o),
(1541,1204,cs),
(1533,1128,o),
(1525,1052,o),
(1518,984,cs),
(1476,584,l),
(1444,584,l),
(1388,982,ls),
(1368,1127,o),
(1346,1281,o),
(1326,1426,c),
(820,1426,l),
(811,1357,o),
(803,1280,o),
(792,1204,cs),
(781,1128,o),
(771,1052,o),
(762,984,cs),
(710,584,l),
(678,584,l),
(636,978,ls),
(628,1050,o),
(620,1125,o),
(612,1202,cs),
(604,1279,o),
(596,1354,o),
(588,1426,c),
(30,1426,l),
(50,1342,o),
(73,1251,o),
(94,1159,cs),
(115,1067,o),
(137,980,o),
(156,900,cs),
(264,450,ls),
(280,381,o),
(299,303,o),
(318,226,cs),
(337,149,o),
(355,72,o),
(372,0,c)
);
}
);
width = 2152;
},
{
layerId = "FC81129E-CBCD-4201-8026-CD58C840939D";
shapes = (
{
closed = 1;
nodes = (
(749,0,l),
(770,88,o),
(794,183,o),
(818,279,cs),
(842,375,o),
(866,468,o),
(887,556,cs),
(1011,1056,l),
(1032,1056,l),
(1160,556,ls),
(1183,468,o),
(1206,376,o),
(1230,280,cs),
(1254,184,o),
(1278,88,o),
(1301,0,c),
(1623,0,l),
(1642,69,o),
(1664,144,o),
(1685,224,cs),
(1706,304,o),
(1729,379,o),
(1749,451,cs),
(1874,901,ls),
(1897,981,o),
(1921,1067,o),
(1946,1159,cs),
(1971,1251,o),
(1997,1341,o),
(2021,1426,c),
(1730,1426,l),
(1709,1334,o),
(1685,1233,o),
(1661,1132,cs),
(1637,1031,o),
(1612,931,o),
(1591,839,cs),
(1465,308,l),
(1444,308,l),
(1316,836,ls),
(1269,1029,o),
(1221,1233,o),
(1174,1426,c),
(889,1426,l),
(868,1334,o),
(844,1232,o),
(820,1131,cs),
(796,1030,o),
(772,931,o),
(751,839,cs),
(627,308,l),
(605,308,l),
(481,831,ls),
(458,927,o),
(435,1025,o),
(411,1129,cs),
(387,1233,o),
(363,1333,o),
(340,1426,c),
(48,1426,l),
(71,1342,o),
(97,1250,o),
(122,1158,cs),
(147,1066,o),
(173,978,o),
(194,898,cs),
(317,451,ls),
(336,382,o),
(358,307,o),
(379,227,cs),
(400,147,o),
(422,72,o),
(441,0,c)
);
}
);
width = 2069;
},
{
layerId = "40CDE73F-57A4-4695-A0C8-7244E9D52202";
shapes = (
{
closed = 1;
nodes = (
(600,0,l),
(632,113,o),
(667,230,o),
(703,354,cs),
(739,478,o),
(774,597,o),
(806,706,cs),
(992,1344,l),
(1004,1344,l),
(1192,706,ls),
(1224,598,o),
(1259,477,o),
(1295,356,cs),
(1331,235,o),
(1367,113,o),
(1400,0,c),
(1500,0,l),
(1521,68,o),
(1544,144,o),
(1568,224,cs),
(1592,304,o),
(1617,379,o),
(1638,451,cs),
(1775,900,ls),
(1799,980,o),
(1827,1068,o),
(1855,1160,cs),
(1882,1252,o),
(1911,1341,o),
(1936,1426,c),
(1870,1426,l),
(1837,1313,o),
(1798,1196,o),
(1762,1072,cs),
(1725,948,o),
(1688,830,o),
(1653,717,cs),
(1456,74,l),
(1444,74,l),
(1256,713,ls),
(1188,948,o),
(1114,1194,o),
(1046,1426,c),
(948,1426,l),
(916,1313,o),
(881,1195,o),
(845,1070,cs),
(809,945,o),
(774,825,o),
(742,716,cs),
(556,74,l),
(544,74,l),
(350,708,ls),
(315,825,o),
(277,942,o),
(240,1067,cs),
(203,1192,o),
(165,1313,o),
(130,1426,c),
(64,1426,l),
(89,1342,o),
(118,1250,o),
(146,1158,cs),
(174,1066,o),
(202,976,o),
(226,896,cs),
(362,451,ls),
(383,382,o),
(407,307,o),
(431,227,cs),
(455,147,o),
(479,72,o),
(500,0,c)
);
}
);
width = 1998;
}
);
leftKerningGroup = W2;
rightKerningGroup = W;
unicode = 87;
}
{
glyphname = X;
layers = (
{
anchors = (
{
name = "#exit";
position = "{1410, 0}";
}
);
layerId = "6CD39112-DB7C-4870-A72A-3B89CF7BEC2F";
shapes = (
{
closed = 1;
nodes = (
(574,0,l),
(602,87,o),
(626,162,o),
(650,235,cs),
(708,414,l),
(740,414,l),
(802,236,ls),
(827,164,o),
(853,89,o),
(884,0,c),
(1460,0,l),
(1383,151,o),
(1312,286,o),
(1232,441,cs),
(1070,754,l),
(1070,634,l),
(1230,988,ls),
(1286,1113,o),
(1352,1258,o),
(1428,1426,c),
(894,1426,l),
(863,1330,o),
(837,1245,o),
(810,1161,cs),
(760,1004,l),
(728,1004,l),
(674,1160,ls),
(646,1241,o),
(614,1333,o),
(582,1426,c),
(28,1426,l),
(108,1261,o),
(175,1124,o),
(240,988,cs),
(384,690,l),
(384,794,l),
(223,429,ls),
(155,276,o),
(94,137,o),
(34,0,c)
);
}
);
width = 1488;
},
{
anchors = (
{
name = "#exit";
position = "{1327, 0}";
}
);
layerId = "068B454A-8861-4901-9D12-7077DFDCE54C";
shapes = (
{
closed = 1;
nodes = (
(353,0,l),
(418,115,o),
(474,213,o),
(531,314,cs),
(666,553,l),
(687,553,l),
(831,315,ls),
(891,219,o),
(951,117,o),
(1023,0,c),
(1330,0,l),
(1233,151,o),
(1148,286,o),
(1049,439,cs),
(850,751,l),
(850,678,l),
(1044,1011,ls),
(1113,1132,o),
(1193,1269,o),
(1285,1426,c),
(997,1426,l),
(932,1309,o),
(867,1193,o),
(807,1088,cs),
(694,887,l),
(673,887,l),
(556,1087,ls),
(495,1191,o),
(430,1305,o),
(358,1426,c),
(61,1426,l),
(160,1263,o),
(241,1130,o),
(324,995,cs),
(503,701,l),
(503,767,l),
(299,412,ls),
(215,263,o),
(139,133,o),
(63,0,c)
);
}
);
width = 1390;
},
{
anchors = (
{
name = "#exit";
position = "{1268, 0}";
}
);
layerId = "530C47E7-7F98-4E49-946D-E245391E2E52";
shapes = (
{
closed = 1;
nodes = (
(269,0,l),
(348,126,o),
(416,233,o),
(486,344,cs),
(650,606,l),
(667,606,l),
(842,345,l),
(915,240,o),
(989,128,o),
(1076,0,c),
(1281,0,l),
(1177,151,o),
(1085,286,o),
(980,438,cs),
(766,750,l),
(766,694,l),
(973,1020,l),
(1047,1139,o),
(1133,1273,o),
(1231,1426,c),
(1036,1426,l),
(957,1300,o),
(879,1175,o),
(806,1061,cs),
(669,842,l),
(652,842,l),
(511,1059,ls),
(438,1173,o),
(359,1294,o),
(273,1426,c),
(73,1426,l),
(180,1264,o),
(267,1132,o),
(356,997,cs),
(548,705,l),
(548,757,l),
(328,406,l),
(237,259,o),
(156,131,o),
(74,0,c)
);
}
);
width = 1353;
},
{
anchors = (
{
name = "#exit";
position = "{1220, 0}";
}
);
layerId = "17616679-9B94-41DB-9F8F-857BF431B8D7";
shapes = (
{
closed = 1;
nodes = (
(166,0,l),
(263,140,o),
(345,257,o),
(430,381,cs),
(630,670,l),
(642,670,l),
(856,382,ls),
(944,265,o),
(1036,141,o),
(1140,0,c),
(1220,0,l),
(1108,151,o),
(1008,285,o),
(895,437,cs),
(664,748,l),
(664,714,l),
(886,1030,ls),
(966,1147,o),
(1060,1277,o),
(1164,1426,c),
(1084,1426,l),
(988,1289,o),
(893,1152,o),
(805,1027,cs),
(638,788,l),
(626,788,l),
(456,1025,ls),
(368,1150,o),
(272,1281,o),
(168,1426,c),
(88,1426,l),
(204,1265,o),
(298,1135,o),
(395,1000,cs),
(604,710,l),
(604,744,l),
(364,398,ls),
(264,253,o),
(176,129,o),
(88,0,c)
);
}
);
width = 1308;
}
);
rightKerningGroup = K;
unicode = 88;
}
{
glyphname = Y;
layers = (
{
anchors = (
{
name = bottom;
position = "{718, 0}";
},
{
name = top;
position = "{718, 1426}";
},
{
name = topleft;
position = "{20, 1426}";
}
);
layerId = "6CD39112-DB7C-4870-A72A-3B89CF7BEC2F";
shapes = (
{
closed = 1;
nodes = (
(952,444,l),
(1224,1040,ls),
(1280,1165,o),
(1340,1293,o),
(1400,1426,c),
(862,1426,l),
(845,1358,o),
(831,1309,o),
(819,1262,cs),
(806,1214,o),
(795,1171,o),
(780,1115,cs),
(736,948,l),
(700,948,l),
(658,1118,ls),
(645,1171,o),
(635,1213,o),
(623,1260,cs),
(611,1307,o),
(599,1358,o),
(582,1426,c),
(26,1426,l),
(61,1350,o),
(91,1289,o),
(120,1225,cs),
(148,1161,o),
(177,1103,o),
(206,1039,cs),
(482,444,l)
);
},
{
closed = 1;
nodes = (
(964,0,l),
(964,458,l),
(964,858,l),
(472,858,l),
(472,458,l),
(472,0,l)
);
}
);
width = 1426;
},
{
anchors = (
{
name = bottom;
position = "{680, 0}";
},
{
name = top;
position = "{680, 1426}";
},
{
name = topleft;
position = "{11, 1426}";
}
);
layerId = "068B454A-8861-4901-9D12-7077DFDCE54C";
shapes = (
{
closed = 1;
nodes = (
(793,529,l),
(1095,1074,ls),
(1159,1187,o),
(1221,1305,o),
(1289,1426,c),
(1002,1426,l),
(957,1338,o),
(923,1275,o),
(892,1211,cs),
(860,1147,o),
(830,1091,o),
(793,1019,cs),
(681,802,l),
(659,802,l),
(545,1026,ls),
(510,1095,o),
(483,1150,o),
(452,1211,cs),
(421,1271,o),
(388,1337,o),
(343,1426,c),
(47,1426,l),
(86,1357,o),
(119,1297,o),
(151,1241,c),
(182,1184,o),
(212,1133,o),
(244,1073,cs),
(546,529,l)
);
},
{
closed = 1;
nodes = (
(800,0,l),
(800,468,l),
(800,746,l),
(540,746,l),
(540,468,l),
(540,0,l)
);
}
);
width = 1335;
},
{
anchors = (
{
name = bottom;
position = "{652, 0}";
},
{
name = top;
position = "{652, 1426}";
},
{
name = topleft;
position = "{5, 1426}";
}
);
layerId = "530C47E7-7F98-4E49-946D-E245391E2E52";
shapes = (
{
closed = 1;
nodes = (
(733,561,l),
(1046,1087,ls),
(1112,1196,o),
(1177,1309,o),
(1247,1426,c),
(1055,1426,l),
(1000,1330,o),
(958,1262,o),
(919,1192,cs),
(880,1123,o),
(844,1062,o),
(798,983,cs),
(661,746,l),
(643,746,l),
(502,991,ls),
(459,1067,o),
(425,1126,o),
(387,1192,cs),
(349,1258,o),
(308,1328,o),
(253,1426,c),
(56,1426,l),
(96,1359,o),
(130,1301,o),
(163,1247,cs),
(195,1192,o),
(226,1142,o),
(258,1086,c),
(570,561,l)
);
},
{
closed = 1;
nodes = (
(738,0,l),
(738,472,l),
(738,704,l),
(566,704,l),
(566,472,l),
(566,0,l)
);
}
);
width = 1300;
},
{
anchors = (
{
name = bottom;
position = "{630, 0}";
},
{
name = top;
position = "{630, 1426}";
},
{
name = topleft;
position = "{0, 1426}";
}
);
layerId = "17616679-9B94-41DB-9F8F-857BF431B8D7";
shapes = (
{
closed = 1;
nodes = (
(660,600,l),
(986,1102,ls),
(1054,1207,o),
(1124,1313,o),
(1196,1426,c),
(1120,1426,l),
(1052,1321,o),
(1001,1245,o),
(953,1169,cs),
(905,1093,o),
(860,1026,o),
(804,938,cs),
(636,678,l),
(624,678,l),
(450,948,ls),
(397,1032,o),
(355,1097,o),
(308,1169,cs),
(261,1241,o),
(211,1318,o),
(142,1426,c),
(66,1426,l),
(109,1361,o),
(144,1306,o),
(177,1254,cs),
(210,1202,o),
(243,1153,o),
(276,1101,cs),
(600,600,l)
);
},
{
closed = 1;
nodes = (
(662,0,l),
(662,476,l),
(662,652,l),
(598,652,l),
(598,476,l),
(598,0,l)
);
}
);
width = 1258;
}
);
leftKerningGroup = Y2;
rightKerningGroup = Y;
unicode = 89;
}
{
glyphname = Z;
layers = (
{
layerId = "3741C398-C536-4E04-9B31-DF775DED3426";
shapes = (
{
closed = 1;
nodes = (
(1348,0,l),
(1348,402,l),
(904,402,l),
(628,402,l),
(652,262,l),
(1069,777,ls),
(1157,885,o),
(1242,991,o),
(1334,1104,c),
(1334,1426,l),
(86,1426,l),
(86,1024,l),
(508,1024,l),
(814,1024,l),
(780,1164,l),
(368,640,ls),
(321,580,o),
(267,509,o),
(211,440,cs),
(155,371,o),
(103,304,o),
(60,248,c),
(60,0,l)
);
}
);
width = 1408;
},
{
layerId = "32AC1926-81FC-462E-AFF9-9B08428E2569";
shapes = (
{
closed = 1;
nodes = (
(1267,0,l),
(1267,218,l),
(707,218,l),
(359,218,l),
(385,126,l),
(919,812,ls),
(1032,957,o),
(1140,1098,o),
(1257,1247,c),
(1257,1426,l),
(106,1426,l),
(106,1208,l),
(632,1208,l),
(1013,1208,l),
(973,1292,l),
(463,630,ls),
(407,557,o),
(340,470,o),
(272,382,cs),
(204,294,o),
(140,209,o),
(87,141,c),
(87,0,l)
);
}
);
width = 1359;
},
{
layerId = "608C4FA3-96E7-4DF2-B0AE-105347578AB3";
shapes = (
{
closed = 1;
nodes = (
(1239,0,l),
(1239,156,l),
(640,156,l),
(268,156,l),
(295,80,l),
(868,824,ls),
(989,982,o),
(1106,1133,o),
(1231,1295,c),
(1231,1426,l),
(112,1426,l),
(112,1270,l),
(674,1270,l),
(1081,1270,l),
(1038,1335,l),
(495,626,ls),
(436,549,o),
(364,455,o),
(293,362,cs),
(222,269,o),
(152,177,o),
(96,105,c),
(96,0,l)
);
}
);
width = 1343;
},
{
layerId = "5E854513-9682-4163-9876-812542B08F08";
shapes = (
{
closed = 1;
nodes = (
(1198,0,l),
(1198,62,l),
(540,62,l),
(132,62,l),
(160,10,l),
(792,842,ls),
(925,1019,o),
(1055,1185,o),
(1192,1368,c),
(1192,1426,l),
(122,1426,l),
(122,1364,l),
(736,1364,l),
(1182,1364,l),
(1136,1400,l),
(544,621,ls),
(480,536,o),
(401,433,o),
(325,332,cs),
(248,231,o),
(171,130,o),
(110,50,c),
(110,0,l)
);
}
);
width = 1318;
}
);
leftKerningGroup = Z2;
rightKerningGroup = Z;
unicode = 90;
}
{
glyphname = bracketleft;
layers = (
{
layerId = "3741C398-C536-4E04-9B31-DF775DED3426";
shapes = (
{
closed = 1;
nodes = (
(830,-260,l),
(830,86,l),
(560,86,l),
(358,86,l),
(510,-180,l),
(510,278,l),
(510,1008,l),
(510,1486,l),
(326,1220,l),
(538,1220,l),
(820,1220,l),
(820,1566,l),
(110,1566,l),
(110,1088,l),
(110,198,l),
(110,-260,l)
);
}
);
width = 890;
},
{
layerId = "32AC1926-81FC-462E-AFF9-9B08428E2569";
shapes = (
{
closed = 1;
nodes = (
(743,-240,l),
(743,-49,l),
(447,-49,l),
(301,-49,l),
(388,-199,l),
(388,269,l),
(388,1024,l),
(388,1501,l),
(286,1350,l),
(433,1350,l),
(739,1350,l),
(739,1541,l),
(171,1541,l),
(171,1064,l),
(171,228,l),
(171,-240,l)
);
}
);
width = 782;
},
{
layerId = "608C4FA3-96E7-4DF2-B0AE-105347578AB3";
shapes = (
{
closed = 1;
nodes = (
(713,-234,l),
(713,-95,l),
(408,-95,l),
(281,-95,l),
(346,-206,l),
(346,265,l),
(346,1030,l),
(346,1506,l),
(272,1394,l),
(397,1394,l),
(711,1394,l),
(711,1533,l),
(191,1533,l),
(191,1056,l),
(191,238,l),
(191,-234,l)
);
}
);
width = 745;
},
{
layerId = "5E854513-9682-4163-9876-812542B08F08";
shapes = (
{
closed = 1;
nodes = (
(668,-224,l),
(668,-164,l),
(350,-164,l),
(252,-164,l),
(284,-216,l),
(284,260,l),
(284,1038,l),
(284,1514,l),
(252,1460,l),
(344,1460,l),
(670,1460,l),
(670,1520,l),
(222,1520,l),
(222,1044,l),
(222,252,l),
(222,-224,l)
);
}
);
width = 690;
}
);
rightKerningGroup = braceleft;
unicode = 91;
}
{
glyphname = backslash;
layers = (
{
layerId = "01881FF6-28F4-4241-92CC-0A260EF73B3D";
shapes = (
{
closed = 1;
nodes = (
(926,0,l),
(901,76,o),
(878,143,o),
(851,216,cs),
(824,288,o),
(798,364,o),
(766,456,cs),
(592,952,ls),
(559,1048,o),
(532,1126,o),
(505,1202,cs),
(478,1278,o),
(453,1349,o),
(426,1426,c),
(2,1426,l),
(29,1349,o),
(54,1278,o),
(81,1202,cs),
(108,1126,o),
(137,1045,o),
(170,948,cs),
(342,456,ls),
(374,364,o),
(400,288,o),
(427,216,cs),
(454,143,o),
(477,76,o),
(502,0,c)
);
}
);
width = 928;
},
{
layerId = "A55F0C2B-6E8D-4FB2-8CDB-992FDB8C8E10";
shapes = (
{
closed = 1;
nodes = (
(856,0,l),
(825,76,o),
(797,143,o),
(768,216,cs),
(739,288,o),
(707,364,o),
(670,456,cs),
(467,952,ls),
(428,1048,o),
(396,1126,o),
(365,1202,cs),
(334,1278,o),
(306,1349,o),
(274,1426,c),
(44,1426,l),
(76,1349,o),
(105,1278,o),
(136,1202,cs),
(167,1126,o),
(200,1044,o),
(239,948,cs),
(440,456,ls),
(477,364,o),
(509,288,o),
(538,216,cs),
(567,143,o),
(595,76,o),
(626,0,c)
);
}
);
width = 900;
},
{
layerId = "18A54BDD-310B-488C-A032-20C0CCB5659F";
shapes = (
{
closed = 1;
nodes = (
(829,0,l),
(797,76,o),
(767,143,o),
(737,216,cs),
(706,288,o),
(672,364,o),
(633,456,cs),
(420,952,ls),
(379,1048,o),
(345,1126,o),
(312,1202,cs),
(280,1278,o),
(250,1349,o),
(216,1426,c),
(60,1426,l),
(94,1349,o),
(124,1278,o),
(157,1202,cs),
(190,1126,o),
(224,1044,o),
(266,948,cs),
(477,456,ls),
(516,364,o),
(550,288,o),
(580,216,cs),
(611,143,o),
(641,76,o),
(673,0,c)
);
}
);
width = 889;
},
{
layerId = "42B9E918-1EE0-49C2-B7C8-A26B802712C7";
shapes = (
{
closed = 1;
nodes = (
(796,0,l),
(763,76,o),
(730,143,o),
(698,216,cs),
(665,288,o),
(629,364,o),
(588,456,cs),
(362,952,ls),
(319,1048,o),
(283,1126,o),
(248,1202,cs),
(213,1278,o),
(181,1349,o),
(146,1426,c),
(80,1426,l),
(115,1349,o),
(147,1278,o),
(182,1202,cs),
(217,1126,o),
(254,1044,o),
(298,948,cs),
(522,456,ls),
(563,364,o),
(599,288,o),
(632,216,cs),
(664,143,o),
(697,76,o),
(730,0,c)
);
}
);
width = 876;
}
);
unicode = 92;
}
{
glyphname = bracketright;
layers = (
{
layerId = "7B7025DB-32D1-45E9-B8AD-2A1739A26F17";
shapes = (
{
closed = 1;
nodes = (
(780,-260,l),
(780,218,l),
(780,1108,l),
(780,1566,l),
(60,1566,l),
(60,1220,l),
(330,1220,l),
(532,1220,l),
(380,1486,l),
(380,1028,l),
(380,298,l),
(380,-180,l),
(564,86,l),
(352,86,l),
(70,86,l),
(70,-260,l)
);
}
);
width = 890;
},
{
layerId = "E0D3637C-DFAE-46FE-ABBC-43C2FC0937C6";
shapes = (
{
closed = 1;
nodes = (
(611,-240,l),
(611,237,l),
(611,1073,l),
(611,1541,l),
(39,1541,l),
(39,1350,l),
(335,1350,l),
(481,1350,l),
(394,1500,l),
(394,1032,l),
(394,277,l),
(394,-200,l),
(496,-49,l),
(349,-49,l),
(43,-49,l),
(43,-240,l)
);
}
);
width = 782;
},
{
layerId = "92B4EA3D-FB5D-4A4F-93D4-532A379F7211";
shapes = (
{
closed = 1;
nodes = (
(468,-224,l),
(468,252,l),
(468,1044,l),
(468,1520,l),
(22,1520,l),
(22,1460,l),
(340,1460,l),
(438,1460,l),
(406,1512,l),
(406,1036,l),
(406,258,l),
(406,-218,l),
(438,-164,l),
(346,-164,l),
(20,-164,l),
(20,-224,l)
);
}
);
width = 690;
}
);
leftKerningGroup = braceright;
unicode = 93;
}
{
glyphname = asciicircum;
layers = (
{
layerId = "E1D9B40E-63EA-4761-B046-1A10EFD45ACD";
shapes = (
{
closed = 1;
nodes = (
(1246,682,l),
(1133,918,o),
(1027,1144,o),
(914,1380,c),
(402,1380,l),
(289,1144,o),
(183,922,o),
(70,686,c),
(458,686,l),
(519,794,o),
(581,898,o),
(642,1006,c),
(674,1006,l),
(738,893,o),
(796,791,o),
(860,678,c)
);
}
);
width = 1316;
},
{
layerId = "DAFD1245-179E-4A07-AD68-D4889A9FCF84";
shapes = (
{
closed = 1;
nodes = (
(1134,741,l),
(1009,954,o),
(888,1159,o),
(763,1374,c),
(479,1374,l),
(354,1159,o),
(233,958,o),
(108,745,c),
(326,745,l),
(422,886,o),
(515,1027,o),
(611,1172,c),
(632,1172,l),
(728,1027,o),
(821,883,o),
(917,738,c)
);
}
);
width = 1242;
},
{
layerId = "87D6F04F-5F5B-448D-9F51-E06B2445F72F";
shapes = (
{
closed = 1;
nodes = (
(1040,790,l),
(903,986,o),
(773,1172,o),
(636,1368,c),
(544,1368,l),
(407,1172,o),
(277,990,o),
(140,794,c),
(214,794,l),
(339,970,o),
(459,1136,o),
(584,1312,c),
(596,1312,l),
(721,1135,o),
(841,965,o),
(966,788,c)
);
}
);
width = 1180;
}
);
unicode = 94;
}
{
glyphname = underscore;
layers = (
{
layerId = "53B253BD-EAB0-49E0-8B4C-FD971ECE0D4A";
shapes = (
{
closed = 1;
nodes = (
(-20,-416,l),
(396,-416,l),
(524,-416,l),
(940,-416,l),
(940,-60,l),
(524,-60,l),
(396,-60,l),
(-20,-60,l)
);
}
);
width = 920;
},
{
layerId = "3B65AEAE-576E-4C08-BDA7-4B24E1278BB4";
shapes = (
{
closed = 1;
nodes = (
(-20,-286,l),
(344,-286,l),
(489,-286,l),
(853,-286,l),
(853,-93,l),
(489,-93,l),
(344,-93,l),
(-20,-93,l)
);
}
);
width = 833;
},
{
layerId = "359FCFA0-5099-431D-AD00-ECD767CAC005";
shapes = (
{
closed = 1;
nodes = (
(-20,-237,l),
(324,-237,l),
(476,-237,l),
(820,-237,l),
(820,-105,l),
(476,-105,l),
(324,-105,l),
(-20,-105,l)
);
}
);
width = 800;
},
{
layerId = "3AA18437-0CC1-4501-8D0B-B0921B064785";
shapes = (
{
closed = 1;
nodes = (
(-20,-176,l),
(300,-176,l),
(460,-176,l),
(780,-176,l),
(780,-120,l),
(460,-120,l),
(300,-120,l),
(-20,-120,l)
);
}
);
width = 760;
}
);
unicode = 95;
}
{
glyphname = a;
layers = (
{
anchors = (
{
name = bottom;
position = "{534, 0}";
},
{
name = ogonek;
position = "{990, 0}";
},
{
name = top;
position = "{534, 1004}";
}
);
layerId = "8B77E4EB-3567-454C-B5DE-35FF0E228404";
shapes = (
{
closed = 1;
nodes = (
(366,-28,o),
(422,-9,o),
(469,23,cs),
(516,55,o),
(549,98,o),
(574,146,c),
(602,146,l),
(632,0,l),
(990,0,l),
(990,666,ls),
(990,798,o),
(950,889,o),
(878,949,cs),
(805,1009,o),
(699,1036,o),
(566,1036,cs),
(461,1036,o),
(366,1025,o),
(283,1009,cs),
(200,993,o),
(133,974,o),
(82,958,c),
(100,594,l),
(156,623,o),
(217,643,o),
(276,658,cs),
(335,673,o),
(391,678,o),
(436,678,cs),
(496,678,o),
(536,671,o),
(563,660,cs),
(590,648,o),
(599,633,o),
(598,616,c),
(342,568,ls),
(290,559,o),
(214,538,o),
(150,491,cs),
(86,444,o),
(36,371,o),
(36,252,cs),
(36,179,o),
(56,108,o),
(100,57,c),
(143,5,o),
(209,-28,o),
(298,-28,cs)
);
},
{
closed = 1;
nodes = (
(493,306,o),
(477,311,o),
(466,322,cs),
(454,333,o),
(446,349,o),
(446,372,cs),
(446,396,o),
(454,415,o),
(466,428,cs),
(478,440,o),
(494,448,o),
(510,452,cs),
(586,470,l),
(586,358,l),
(575,343,o),
(564,330,o),
(549,321,cs),
(534,312,o),
(521,306,o),
(506,306,cs)
);
}
);
width = 1050;
},
{
anchors = (
{
name = bottom;
position = "{530, 0}";
},
{
name = ogonek;
position = "{932, 0}";
},
{
name = top;
position = "{530, 996}";
}
);
layerId = "19E1FC53-860E-4D5D-A2A6-9023894BFCE5";
shapes = (
{
closed = 1;
nodes = (
(457,-22,o),
(518,-2,o),
(569,27,cs),
(620,55,o),
(658,93,o),
(686,128,c),
(706,128,l),
(720,0,l),
(932,0,l),
(932,672,ls),
(932,796,o),
(898,882,o),
(831,938,cs),
(764,994,o),
(669,1020,o),
(548,1020,cs),
(467,1020,o),
(388,1010,o),
(316,995,cs),
(244,980,o),
(181,961,o),
(132,942,c),
(144,734,l),
(212,765,o),
(273,786,o),
(332,802,cs),
(391,817,o),
(443,824,o),
(488,824,cs),
(552,824,o),
(607,815,o),
(646,787,cs),
(685,759,o),
(707,714,o),
(704,638,c),
(416,596,ls),
(336,584,o),
(256,559,o),
(193,510,cs),
(132,461,o),
(88,387,o),
(88,276,cs),
(88,180,o),
(120,106,o),
(173,55,cs),
(226,4,o),
(300,-22,o),
(384,-22,cs)
);
},
{
closed = 1;
nodes = (
(428,164,o),
(394,172,o),
(369,192,cs),
(344,211,o),
(328,241,o),
(328,286,cs),
(328,327,o),
(340,360,o),
(364,387,cs),
(388,414,o),
(423,430,o),
(468,438,cs),
(698,481,l),
(698,336,l),
(671,283,o),
(635,242,o),
(595,211,cs),
(554,180,o),
(509,164,o),
(464,164,cs)
);
}
);
width = 1056;
},
{
anchors = (
{
name = bottom;
position = "{528, 0}";
},
{
name = ogonek;
position = "{852, 0}";
},
{
name = top;
position = "{528, 988}";
}
);
layerId = "4B7CD45B-7769-4DE2-BE7C-34587D3AC654";
shapes = (
{
closed = 1;
nodes = (
(507,-18,o),
(577,3,o),
(637,35,cs),
(697,67,o),
(749,112,o),
(782,160,c),
(794,160,l),
(794,0,l),
(852,0,l),
(852,678,ls),
(852,795,o),
(821,877,o),
(765,930,cs),
(709,983,o),
(629,1008,o),
(532,1008,cs),
(472,1008,o),
(409,1000,o),
(345,985,cs),
(281,970,o),
(222,951,o),
(174,930,c),
(180,864,l),
(256,895,o),
(320,915,o),
(379,927,cs),
(438,939,o),
(487,944,o),
(532,944,cs),
(605,944,o),
(673,935,o),
(722,888,cs),
(770,841,o),
(799,764,o),
(794,624,c),
(448,552,ls),
(379,537,o),
(302,515,o),
(239,470,cs),
(178,425,o),
(132,358,o),
(132,254,cs),
(132,173,o),
(159,105,o),
(211,57,cs),
(263,9,o),
(338,-18,o),
(434,-18,cs)
);
},
{
closed = 1;
nodes = (
(365,46,o),
(305,61,o),
(262,94,cs),
(219,127,o),
(194,180,o),
(194,256,cs),
(194,333,o),
(226,385,o),
(277,422,cs),
(328,459,o),
(396,480,o),
(472,496,cs),
(794,562,l),
(792,282,l),
(752,197,o),
(696,140,o),
(632,101,cs),
(568,62,o),
(499,46,o),
(434,46,cs)
);
}
);
width = 1032;
}
);
leftKerningGroup = a2;
rightKerningGroup = a;
unicode = 97;
}
{
glyphname = b;
layers = (
{
layerId = "DBFEB7CD-EA6A-4398-9607-E41666997EF2";
shapes = (
{
closed = 1;
nodes = (
(902,-32,o),
(995,31,o),
(1056,131,cs),
(1117,231,o),
(1146,362,o),
(1146,502,cs),
(1146,651,o),
(1117,785,o),
(1053,881,cs),
(989,977,o),
(897,1036,o),
(768,1036,cs),
(719,1036,o),
(675,1027,o),
(639,1007,cs),
(602,987,o),
(571,956,o),
(546,912,c),
(514,912,l),
(514,986,l),
(514,1500,l),
(70,1468,l),
(70,986,l),
(70,426,l),
(70,0,l),
(414,0,l),
(466,114,l),
(492,114,l),
(556,26,o),
(641,-32,o),
(770,-32,cs)
);
},
{
closed = 1;
nodes = (
(549,338,o),
(525,363,o),
(514,394,c),
(514,624,l),
(530,644,o),
(557,660,o),
(588,660,cs),
(623,660,o),
(647,643,o),
(666,612,cs),
(685,581,o),
(692,541,o),
(692,498,cs),
(692,458,o),
(684,420,o),
(665,389,cs),
(646,358,o),
(621,338,o),
(588,338,cs)
);
}
);
width = 1186;
},
{
layerId = "38EDA6ED-2D3B-4EB9-8093-529BF0DC7182";
shapes = (
{
closed = 1;
nodes = (
(827,-24,o),
(929,38,o),
(997,134,cs),
(1065,230,o),
(1098,360,o),
(1098,500,cs),
(1098,649,o),
(1063,779,o),
(992,872,cs),
(921,964,o),
(817,1021,o),
(684,1021,cs),
(620,1021,o),
(563,1007,o),
(516,984,cs),
(468,960,o),
(430,928,o),
(403,889,c),
(382,889,l),
(382,987,l),
(382,1488,l),
(146,1465,l),
(146,987,l),
(146,435,l),
(146,0,l),
(335,0,l),
(359,128,l),
(377,128,l),
(453,32,o),
(550,-24,o),
(687,-24,cs)
);
},
{
closed = 1;
nodes = (
(499,180,o),
(430,231,o),
(382,315,c),
(382,702,l),
(433,775,o),
(513,814,o),
(601,814,cs),
(689,814,o),
(751,778,o),
(794,721,cs),
(837,664,o),
(857,586,o),
(857,498,cs),
(857,417,o),
(837,338,o),
(796,278,cs),
(755,218,o),
(691,180,o),
(603,180,cs)
);
}
);
width = 1184;
},
{
layerId = "5813D18E-CE46-47D4-BE44-DF651A6D3020";
shapes = (
{
closed = 1;
nodes = (
(764,-18,o),
(872,41,o),
(947,136,cs),
(1022,231,o),
(1058,358,o),
(1058,498,cs),
(1058,646,o),
(1016,771,o),
(940,863,cs),
(863,955,o),
(752,1008,o),
(612,1008,cs),
(536,1008,o),
(469,991,o),
(413,964,cs),
(356,937,o),
(311,903,o),
(282,870,c),
(270,870,l),
(270,988,l),
(270,1478,l),
(210,1462,l),
(210,988,l),
(210,442,l),
(210,0,l),
(268,0,l),
(268,140,l),
(280,140,l),
(364,37,o),
(473,-18,o),
(616,-18,cs)
);
},
{
closed = 1;
nodes = (
(459,46,o),
(350,119,o),
(270,248,c),
(270,768,l),
(350,888,o),
(476,944,o),
(612,944,cs),
(744,944,o),
(839,894,o),
(903,814,cs),
(967,733,o),
(996,622,o),
(996,498,cs),
(996,381,o),
(970,268,o),
(907,184,cs),
(844,100,o),
(752,46,o),
(616,46,cs)
);
}
);
width = 1182;
}
);
leftKerningGroup = b2;
rightKerningGroup = b;
unicode = 98;
}
{
glyphname = c;
layers = (
{
layerId = "3741C398-C536-4E04-9B31-DF775DED3426";
shapes = (
{
closed = 1;
nodes = (
(737,-24,o),
(827,-10,o),
(902,14,c),
(886,388,l),
(830,349,o),
(768,332,o),
(704,332,cs),
(636,332,o),
(583,349,o),
(546,380,cs),
(509,411,o),
(488,456,o),
(488,512,cs),
(488,559,o),
(503,597,o),
(530,624,cs),
(557,651,o),
(595,666,o),
(640,666,cs),
(663,666,o),
(693,665,o),
(733,654,cs),
(772,643,o),
(821,625,o),
(878,592,c),
(908,966,l),
(865,989,o),
(816,1005,o),
(756,1017,cs),
(696,1028,o),
(635,1034,o),
(574,1034,cs),
(387,1034,o),
(255,979,o),
(167,883,cs),
(79,787,o),
(36,655,o),
(36,498,cs),
(36,345,o),
(85,214,o),
(181,122,cs),
(277,30,o),
(413,-24,o),
(594,-24,cs)
);
}
);
width = 948;
},
{
layerId = "32AC1926-81FC-462E-AFF9-9B08428E2569";
shapes = (
{
closed = 1;
nodes = (
(735,-21,o),
(833,5,o),
(901,37,c),
(886,245,l),
(813,198,o),
(733,177,o),
(653,177,cs),
(545,177,o),
(464,210,o),
(408,270,cs),
(352,330,o),
(325,410,o),
(325,503,cs),
(325,599,o),
(353,676,o),
(404,732,cs),
(455,788,o),
(527,817,o),
(615,817,cs),
(647,817,o),
(686,814,o),
(730,803,cs),
(774,791,o),
(825,771,o),
(881,739,c),
(900,947,l),
(860,970,o),
(812,987,o),
(756,1000,cs),
(700,1013,o),
(643,1020,o),
(583,1020,cs),
(418,1020,o),
(296,964,o),
(212,871,cs),
(128,778,o),
(84,646,o),
(84,497,cs),
(84,348,o),
(131,219,o),
(219,127,cs),
(307,34,o),
(434,-21,o),
(602,-21,cs)
);
}
);
width = 978;
},
{
layerId = "608C4FA3-96E7-4DF2-B0AE-105347578AB3";
shapes = (
{
closed = 1;
nodes = (
(734,-20,o),
(834,10,o),
(900,45,c),
(885,197,l),
(806,146,o),
(721,125,o),
(635,125,cs),
(514,125,o),
(424,164,o),
(361,233,cs),
(299,301,o),
(269,394,o),
(269,500,cs),
(269,613,o),
(302,703,o),
(361,768,cs),
(421,834,o),
(503,868,o),
(606,868,cs),
(641,868,o),
(683,864,o),
(729,853,cs),
(774,841,o),
(825,820,o),
(881,788,c),
(897,940,l),
(857,963,o),
(811,981,o),
(756,994,cs),
(701,1008,o),
(645,1015,o),
(586,1015,cs),
(429,1015,o),
(309,960,o),
(226,867,cs),
(144,774,o),
(100,644,o),
(100,497,cs),
(100,349,o),
(145,221,o),
(231,129,cs),
(318,36,o),
(441,-20,o),
(604,-20,cs)
);
}
);
width = 988;
},
{
layerId = "5E854513-9682-4163-9876-812542B08F08";
shapes = (
{
closed = 1;
nodes = (
(733,-18,o),
(835,17,o),
(898,56,c),
(884,124,l),
(796,68,o),
(704,46,o),
(608,46,cs),
(467,46,o),
(363,96,o),
(291,177,cs),
(219,257,o),
(186,371,o),
(186,496,cs),
(186,633,o),
(225,743,o),
(297,823,cs),
(369,903,o),
(467,944,o),
(592,944,cs),
(633,944,o),
(678,939,o),
(727,927,cs),
(775,915,o),
(826,894,o),
(882,862,c),
(892,930,l),
(853,953,o),
(809,971,o),
(756,986,cs),
(703,1001,o),
(647,1008,o),
(590,1008,cs),
(445,1008,o),
(328,953,o),
(248,861,cs),
(168,769,o),
(124,641,o),
(124,496,cs),
(124,351,o),
(166,223,o),
(250,131,cs),
(334,39,o),
(451,-18,o),
(608,-18,cs)
);
}
);
width = 1004;
}
);
leftKerningGroup = c;
unicode = 99;
}
{
glyphname = d;
layers = (
{
layerId = "3741C398-C536-4E04-9B31-DF775DED3426";
shapes = (
{
closed = 1;
nodes = (
(537,-32,o),
(620,22,o),
(688,126,c),
(714,126,l),
(744,0,l),
(1116,0,l),
(1116,426,l),
(1116,986,l),
(1116,1500,l),
(672,1468,l),
(672,986,l),
(672,912,l),
(640,912,l),
(615,956,o),
(584,987,o),
(548,1007,cs),
(511,1027,o),
(469,1036,o),
(418,1036,cs),
(289,1036,o),
(197,977,o),
(133,881,cs),
(69,785,o),
(40,651,o),
(40,502,cs),
(40,361,o),
(69,231,o),
(130,131,cs),
(191,31,o),
(283,-32,o),
(416,-32,cs)
);
},
{
closed = 1;
nodes = (
(565,338,o),
(541,358,o),
(522,389,cs),
(503,420,o),
(494,458,o),
(494,498,cs),
(494,541,o),
(502,581,o),
(521,612,cs),
(540,643,o),
(565,660,o),
(598,660,cs),
(629,660,o),
(656,644,o),
(672,624,c),
(672,394,l),
(661,363,o),
(637,338,o),
(598,338,cs)
);
}
);
width = 1186;
},
{
layerId = "32AC1926-81FC-462E-AFF9-9B08428E2569";
shapes = (
{
closed = 1;
nodes = (
(630,-24,o),
(728,30,o),
(804,134,c),
(822,134,l),
(836,0,l),
(1038,0,l),
(1038,435,l),
(1038,987,l),
(1038,1488,l),
(802,1465,l),
(802,987,l),
(802,889,l),
(781,889,l),
(753,928,o),
(715,961,o),
(668,985,c),
(620,1008,o),
(564,1021,o),
(500,1021,cs),
(367,1021,o),
(265,964,o),
(193,872,cs),
(121,779,o),
(86,649,o),
(86,500,cs),
(86,359,o),
(119,230,o),
(187,134,cs),
(255,38,o),
(356,-24,o),
(497,-24,cs)
);
},
{
closed = 1;
nodes = (
(493,180,o),
(429,218,o),
(388,278,cs),
(347,338,o),
(327,417,o),
(327,498,cs),
(327,586,o),
(347,664,o),
(390,721,cs),
(433,778,o),
(495,814,o),
(583,814,cs),
(671,814,o),
(751,775,o),
(802,702,c),
(802,315,l),
(754,231,o),
(685,180,o),
(581,180,cs)
);
}
);
width = 1163;
},
{
layerId = "608C4FA3-96E7-4DF2-B0AE-105347578AB3";
shapes = (
{
closed = 1;
nodes = (
(662,-22,o),
(764,32,o),
(843,136,c),
(859,136,l),
(867,0,l),
(1012,0,l),
(1012,438,l),
(1012,987,l),
(1012,1484,l),
(846,1464,l),
(846,987,l),
(846,881,l),
(829,881,l),
(800,919,o),
(759,952,o),
(708,977,cs),
(657,1002,o),
(597,1016,o),
(528,1016,cs),
(392,1016,o),
(287,960,o),
(213,868,cs),
(139,776,o),
(101,648,o),
(101,499,cs),
(101,358,o),
(135,231,o),
(207,135,cs),
(278,39,o),
(382,-22,o),
(525,-22,cs)
);
},
{
closed = 1;
nodes = (
(469,126,o),
(393,171,o),
(343,240,cs),
(293,310,o),
(271,403,o),
(271,498,cs),
(271,601,o),
(295,692,o),
(346,758,cs),
(397,824,o),
(472,866,o),
(578,866,cs),
(685,866,o),
(783,821,o),
(846,728,c),
(846,288,l),
(785,186,o),
(700,126,o),
(575,126,cs)
);
}
);
width = 1155;
},
{
layerId = "5E854513-9682-4163-9876-812542B08F08";
shapes = (
{
closed = 1;
nodes = (
(711,-18,o),
(818,36,o),
(902,140,c),
(914,140,l),
(914,0,l),
(972,0,l),
(972,442,l),
(972,988,l),
(972,1478,l),
(912,1462,l),
(912,988,l),
(912,870,l),
(900,870,l),
(871,905,o),
(825,938,o),
(769,965,cs),
(713,992,o),
(646,1008,o),
(570,1008,cs),
(429,1008,o),
(319,955,o),
(243,863,cs),
(166,771,o),
(124,647,o),
(124,498,cs),
(124,357,o),
(160,232,o),
(236,136,cs),
(312,40,o),
(421,-18,o),
(566,-18,cs)
);
},
{
closed = 1;
nodes = (
(433,46,o),
(340,100,o),
(276,184,cs),
(212,268,o),
(186,381,o),
(186,498,cs),
(186,623,o),
(216,733,o),
(280,814,cs),
(344,894,o),
(437,944,o),
(570,944,cs),
(707,944,o),
(832,889,o),
(912,768,c),
(912,248,l),
(832,119,o),
(723,46,o),
(566,46,cs)
);
}
);
width = 1144;
}
);
leftKerningGroup = d2;
rightKerningGroup = d;
unicode = 100;
}
{
glyphname = e;
layers = (
{
layerId = "E1D9B40E-63EA-4761-B046-1A10EFD45ACD";
shapes = (
{
closed = 1;
nodes = (
(799,-32,o),
(918,-3,o),
(998,28,c),
(984,392,l),
(936,371,o),
(878,354,o),
(822,343,cs),
(766,331,o),
(716,326,o),
(684,326,cs),
(600,326,o),
(543,340,o),
(506,368,cs),
(469,396,o),
(452,439,o),
(452,496,cs),
(452,574,ls),
(452,639,o),
(464,684,o),
(483,713,cs),
(502,741,o),
(525,754,o),
(550,754,cs),
(574,754,o),
(594,741,o),
(609,714,cs),
(624,687,o),
(632,651,o),
(632,606,cs),
(632,591,o),
(631,574,o),
(628,558,c),
(1002,436,l),
(1009,479,o),
(1012,516,o),
(1012,576,cs),
(1012,737,o),
(970,851,o),
(890,927,cs),
(810,1003,o),
(695,1036,o),
(546,1036,cs),
(366,1036,o),
(243,983,o),
(159,887,cs),
(75,791,o),
(36,659,o),
(36,502,cs),
(36,345,o),
(78,214,o),
(174,118,cs),
(270,22,o),
(414,-32,o),
(626,-32,cs)
);
},
{
closed = 1;
nodes = (
(1002,436,l),
(1002,596,l),
(748,620,l),
(202,620,l),
(202,436,l)
);
}
);
width = 1052;
},
{
layerId = "DAFD1245-179E-4A07-AD68-D4889A9FCF84";
shapes = (
{
closed = 1;
nodes = (
(767,-24,o),
(882,3,o),
(958,42,c),
(950,246,l),
(903,221,o),
(849,203,o),
(796,191,cs),
(743,179,o),
(691,174,o),
(648,174,cs),
(535,174,o),
(458,204,o),
(402,260,cs),
(346,316,o),
(322,397,o),
(322,498,cs),
(322,534,ls),
(322,626,o),
(345,700,o),
(388,756,cs),
(431,812,o),
(489,842,o),
(558,842,cs),
(619,842,o),
(671,821,o),
(708,778,cs),
(744,735,o),
(766,674,o),
(766,598,cs),
(766,579,o),
(765,561,o),
(762,542,c),
(968,456,l),
(975,496,o),
(976,534,o),
(976,586,cs),
(976,731,o),
(936,839,o),
(864,911,cs),
(792,983,o),
(689,1020,o),
(556,1020,cs),
(403,1020,o),
(286,967,o),
(206,875,cs),
(126,783,o),
(84,655,o),
(84,502,cs),
(84,349,o),
(126,217,o),
(214,124,cs),
(302,31,o),
(434,-24,o),
(622,-24,cs)
);
},
{
closed = 1;
nodes = (
(968,456,l),
(968,564,l),
(828,624,l),
(178,624,l),
(178,456,l)
);
}
);
width = 1054;
},
{
layerId = "87D6F04F-5F5B-448D-9F51-E06B2445F72F";
shapes = (
{
closed = 1;
nodes = (
(739,-18,o),
(850,7,o),
(926,54,c),
(920,122,l),
(875,95,o),
(825,76,o),
(774,64,cs),
(723,52,o),
(671,46,o),
(618,46,cs),
(469,46,o),
(364,89,o),
(292,169,cs),
(220,249,o),
(186,361,o),
(186,498,cs),
(186,502,ls),
(186,631,o),
(220,739,o),
(285,819,cs),
(349,899,o),
(445,944,o),
(566,944,cs),
(662,944,o),
(742,918,o),
(798,858,cs),
(854,798,o),
(886,711,o),
(886,590,cs),
(886,570,o),
(887,551,o),
(884,528,c),
(938,474,l),
(945,513,o),
(946,547,o),
(946,594,cs),
(946,727,o),
(911,827,o),
(843,899,cs),
(775,971,o),
(681,1008,o),
(564,1008,cs),
(431,1008,o),
(323,958,o),
(246,866,cs),
(169,774,o),
(124,651,o),
(124,502,cs),
(124,353,o),
(163,222,o),
(247,130,cs),
(331,37,o),
(450,-18,o),
(618,-18,cs)
);
},
{
closed = 1;
nodes = (
(938,474,l),
(938,526,l),
(894,532,l),
(156,532,l),
(156,474,l)
);
}
);
width = 1056;
}
);
leftKerningGroup = c;
rightKerningGroup = e;
unicode = 101;
}
{
glyphname = g;
layers = (
{
layerId = "62234CA8-D9DA-40C8-A1F9-A1EA38C8BE22";
name = "#instance";
shapes = (
{
closed = 1;
nodes = (
(529,-404,o),
(565,-402,o),
(602,-395,cs),
(675,-382,o),
(744,-358,o),
(805,-323,c),
(836,-304,o),
(861,-284,o),
(884,-261,c),
(928,-214,o),
(956,-157,o),
(956,-92,cs),
(956,-23,o),
(934,29,o),
(870,62,cs),
(806,94,o),
(711,110,o),
(562,110,cs),
(516,110,ls),
(428,110,o),
(368,116,o),
(329,132,cs),
(290,148,o),
(274,173,o),
(274,212,cs),
(274,251,o),
(294,276,o),
(334,297,cs),
(374,317,o),
(434,334,o),
(518,354,cs),
(622,378,o),
(700,413,o),
(756,466,cs),
(812,518,o),
(840,588,o),
(840,684,cs),
(840,744,o),
(826,798,o),
(794,846,cs),
(762,894,o),
(714,935,o),
(642,964,c),
(620,930,l),
(1026,930,l),
(1026,988,l),
(690,988,ls),
(645,988,o),
(612,993,o),
(581,998,cs),
(549,1003,o),
(519,1008,o),
(478,1008,cs),
(381,1008,o),
(290,979,o),
(226,923,cs),
(161,867,o),
(120,790,o),
(120,690,cs),
(120,585,o),
(165,509,o),
(217,458,cs),
(269,407,o),
(326,381,o),
(350,374,c),
(350,364,l),
(309,351,o),
(276,331,o),
(253,307,cs),
(229,282,o),
(216,251,o),
(216,212,cs),
(216,167,o),
(233,135,o),
(256,112,cs),
(279,89,o),
(305,77,o),
(324,72,c),
(324,62,l),
(287,53,o),
(236,30,o),
(196,-9,cs),
(155,-48,o),
(124,-98,o),
(124,-166,cs),
(124,-222,o),
(144,-282,o),
(200,-327,cs),
(256,-372,o),
(349,-404,o),
(494,-404,cs)
);
},
{
closed = 1;
nodes = (
(373,-340,o),
(297,-319,o),
(250,-287,cs),
(203,-255,o),
(186,-211,o),
(186,-164,cs),
(186,-99,o),
(226,-45,o),
(290,-9,cs),
(354,28,o),
(437,48,o),
(522,48,cs),
(564,48,ls),
(701,48,o),
(781,38,o),
(830,15,cs),
(878,-8,o),
(894,-44,o),
(894,-96,cs),
(894,-152,o),
(859,-211,o),
(791,-259,cs),
(723,-306,o),
(623,-340,o),
(490,-340,cs)
);
},
{
closed = 1;
nodes = (
(393,409,o),
(323,436,o),
(271,484,cs),
(218,531,o),
(182,598,o),
(182,690,cs),
(182,779,o),
(215,843,o),
(271,884,cs),
(327,925,o),
(400,944,o),
(484,944,cs),
(544,944,o),
(615,928,o),
(675,885,cs),
(735,842,o),
(778,780,o),
(778,684,cs),
(778,576,o),
(733,513,o),
(669,473,cs),
(605,432,o),
(527,415,o),
(462,400,c)
);
}
);
width = 1072;
},
{
layerId = "53B253BD-EAB0-49E0-8B4C-FD971ECE0D4A";
shapes = (
{
closed = 1;
nodes = (
(513,-412,o),
(562,-409,o),
(611,-404,cs),
(711,-392,o),
(804,-367,o),
(885,-324,cs),
(925,-303,o),
(960,-277,o),
(991,-246,cs),
(1051,-185,o),
(1088,-104,o),
(1088,4,cs),
(1088,125,o),
(1043,194,o),
(967,237,cs),
(891,280,o),
(791,292,o),
(674,292,cs),
(638,292,ls),
(599,292,o),
(571,294,o),
(552,299,cs),
(533,304,o),
(524,313,o),
(524,328,cs),
(524,347,o),
(533,358,o),
(553,367,cs),
(572,375,o),
(601,382,o),
(642,390,cs),
(723,406,o),
(804,434,o),
(864,481,cs),
(924,528,o),
(964,592,o),
(964,680,cs),
(964,728,o),
(958,771,o),
(943,810,cs),
(928,849,o),
(909,880,o),
(882,908,c),
(770,748,l),
(1088,748,l),
(1088,1012,l),
(850,1012,ls),
(769,1012,o),
(715,1018,o),
(664,1025,cs),
(613,1032,o),
(567,1036,o),
(502,1036,cs),
(326,1036,o),
(214,997,o),
(138,933,cs),
(62,869,o),
(32,786,o),
(32,694,cs),
(32,610,o),
(58,546,o),
(99,495,cs),
(139,444,o),
(195,409,o),
(256,386,c),
(256,360,l),
(209,344,o),
(177,319,o),
(154,288,cs),
(131,257,o),
(122,223,o),
(122,190,cs),
(122,149,o),
(139,113,o),
(164,86,cs),
(188,59,o),
(221,43,o),
(254,36,c),
(254,10,l),
(214,1,o),
(165,-17,o),
(126,-48,cs),
(87,-79,o),
(58,-122,o),
(58,-186,cs),
(58,-250,o),
(82,-305,o),
(146,-346,cs),
(210,-386,o),
(311,-412,o),
(464,-412,cs)
);
},
{
closed = 1;
nodes = (
(488,-148,o),
(458,-143,o),
(438,-134,cs),
(418,-125,o),
(408,-112,o),
(408,-96,cs),
(408,-73,o),
(422,-59,o),
(442,-48,cs),
(462,-37,o),
(489,-32,o),
(514,-28,c),
(538,-28,ls),
(598,-28,o),
(631,-33,o),
(651,-44,cs),
(671,-55,o),
(676,-67,o),
(676,-80,cs),
(676,-95,o),
(664,-112,o),
(640,-125,cs),
(616,-138,o),
(579,-148,o),
(528,-148,cs)
);
},
{
closed = 1;
nodes = (
(483,565,o),
(466,576,o),
(454,589,cs),
(442,601,o),
(434,617,o),
(434,632,cs),
(434,648,o),
(441,663,o),
(456,674,cs),
(471,685,o),
(489,692,o),
(514,692,cs),
(543,692,o),
(565,685,o),
(581,674,c),
(596,662,o),
(604,647,o),
(604,630,cs),
(604,610,o),
(592,592,o),
(573,580,cs),
(554,568,o),
(529,560,o),
(502,560,c)
);
}
);
width = 1116;
},
{
layerId = "3B65AEAE-576E-4C08-BDA7-4B24E1278BB4";
shapes = (
{
closed = 1;
nodes = (
(525,-408,o),
(567,-406,o),
(610,-399,cs),
(694,-387,o),
(775,-362,o),
(844,-323,cs),
(879,-304,o),
(908,-281,o),
(935,-254,cs),
(986,-201,o),
(1018,-132,o),
(1018,-48,cs),
(1018,44,o),
(984,105,o),
(916,142,cs),
(848,179,o),
(749,194,o),
(616,194,cs),
(574,194,ls),
(509,194,o),
(465,197,o),
(434,206,cs),
(403,214,o),
(390,229,o),
(390,250,cs),
(390,270,o),
(404,284,o),
(435,297,cs),
(466,309,o),
(511,321,o),
(572,334,cs),
(668,355,o),
(745,390,o),
(805,446,cs),
(865,502,o),
(896,577,o),
(896,678,cs),
(896,735,o),
(885,786,o),
(862,830,cs),
(838,874,o),
(803,910,o),
(752,938,c),
(688,830,l),
(1054,830,l),
(1054,998,l),
(764,998,ls),
(703,998,o),
(659,1004,o),
(619,1009,cs),
(578,1014,o),
(540,1020,o),
(488,1020,cs),
(355,1020,o),
(254,988,o),
(185,928,cs),
(116,868,o),
(80,788,o),
(80,692,cs),
(80,596,o),
(115,528,o),
(159,477,cs),
(203,426,o),
(255,397,o),
(290,382,c),
(290,364,l),
(249,345,o),
(219,321,o),
(200,294,cs),
(180,266,o),
(172,235,o),
(172,202,cs),
(172,155,o),
(190,121,o),
(211,98,cs),
(232,74,o),
(257,61,o),
(272,56,c),
(272,38,l),
(243,29,o),
(197,8,o),
(161,-27,cs),
(124,-62,o),
(94,-108,o),
(94,-176,cs),
(94,-236,o),
(117,-292,o),
(177,-336,cs),
(237,-379,o),
(335,-408,o),
(484,-408,cs)
);
},
{
closed = 1;
nodes = (
(438,-226,o),
(387,-212,o),
(355,-192,cs),
(323,-172,o),
(308,-145,o),
(308,-118,cs),
(308,-85,o),
(337,-54,o),
(377,-33,cs),
(417,-12,o),
(470,3,o),
(518,4,c),
(552,4,ls),
(652,4,o),
(713,-4,o),
(749,-20,cs),
(785,-36,o),
(796,-59,o),
(796,-88,cs),
(796,-111,o),
(773,-146,o),
(725,-175,cs),
(677,-203,o),
(606,-226,o),
(510,-226,cs)
);
},
{
closed = 1;
nodes = (
(433,506,o),
(389,525,o),
(354,554,cs),
(319,583,o),
(298,623,o),
(298,672,cs),
(298,723,o),
(321,761,o),
(357,788,cs),
(392,815,o),
(439,828,o),
(484,828,cs),
(531,828,o),
(579,815,o),
(616,788,c),
(652,760,o),
(678,720,o),
(678,660,cs),
(678,604,o),
(648,566,o),
(608,541,cs),
(568,516,o),
(519,503,o),
(480,498,c)
);
}
);
width = 1092;
},
{
layerId = "359FCFA0-5099-431D-AD00-ECD767CAC005";
shapes = (
{
closed = 1;
nodes = (
(527,-406,o),
(566,-404,o),
(606,-397,cs),
(685,-385,o),
(761,-360,o),
(826,-323,cs),
(860,-304,o),
(887,-282,o),
(912,-257,cs),
(960,-207,o),
(990,-143,o),
(990,-68,cs),
(990,14,o),
(962,71,o),
(895,106,cs),
(829,141,o),
(732,156,o),
(592,156,cs),
(548,156,ls),
(473,156,o),
(421,161,o),
(387,173,c),
(352,184,o),
(338,204,o),
(338,233,cs),
(338,261,o),
(355,280,o),
(390,297,cs),
(425,313,o),
(476,327,o),
(548,343,cs),
(647,365,o),
(725,400,o),
(783,455,cs),
(841,509,o),
(871,582,o),
(871,681,cs),
(871,739,o),
(858,791,o),
(831,837,cs),
(804,883,o),
(763,921,o),
(703,950,c),
(657,875,l),
(1041,875,l),
(1041,994,l),
(731,994,ls),
(677,994,o),
(638,999,o),
(602,1004,cs),
(565,1009,o),
(531,1015,o),
(484,1015,cs),
(367,1015,o),
(270,984,o),
(203,926,cs),
(136,868,o),
(98,789,o),
(98,691,cs),
(98,591,o),
(138,519,o),
(185,468,cs),
(233,417,o),
(287,390,o),
(317,378,c),
(317,364,l),
(276,348,o),
(245,326,o),
(224,300,cs),
(202,273,o),
(192,242,o),
(192,207,cs),
(192,160,o),
(209,127,o),
(231,104,cs),
(253,81,o),
(279,68,o),
(295,63,c),
(295,49,l),
(263,40,o),
(215,18,o),
(177,-19,cs),
(138,-56,o),
(108,-104,o),
(108,-172,cs),
(108,-230,o),
(129,-288,o),
(187,-332,cs),
(246,-376,o),
(341,-406,o),
(489,-406,cs)
);
},
{
closed = 1;
nodes = (
(409,-277,o),
(347,-260,o),
(308,-235,cs),
(269,-209,o),
(253,-175,o),
(253,-139,cs),
(253,-91,o),
(287,-50,o),
(338,-22,cs),
(389,6,o),
(455,23,o),
(520,24,c),
(557,24,ls),
(674,24,o),
(744,15,o),
(785,-4,cs),
(827,-23,o),
(840,-52,o),
(840,-92,cs),
(840,-129,o),
(812,-175,o),
(755,-213,cs),
(698,-249,o),
(614,-277,o),
(501,-277,cs)
);
},
{
closed = 1;
nodes = (
(415,462,o),
(359,485,o),
(317,523,cs),
(274,560,o),
(246,612,o),
(246,680,cs),
(246,748,o),
(273,798,o),
(318,831,cs),
(363,865,o),
(421,880,o),
(484,880,cs),
(537,880,o),
(595,866,o),
(643,832,c),
(689,797,o),
(723,747,o),
(723,671,cs),
(723,591,o),
(686,542,o),
(635,510,cs),
(585,478,o),
(523,463,o),
(472,454,c)
);
}
);
width = 1083;
},
{
layerId = "3AA18437-0CC1-4501-8D0B-B0921B064785";
shapes = (
{
closed = 1;
nodes = (
(529,-404,o),
(565,-402,o),
(602,-395,cs),
(675,-382,o),
(744,-358,o),
(805,-323,c),
(836,-304,o),
(861,-284,o),
(884,-261,c),
(928,-214,o),
(956,-157,o),
(956,-92,cs),
(956,-23,o),
(934,29,o),
(870,62,cs),
(806,94,o),
(711,110,o),
(562,110,cs),
(516,110,ls),
(428,110,o),
(368,116,o),
(329,132,cs),
(290,148,o),
(274,173,o),
(274,212,cs),
(274,251,o),
(294,276,o),
(334,297,cs),
(374,317,o),
(434,334,o),
(518,354,cs),
(622,378,o),
(700,413,o),
(756,466,cs),
(812,518,o),
(840,588,o),
(840,684,cs),
(840,744,o),
(826,798,o),
(794,846,cs),
(762,894,o),
(714,935,o),
(642,964,c),
(620,930,l),
(1026,930,l),
(1026,988,l),
(690,988,ls),
(645,988,o),
(612,993,o),
(581,998,cs),
(549,1003,o),
(519,1008,o),
(478,1008,cs),
(381,1008,o),
(290,979,o),
(226,923,cs),
(161,867,o),
(120,790,o),
(120,690,cs),
(120,585,o),
(165,509,o),
(217,458,cs),
(269,407,o),
(326,381,o),
(350,374,c),
(350,364,l),
(309,351,o),
(276,331,o),
(253,307,cs),
(229,282,o),
(216,251,o),
(216,212,cs),
(216,167,o),
(233,135,o),
(256,112,cs),
(279,89,o),
(305,77,o),
(324,72,c),
(324,62,l),
(287,53,o),
(236,30,o),
(196,-9,cs),
(155,-48,o),
(124,-98,o),
(124,-166,cs),
(124,-222,o),
(144,-282,o),
(200,-327,cs),
(256,-372,o),
(349,-404,o),
(494,-404,cs)
);
},
{
closed = 1;
nodes = (
(373,-340,o),
(297,-319,o),
(250,-287,cs),
(203,-255,o),
(186,-211,o),
(186,-164,cs),
(186,-99,o),
(226,-45,o),
(290,-9,cs),
(354,28,o),
(437,48,o),
(522,48,cs),
(564,48,ls),
(701,48,o),
(781,38,o),
(830,15,cs),
(878,-8,o),
(894,-44,o),
(894,-96,cs),
(894,-152,o),
(859,-211,o),
(791,-259,cs),
(723,-306,o),
(623,-340,o),
(490,-340,cs)
);
},
{
closed = 1;
nodes = (
(393,409,o),
(323,436,o),
(271,484,c),
(218,531,o),
(182,598,o),
(182,690,cs),
(182,779,o),
(215,843,o),
(271,884,cs),
(327,925,o),
(400,944,o),
(484,944,cs),
(544,944,o),
(615,928,o),
(675,885,cs),
(735,842,o),
(778,780,o),
(778,684,cs),
(778,576,o),
(733,513,o),
(669,473,cs),
(605,432,o),
(527,415,o),
(462,400,c)
);
}
);
width = 1072;
}
);
leftKerningGroup = g2;
rightKerningGroup = g;
unicode = 103;
}
{
glyphname = h;
layers = (
{
anchors = (
{
name = "#exit";
position = "{1108, 0}";
},
{
name = bottom;
position = "{590, 0}";
},
{
name = center;
position = "{590, 818}";
},
{
name = top;
position = "{546, 1466}";
}
);
layerId = "8B77E4EB-3567-454C-B5DE-35FF0E228404";
shapes = (
{
closed = 1;
nodes = (
(514,0,l),
(514,400,l),
(514,582,l),
(525,597,o),
(538,610,o),
(553,621,cs),
(568,632,o),
(583,636,o),
(600,636,cs),
(624,636,o),
(640,629,o),
(651,610,cs),
(662,591,o),
(664,565,o),
(664,530,cs),
(664,400,l),
(664,0,l),
(1108,0,l),
(1108,426,l),
(1108,684,ls),
(1108,804,o),
(1079,891,o),
(1027,950,cs),
(974,1009,o),
(900,1036,o),
(804,1036,cs),
(747,1036,o),
(699,1022,o),
(656,998,cs),
(613,973,o),
(579,937,o),
(548,894,c),
(514,894,l),
(514,986,l),
(514,1500,l),
(70,1468,l),
(70,986,l),
(70,426,l),
(70,0,l)
);
}
);
width = 1168;
},
{
anchors = (
{
name = "#exit";
position = "{1027, 0}";
},
{
name = bottom;
position = "{587, 0}";
},
{
name = center;
position = "{587, 818}";
},
{
name = top;
position = "{545, 1455}";
}
);
layerId = "19E1FC53-860E-4D5D-A2A6-9023894BFCE5";
shapes = (
{
closed = 1;
nodes = (
(382,0,l),
(382,423,l),
(382,641,l),
(411,685,o),
(446,726,o),
(487,755,cs),
(527,784,o),
(575,803,o),
(628,803,cs),
(689,803,o),
(731,786,o),
(756,751,cs),
(781,715,o),
(791,664,o),
(791,596,cs),
(791,423,l),
(791,0,l),
(1027,0,l),
(1027,435,l),
(1027,667,ls),
(1027,784,o),
(1003,871,o),
(952,931,cs),
(901,991,o),
(827,1021,o),
(723,1021,cs),
(646,1021,o),
(581,1000,o),
(528,965,cs),
(475,930,o),
(435,887,o),
(404,844,c),
(382,844,l),
(382,987,l),
(382,1488,l),
(146,1465,l),
(146,987,l),
(146,435,l),
(146,0,l)
);
}
);
width = 1152;
},
{
anchors = (
{
name = "#exit";
position = "{958, 0}";
},
{
name = bottom;
position = "{584, 0}";
},
{
name = center;
position = "{584, 818}";
},
{
name = top;
position = "{544, 1446}";
}
);
layerId = "4B7CD45B-7769-4DE2-BE7C-34587D3AC654";
shapes = (
{
closed = 1;
nodes = (
(270,0,l),
(270,442,l),
(270,690,l),
(315,762,o),
(366,823,o),
(430,870,cs),
(494,917,o),
(567,944,o),
(652,944,cs),
(745,944,o),
(806,919,o),
(845,870,cs),
(884,821,o),
(898,748,o),
(898,652,cs),
(898,442,l),
(898,0,l),
(958,0,l),
(958,442,l),
(958,652,ls),
(958,768,o),
(937,855,o),
(889,916,c),
(840,976,o),
(766,1008,o),
(654,1008,cs),
(561,1008,o),
(484,977,o),
(421,937,cs),
(358,896,o),
(313,845,o),
(282,802,c),
(270,802,l),
(270,988,l),
(270,1478,l),
(210,1462,l),
(210,988,l),
(210,442,l),
(210,0,l)
);
}
);
width = 1138;
}
);
leftKerningGroup = b2;
rightKerningGroup = a;
unicode = 104;
}
{
glyphname = i;
layers = (
{
layerId = "53B253BD-EAB0-49E0-8B4C-FD971ECE0D4A";
shapes = (
{
closed = 1;
nodes = (
(524,0,l),
(524,426,l),
(524,526,l),
(524,1016,l),
(80,1004,l),
(80,526,l),
(80,426,l),
(80,0,l)
);
},
{
closed = 1;
nodes = (
(381,1076,o),
(441,1091,o),
(485,1127,cs),
(528,1162,o),
(551,1217,o),
(551,1294,cs),
(551,1358,o),
(528,1411,o),
(485,1448,cs),
(442,1485,o),
(380,1506,o),
(303,1506,cs),
(146,1506,o),
(53,1431,o),
(53,1294,cs),
(53,1217,o),
(76,1162,o),
(119,1127,cs),
(162,1091,o),
(224,1076,o),
(301,1076,cs)
);
}
);
width = 604;
},
{
layerId = "3B65AEAE-576E-4C08-BDA7-4B24E1278BB4";
shapes = (
{
closed = 1;
nodes = (
(386,0,l),
(386,435,l),
(386,535,l),
(386,1002,l),
(150,995,l),
(150,535,l),
(150,435,l),
(150,0,l)
);
},
{
closed = 1;
nodes = (
(313,1184,o),
(352,1195,o),
(380,1219,cs),
(407,1243,o),
(421,1280,o),
(421,1331,cs),
(421,1376,o),
(407,1413,o),
(380,1438,cs),
(353,1462,o),
(315,1476,o),
(267,1476,cs),
(171,1476,o),
(112,1427,o),
(112,1331,cs),
(112,1280,o),
(127,1243,o),
(154,1219,cs),
(181,1195,o),
(218,1184,o),
(265,1184,cs)
);
}
);
width = 537;
},
{
layerId = "359FCFA0-5099-431D-AD00-ECD767CAC005";
shapes = (
{
closed = 1;
nodes = (
(334,0,l),
(334,438,l),
(334,538,l),
(334,997,l),
(177,992,l),
(177,538,l),
(177,438,l),
(177,0,l)
);
},
{
closed = 1;
nodes = (
(289,1225,o),
(319,1235,o),
(340,1255,cs),
(361,1275,o),
(372,1304,o),
(372,1345,cs),
(372,1383,o),
(361,1413,o),
(341,1434,c),
(320,1453,o),
(291,1464,o),
(254,1464,cs),
(182,1464,o),
(135,1425,o),
(135,1345,cs),
(135,1304,o),
(147,1275,o),
(168,1255,cs),
(188,1235,o),
(217,1225,o),
(252,1225,cs)
);
}
);
width = 511;
},
{
layerId = "3AA18437-0CC1-4501-8D0B-B0921B064785";
shapes = (
{
closed = 1;
nodes = (
(270,0,l),
(270,442,l),
(270,542,l),
(270,991,l),
(210,988,l),
(210,542,l),
(210,442,l),
(210,0,l)
);
},
{
closed = 1;
nodes = (
(259,1276,o),
(278,1283,o),
(291,1298,cs),
(304,1313,o),
(312,1334,o),
(312,1362,cs),
(312,1391,o),
(304,1413,o),
(292,1428,cs),
(279,1443,o),
(261,1450,o),
(238,1450,cs),
(194,1450,o),
(162,1422,o),
(162,1362,cs),
(162,1334,o),
(170,1313,o),
(183,1298,cs),
(196,1283,o),
(215,1276,o),
(236,1276,cs)
);
}
);
width = 480;
}
);
leftKerningGroup = b2;
rightKerningGroup = d;
unicode = 105;
}
{
glyphname = k;
layers = (
{
layerId = "D4F413C4-7636-4268-82C2-B87F29C22812";
name = "#instance";
shapes = (
{
closed = 1;
nodes = (
(1218,0,l),
(1146,125,o),
(1072,251,o),
(999,380,c),
(848,642,l),
(870,452,l),
(981,634,ls),
(1057,759,o),
(1130,879,o),
(1206,1004,c),
(702,1004,l),
(671,924,o),
(643,847,o),
(612,767,cs),
(562,636,l),
(482,636,l),
(482,352,l),
(562,352,l),
(611,215,ls),
(636,143,o),
(661,73,o),
(688,0,c)
);
},
{
closed = 1;
nodes = (
(514,0,l),
(514,332,l),
(514,986,l),
(514,1500,l),
(70,1468,l),
(70,986,l),
(70,426,l),
(70,0,l)
);
}
);
width = 1218;
},
{
layerId = "7B7025DB-32D1-45E9-B8AD-2A1739A26F17";
shapes = (
{
closed = 1;
nodes = (
(1218,0,l),
(1146,125,o),
(1072,251,o),
(999,380,cs),
(848,642,l),
(870,452,l),
(981,634,ls),
(1057,759,o),
(1130,879,o),
(1206,1004,c),
(702,1004,l),
(671,924,o),
(643,847,o),
(612,767,cs),
(562,636,l),
(482,636,l),
(482,352,l),
(562,352,l),
(611,215,ls),
(636,143,o),
(661,73,o),
(688,0,c)
);
},
{
closed = 1;
nodes = (
(514,0,l),
(514,332,l),
(514,986,l),
(514,1500,l),
(70,1468,l),
(70,986,l),
(70,426,l),
(70,0,l)
);
}
);
width = 1218;
},
{
layerId = "E0D3637C-DFAE-46FE-ABBC-43C2FC0937C6";
shapes = (
{
closed = 1;
nodes = (
(1089,0,l),
(984,121,o),
(879,237,o),
(771,358,c),
(586,574,l),
(596,467,l),
(750,641,ls),
(854,758,o),
(956,874,o),
(1061,995,c),
(781,995,l),
(708,903,o),
(633,815,o),
(560,726,cs),
(440,579,l),
(360,579,l),
(360,419,l),
(432,419,l),
(572,257,ls),
(645,172,o),
(718,88,o),
(794,0,c)
);
},
{
closed = 1;
nodes = (
(382,0,l),
(382,391,l),
(382,986,l),
(382,1487,l),
(146,1464,l),
(146,986,l),
(146,434,l),
(146,0,l)
);
}
);
width = 1118;
},
{
layerId = "92B4EA3D-FB5D-4A4F-93D4-532A379F7211";
shapes = (
{
closed = 1;
nodes = (
(980,0,l),
(847,113,o),
(714,226,o),
(577,339,cs),
(364,518,l),
(364,480,l),
(554,648,ls),
(683,761,o),
(809,871,o),
(938,988,c),
(847,988,l),
(734,888,o),
(628,792,o),
(515,692,cs),
(336,532,l),
(256,532,l),
(256,476,l),
(322,476,l),
(539,292,ls),
(656,195,o),
(766,97,o),
(883,0,c)
);
},
{
closed = 1;
nodes = (
(270,0,l),
(270,442,l),
(270,988,l),
(270,1478,l),
(210,1462,l),
(210,988,l),
(210,442,l),
(210,0,l)
);
}
);
width = 1034;
}
);
leftKerningGroup = b2;
rightKerningGroup = k;
unicode = 107;
}
{
glyphname = l;
layers = (
{
layerId = "D4F413C4-7636-4268-82C2-B87F29C22812";
name = "#instance";
shapes = (
{
closed = 1;
nodes = (
(514,0,l),
(514,426,l),
(514,986,l),
(514,1500,l),
(70,1468,l),
(70,986,l),
(70,426,l),
(70,0,l)
);
}
);
width = 584;
},
{
layerId = "7B7025DB-32D1-45E9-B8AD-2A1739A26F17";
shapes = (
{
closed = 1;
nodes = (
(514,0,l),
(514,426,l),
(514,986,l),
(514,1500,l),
(70,1468,l),
(70,986,l),
(70,426,l),
(70,0,l)
);
}
);
width = 584;
},
{
layerId = "E0D3637C-DFAE-46FE-ABBC-43C2FC0937C6";
shapes = (
{
closed = 1;
nodes = (
(382,0,l),
(382,435,l),
(382,987,l),
(382,1488,l),
(146,1465,l),
(146,987,l),
(146,435,l),
(146,0,l)
);
}
);
width = 528;
},
{
layerId = "92B4EA3D-FB5D-4A4F-93D4-532A379F7211";
shapes = (
{
closed = 1;
nodes = (
(270,0,l),
(270,442,l),
(270,988,l),
(270,1478,l),
(210,1462,l),
(210,988,l),
(210,442,l),
(210,0,l)
);
}
);
width = 480;
}
);
leftKerningGroup = b2;
rightKerningGroup = d;
unicode = 108;
}
{
glyphname = m;
layers = (
{
anchors = (
{
name = bottom;
position = "{888, 0}";
},
{
name = top;
position = "{888, 992}";
}
);
layerId = "C2E8D012-4D72-46AD-9C5A-D3A967A71A0B";
name = "#instance";
shapes = (
{
closed = 1;
nodes = (
(337,0,l),
(337,431,l),
(337,661,l),
(371,714,o),
(410,763,o),
(457,800,cs),
(505,838,o),
(557,859,o),
(621,859,cs),
(690,859,o),
(737,839,o),
(766,799,cs),
(795,757,o),
(806,698,o),
(806,618,cs),
(806,431,l),
(806,0,l),
(971,0,l),
(971,438,l),
(971,661,ls),
(971,703,o),
(968,740,o),
(962,776,c),
(952,782,l),
(926,933,o),
(843,1016,o),
(679,1016,cs),
(595,1016,o),
(528,989,o),
(470,951,cs),
(412,913,o),
(370,865,o),
(340,820,c),
(322,820,l),
(316,1002,l),
(172,992,l),
(172,538,l),
(172,438,l),
(172,0,l)
);
},
{
closed = 1;
nodes = (
(1598,0,l),
(1598,438,l),
(1598,661,ls),
(1598,775,o),
(1577,862,o),
(1530,923,cs),
(1483,984,o),
(1410,1016,o),
(1306,1016,cs),
(1222,1016,o),
(1152,989,o),
(1094,951,cs),
(1037,912,o),
(992,862,o),
(957,815,c),
(939,815,l),
(964,661,l),
(998,716,o),
(1036,765,o),
(1083,801,cs),
(1131,837,o),
(1184,859,o),
(1247,859,cs),
(1317,859,o),
(1363,839,o),
(1392,799,cs),
(1421,757,o),
(1432,698,o),
(1432,618,cs),
(1432,431,l),
(1432,0,l)
);
}
);
width = 1745;
},
{
anchors = (
{
name = bottom;
position = "{878, 0}";
},
{
name = top;
position = "{878, 1004}";
}
);
layerId = "B35F0E5C-A0C7-48D4-9FBC-8D88C206E4CA";
shapes = (
{
closed = 1;
nodes = (
(514,0,l),
(514,400,l),
(514,582,l),
(525,597,o),
(536,610,o),
(551,621,cs),
(566,632,o),
(580,636,o),
(596,636,cs),
(619,636,o),
(632,629,o),
(643,610,cs),
(654,591,o),
(656,565,o),
(656,530,cs),
(656,400,l),
(656,0,l),
(1100,0,l),
(1100,426,l),
(1100,684,ls),
(1100,736,o),
(1095,781,o),
(1084,824,c),
(1052,824,l),
(1020,960,o),
(942,1036,o),
(798,1036,cs),
(729,1036,o),
(672,1020,o),
(621,989,cs),
(570,958,o),
(528,915,o),
(492,862,c),
(458,862,l),
(438,1024,l),
(70,1004,l),
(70,526,l),
(70,426,l),
(70,0,l)
);
},
{
closed = 1;
nodes = (
(1686,0,l),
(1686,426,l),
(1686,684,ls),
(1686,804,o),
(1658,891,o),
(1606,950,cs),
(1554,1009,o),
(1479,1036,o),
(1386,1036,cs),
(1314,1036,o),
(1252,1020,o),
(1200,989,cs),
(1147,958,o),
(1103,915,o),
(1066,862,c),
(1032,862,l),
(1098,582,l),
(1109,597,o),
(1122,610,o),
(1137,621,cs),
(1152,632,o),
(1166,636,o),
(1182,636,cs),
(1205,636,o),
(1218,629,o),
(1229,610,cs),
(1240,591,o),
(1242,565,o),
(1242,530,cs),
(1242,400,l),
(1242,0,l)
);
}
);
width = 1746;
},
{
anchors = (
{
name = bottom;
position = "{886, 0}";
},
{
name = top;
position = "{886, 995}";
}
);
layerId = "EBB6BD1C-9525-4B95-94A2-FACE28C4DF76";
shapes = (
{
closed = 1;
nodes = (
(382,0,l),
(382,423,l),
(382,641,l),
(410,685,o),
(442,724,o),
(481,755,cs),
(520,786,o),
(563,803,o),
(615,803,cs),
(672,803,o),
(711,786,o),
(735,751,cs),
(759,715,o),
(768,664,o),
(768,596,cs),
(768,423,l),
(768,0,l),
(1004,0,l),
(1004,435,l),
(1004,667,ls),
(1004,711,o),
(1000,751,o),
(993,788,c),
(978,793,l),
(950,940,o),
(868,1021,o),
(709,1021,cs),
(629,1021,o),
(564,997,o),
(508,961,cs),
(452,925,o),
(410,878,o),
(378,831,c),
(356,831,l),
(347,1008,l),
(146,995,l),
(146,535,l),
(146,435,l),
(146,0,l)
);
},
{
closed = 1;
nodes = (
(1620,0,l),
(1620,435,l),
(1620,667,ls),
(1620,783,o),
(1597,870,o),
(1549,930,cs),
(1501,990,o),
(1427,1021,o),
(1326,1021,cs),
(1245,1021,o),
(1177,997,o),
(1121,961,cs),
(1065,924,o),
(1020,875,o),
(985,827,c),
(963,827,l),
(998,641,l),
(1026,685,o),
(1058,726,o),
(1097,755,cs),
(1136,784,o),
(1180,803,o),
(1231,803,cs),
(1288,803,o),
(1327,786,o),
(1351,751,cs),
(1375,715,o),
(1384,664,o),
(1384,596,cs),
(1384,423,l),
(1384,0,l)
);
}
);
width = 1745;
},
{
anchors = (
{
name = bottom;
position = "{892, 0}";
},
{
name = top;
position = "{892, 988}";
}
);
layerId = "B65D3DEB-C1FE-4E99-ABBB-AA13A5F125F2";
shapes = (
{
closed = 1;
nodes = (
(270,0,l),
(270,442,l),
(270,690,l),
(313,758,o),
(362,821,o),
(422,868,cs),
(482,915,o),
(549,944,o),
(630,944,cs),
(718,944,o),
(776,919,o),
(812,870,cs),
(848,821,o),
(862,748,o),
(862,652,cs),
(862,442,l),
(862,0,l),
(922,0,l),
(922,442,l),
(922,652,ls),
(922,691,o),
(920,723,o),
(916,758,c),
(914,766,l),
(890,922,o),
(805,1008,o),
(634,1008,cs),
(545,1008,o),
(473,977,o),
(413,937,cs),
(353,896,o),
(311,845,o),
(282,804,c),
(270,804,l),
(270,994,l),
(210,988,l),
(210,542,l),
(210,442,l),
(210,0,l)
);
},
{
closed = 1;
nodes = (
(1564,0,l),
(1564,442,l),
(1564,652,ls),
(1564,764,o),
(1546,850,o),
(1501,913,cs),
(1456,976,o),
(1384,1008,o),
(1276,1008,cs),
(1187,1008,o),
(1114,977,o),
(1054,936,cs),
(994,895,o),
(949,842,o),
(916,798,c),
(904,798,l),
(912,690,l),
(955,762,o),
(1003,823,o),
(1063,870,cs),
(1123,917,o),
(1191,944,o),
(1272,944,cs),
(1360,944,o),
(1418,919,o),
(1454,870,cs),
(1490,821,o),
(1504,748,o),
(1504,652,cs),
(1504,442,l),
(1504,0,l)
);
}
);
width = 1744;
}
);
leftKerningGroup = m;
rightKerningGroup = a;
unicode = 109;
}
{
glyphname = n;
layers = (
{
layerId = "D4F413C4-7636-4268-82C2-B87F29C22812";
name = "#instance";
shapes = (
{
closed = 1;
nodes = (
(514,0,l),
(514,400,l),
(514,582,l),
(525,597,o),
(538,610,o),
(553,621,cs),
(568,632,o),
(583,636,o),
(600,636,cs),
(624,636,o),
(640,629,o),
(651,610,cs),
(662,591,o),
(664,565,o),
(664,530,cs),
(664,400,l),
(664,0,l),
(1108,0,l),
(1108,426,l),
(1108,684,ls),
(1108,805,o),
(1079,890,o),
(1027,950,cs),
(974,1010,o),
(900,1036,o),
(804,1036,cs),
(732,1036,o),
(673,1020,o),
(622,989,cs),
(570,958,o),
(528,915,o),
(492,862,c),
(458,862,l),
(438,1024,l),
(70,1004,l),
(70,526,l),
(70,426,l),
(70,0,l)
);
}
);
width = 1168;
},
{
layerId = "7B7025DB-32D1-45E9-B8AD-2A1739A26F17";
shapes = (
{
closed = 1;
nodes = (
(514,0,l),
(514,400,l),
(514,582,l),
(525,597,o),
(538,610,o),
(553,621,cs),
(568,632,o),
(583,636,o),
(600,636,cs),
(624,636,o),
(640,629,o),
(651,610,cs),
(662,591,o),
(664,565,o),
(664,530,cs),
(664,400,l),
(664,0,l),
(1108,0,l),
(1108,426,l),
(1108,684,ls),
(1108,805,o),
(1079,890,o),
(1027,950,cs),
(974,1010,o),
(900,1036,o),
(804,1036,cs),
(732,1036,o),
(673,1020,o),
(622,989,cs),
(570,958,o),
(528,915,o),
(492,862,c),
(458,862,l),
(438,1024,l),
(70,1004,l),
(70,526,l),
(70,426,l),
(70,0,l)
);
}
);
width = 1168;
},
{
layerId = "E0D3637C-DFAE-46FE-ABBC-43C2FC0937C6";
shapes = (
{
closed = 1;
nodes = (
(382,0,l),
(382,423,l),
(382,641,l),
(411,685,o),
(446,726,o),
(487,755,cs),
(527,784,o),
(575,803,o),
(628,803,cs),
(689,803,o),
(731,786,o),
(756,751,cs),
(781,715,o),
(791,664,o),
(791,596,cs),
(791,423,l),
(791,0,l),
(1027,0,l),
(1027,435,l),
(1027,667,ls),
(1027,784,o),
(1003,871,o),
(952,931,cs),
(901,991,o),
(827,1021,o),
(723,1021,cs),
(639,1021,o),
(569,997,o),
(513,961,cs),
(456,925,o),
(411,877,o),
(378,830,c),
(356,830,l),
(347,1008,l),
(146,995,l),
(146,535,l),
(146,435,l),
(146,0,l)
);
}
);
width = 1152;
},
{
layerId = "92B4EA3D-FB5D-4A4F-93D4-532A379F7211";
shapes = (
{
closed = 1;
nodes = (
(270,0,l),
(270,442,l),
(270,690,l),
(315,762,o),
(366,823,o),
(430,870,cs),
(494,917,o),
(567,944,o),
(652,944,cs),
(745,944,o),
(806,919,o),
(845,870,cs),
(884,821,o),
(898,748,o),
(898,652,cs),
(898,442,l),
(898,0,l),
(958,0,l),
(958,442,l),
(958,652,ls),
(958,769,o),
(937,855,o),
(889,916,c),
(840,976,o),
(767,1008,o),
(654,1008,cs),
(561,1008,o),
(485,977,o),
(421,937,cs),
(357,896,o),
(313,845,o),
(282,802,c),
(270,802,l),
(270,994,l),
(210,988,l),
(210,542,l),
(210,442,l),
(210,0,l)
);
}
);
width = 1138;
}
);
leftKerningGroup = m;
rightKerningGroup = a;
unicode = 110;
}
